<svg xmlns="http://www.w3.org/2000/svg" version="1.1" width="3300" height="2000"><g id="Notes"><style>
    text {
      font-family: monospace;
      text-anchor: middle;
    }
    text.emphasis {
      font-weight:bold;
    }
    text.lanchor {
      text-anchor: start;
    }
  </style><rect height="2200" id="artboard" fill="white" width="3300" x="0" y="0"/><line id="" style="fill:none;stroke:black;stroke-width:0.5;" x1="263" x2="3036" y1="292" y2="292"/><text class="lanchor emphasis" transform="matrix(1 0 0 1 263 322)">Weight/Scale Variations</text><text transform="matrix(1 0 0 1 559.711 322)">Ultralight</text><text transform="matrix(1 0 0 1 856.422 322)">Thin</text><text transform="matrix(1 0 0 1 1153.13 322)">Light</text><text transform="matrix(1 0 0 1 1449.84 322)">Regular</text><text transform="matrix(1 0 0 1 1746.56 322)">Medium</text><text transform="matrix(1 0 0 1 2043.27 322)">Semibold</text><text transform="matrix(1 0 0 1 2339.98 322)">Bold</text><text transform="matrix(1 0 0 1 2636.69 322)">Heavy</text><text transform="matrix(1 0 0 1 2933.4 322)">Black</text><text id="template-version" style="text-anchor: end;" transform="matrix(1 0 0 1 3036 1933)">Template v.1.0</text><text class="lanchor" transform="matrix(1 0 0 1 263 726)">Small</text><text class="lanchor" transform="matrix(1 0 0 1 263 1156)">Medium</text><text class="lanchor" transform="matrix(1 0 0 1 263 1586)">Large</text></g><g id="Guides"><g id="H-reference" style="fill:#27AAE1;stroke:none;" transform="matrix(1 0 0 1 339 696)"><path d="M 54.9316 0 L 57.666 0 L 30.5664 -70.459 L 28.0762 -70.459 L 0.976562 0 L 3.66211 0 L 12.9395 -24.4629 L 45.7031 -24.4629 Z M 29.1992 -67.0898 L 29.4434 -67.0898 L 44.8242 -26.709 L 13.8184 -26.709 Z"/></g><line id="Baseline-S" style="fill:none;stroke:#27AAE1;opacity:1;stroke-width:0.577;" x1="263" x2="3036" y1="696" y2="696"/><line id="Capline-S" style="fill:none;stroke:#27AAE1;opacity:1;stroke-width:0.577;" x1="263" x2="3036" y1="625.541" y2="625.541"/><g id="H-reference" style="fill:#27AAE1;stroke:none;" transform="matrix(1 0 0 1 339 1126)"><path d="M 54.9316 0 L 57.666 0 L 30.5664 -70.459 L 28.0762 -70.459 L 0.976562 0 L 3.66211 0 L 12.9395 -24.4629 L 45.7031 -24.4629 Z M 29.1992 -67.0898 L 29.4434 -67.0898 L 44.8242 -26.709 L 13.8184 -26.709 Z"/></g><line id="Baseline-M" style="fill:none;stroke:#27AAE1;opacity:1;stroke-width:0.577;" x1="263" x2="3036" y1="1126" y2="1126"/><line id="Capline-M" style="fill:none;stroke:#27AAE1;opacity:1;stroke-width:0.577;" x1="263" x2="3036" y1="1055.54" y2="1055.54"/><g id="H-reference" style="fill:#27AAE1;stroke:none;" transform="matrix(1 0 0 1 339 1556)"><path d="M 54.9316 0 L 57.666 0 L 30.5664 -70.459 L 28.0762 -70.459 L 0.976562 0 L 3.66211 0 L 12.9395 -24.4629 L 45.7031 -24.4629 Z M 29.1992 -67.0898 L 29.4434 -67.0898 L 44.8242 -26.709 L 13.8184 -26.709 Z"/></g><line id="Baseline-L" style="fill:none;stroke:#27AAE1;opacity:1;stroke-width:0.577;" x1="263" x2="3036" y1="1556" y2="1556"/><line id="Capline-L" style="fill:none;stroke:#27AAE1;opacity:1;stroke-width:0.577;" x1="263" x2="3036" y1="1485.54" y2="1485.54"/><rect height="119.336" id="left-margin" style="fill:darkred;stroke:none;opacity:0.4;" width="12.4512" x="1394.06" y="1030.79"/><rect height="119.336" id="right-margin" style="fill:darkgreen;stroke:none;opacity:0.4;" width="12.4512" x="1502.5112" y="1030.79"/><rect x="1406.5112" y="1045" width="96" height="96" fill="none" stroke="blue" stroke-dasharray="5"/><rect x="1394.06" y="1030.79" width="120.9024" height="119.336" fill="none" stroke="blue"/></g><g id="Symbols"><g id="Bold-L" transform="matrix(1 0 0 1 2266 1556)"><path d="M30.153750000000002 13.306250000000016 H35.31375 L105.4575 -57.15999999999998 L100.2975 -62.31999999999999 L30.153750000000002 8.146250000000016 V13.306250000000016 Z M128.51625 -63.93249999999999  107.23125 -85.21749999999999  110.6175 -88.76499999999999 Q115.13250000000001 -93.28 121.340625 -93.360625 Q127.54875 -93.44125 132.06375 -89.08749999999998 L134.96625 -86.18499999999997 Q138.675 -82.63749999999999 138.271875 -77.96124999999999 Q137.86875 -73.28499999999998 134.64375 -70.05999999999999 L128.51625 -63.93249999999999 Z M121.905 -57.32124999999999  39.82875 24.755000000000017 H18.54375 V3.470000000000013 L100.45875000000001 -78.445 L121.905 -57.32124999999999 Z M103.03875000000001 -59.73999999999998  100.2975 -62.31999999999999  105.4575 -57.15999999999998  103.03875000000001 -59.73999999999998 Z"/></g><g id="Semibold-L" transform="matrix(1 0 0 1 1970.27 1556)"><path d="M29.66306625 13.236106250000013 H35.6643075 L106.368885 -57.650683749999985 L100.36764375 -63.65192499999999 L29.66306625 7.2348650000000205 V13.236106250000013 Z M128.30598 -64.49332749999998  107.30139374999999 -85.49791375  112.15985625000002 -90.44748249999998 Q115.9035975 -94.191385 121.16534625 -94.23685749999999 Q126.427095 -94.28249124999999 130.1709975 -90.62985624999999 L134.89610625 -85.90458625 Q138.18431625 -82.70764374999997 137.95647 -78.31180749999999 Q137.7284625 -73.91597124999998 134.71389374999998 -70.90124124999998 L128.30598 -64.49332749999998 Z M121.62458625 -57.811933749999994  39.89889375 23.913758750000017 H18.8943075 V2.909172500000011 L100.52889375 -78.72541374999999 L121.62458625 -57.811933749999994 Z M103.45945125000001 -60.65138499999999  100.36764375 -63.65192499999999  106.368885 -57.650683749999985  103.45945125000001 -60.65138499999999 Z"/></g><g id="Medium-L" transform="matrix(1 0 0 1 1674.31 1556)"><path d="M29.2949325 13.183538750000015 H35.927145 L107.05242375 -58.0188175 L100.42021125 -64.65102999999999 L29.2949325 6.551326250000017 V13.183538750000015 Z M128.14811625 -64.91402874999999  107.35396125 -85.70818374999999  113.31666375 -91.70958624999997 Q116.4821625 -94.87492375 121.03392749999999 -94.89427375 Q125.58569250000001 -94.91346249999998 128.75119125 -91.78666375 L134.84353875000002 -85.69431624999999 Q137.8161825 -82.76021124999998 137.71975500000002 -78.57464499999999 Q137.6233275 -74.38923999999999 134.76646125 -71.53221249999999 L128.14811625 -64.91402874999999 Z M121.41431625 -58.18006749999999  39.95146125 23.282787500000016 H19.157145 V2.4884712500000177 L100.58146125 -78.93568375 L121.41431625 -58.18006749999999 Z M103.77485625000001 -61.33492374999999  100.42021125 -64.65102999999999  107.05242375 -58.0188175  103.77485625000001 -61.33492374999999 Z"/></g><g id="Regular-L" transform="matrix(1 0 0 1 1378.56 1556)"><path d="M29.025000000000002 13.145000000000014 H36.120000000000005 L107.55375000000001 -58.28874999999999 L100.45875000000001 -65.38374999999999 L29.025000000000002 6.050000000000011 V13.145000000000014 Z M128.0325 -65.22249999999998  107.3925 -85.86249999999998  114.165 -92.63499999999999 Q116.90625 -95.37625 120.9375 -95.37625 Q124.96875 -95.37625 127.71000000000001 -92.63499999999999 L134.805 -85.53999999999999 Q137.54625000000001 -82.79874999999998 137.54625000000001 -78.76749999999998 Q137.54625000000001 -74.73624999999998 134.805 -71.99499999999999 L128.0325 -65.22249999999998 Z M121.26 -58.44999999999999  39.99 22.820000000000014 H19.35 V2.180000000000014 L100.62 -79.08999999999999 L121.26 -58.44999999999999 Z"/></g><g id="Light-L" transform="matrix(1 0 0 1 1082.77 1556)"><path d="M30.88566375 12.276668750000017 H37.4225775 L108.732165 -58.97099874999999 L102.13333125 -65.56983249999999 L30.88566375 5.7399162500000145 V12.276668750000017 Z M124.24909125 -64.2301675  107.3925 -81.08659749999998  114.165 -87.85909749999999 Q116.2860825 -89.98017999999999 119.35596000000001 -89.98017999999999 Q122.4258375 -89.98017999999999 124.54675875000001 -87.85909749999999 L131.02159125 -81.38442624999999 Q133.1425125 -79.26334374999999 133.11155250000002 -76.19346624999999 Q133.08059250000002 -73.12358875 130.95951000000002 -70.94058625 L124.24909125 -64.2301675 Z M119.08909125000001 -59.13224874999999  40.362165 19.594838750000015 H23.567655000000002 V2.800167500000015 L102.29458125000001 -75.92675874999999 L119.08909125000001 -59.13224874999999 Z M105.43282875 -62.33241624999998  102.13333125 -65.56983249999999  108.732165 -58.97099874999999  105.43282875 -62.33241624999998 Z"/></g><g id="Thin-L" transform="matrix(1 0 0 1 787.282 1556)"><path d="M32.74616625 11.408498750000014 H38.7248325 L109.91041875 -59.65308624999999 L103.80775125000001 -65.75591499999999 L32.74616625 5.429832500000018 V11.408498750000014 Z M120.46616625 -63.23783499999999  107.3925 -76.31166249999998  114.165 -83.08416249999999 Q115.665915 -84.58491624999999 117.77458125 -84.58491624999999 Q119.8832475 -84.58491624999999 121.38400125 -83.08416249999999 L127.23866625000001 -77.22949749999998 Q128.73958125000001 -75.72858249999999 128.6775 -73.61991624999999 Q128.61558 -71.51124999999999 127.114665 -69.88633374999999 L120.46616625 -63.23783499999999 Z M116.91866625 -59.81433624999998  40.73416875 16.370000000000015 H27.78450375 V3.4203350000000157 L103.96900125 -72.76400124999999 L116.91866625 -59.81433624999998 Z M106.85908500000001 -62.82858249999998  103.80775125000001 -65.75591499999999  109.91041875 -59.65308624999999  106.85908500000001 -62.82858249999998 Z"/></g><g id="Ultralight-L" transform="matrix(1 0 0 1 491.205 1556)"><path d="M33.862500000000004 10.887500000000014 H39.50625 L110.6175 -60.062499999999986 L104.8125 -65.86749999999999 L33.862500000000004 5.243750000000013 V10.887500000000014 Z M118.19625 -62.642499999999984  107.3925 -73.44624999999999  114.165 -80.21874999999999 Q115.29375 -81.34749999999998 116.825625 -81.34749999999998 Q118.3575 -81.34749999999998 119.48625 -80.21874999999999 L124.96875 -74.73624999999998 Q126.0975 -73.60749999999999 126.016875 -72.07562499999999 Q125.93625 -70.54374999999999 124.8075 -69.25374999999998 L118.19625 -62.642499999999984 Z M115.61625000000001 -60.22374999999998  40.9575 14.435000000000016 H30.315 V3.792500000000018 L104.97375000000001 -70.86625 L115.61625000000001 -60.22374999999998 Z M107.715 -63.126249999999985  104.8125 -65.86749999999999  110.6175 -60.062499999999986  107.715 -63.126249999999985 Z"/></g><g id="Bold-M" transform="matrix(1 0 0 1 2281.8 1126)"><path d="M26.125 -0.10499999999998977 H31.125 L73.0 -42.10499999999999 L68.0 -47.10499999999999 L26.125 -5.10499999999999 V-0.10499999999998977 Z M97.0 -49.22999999999999  75.125 -70.97999999999999  78.625 -74.60499999999999 Q83.25 -79.35499999999999 89.6875 -79.41749999999999 Q96.125 -79.47999999999999 100.875 -74.85499999999999 L103.5 -72.22999999999999 Q107.375 -68.60499999999999 107.125 -63.85499999999999 Q106.875 -59.10499999999999 103.5 -55.72999999999999 L97.0 -49.22999999999999 Z M89.875 -41.97999999999999  36.125 11.77000000000001 H14.125 V-10.10499999999999 L67.875 -63.85499999999999 L89.875 -41.97999999999999 Z M70.625 -44.60499999999999  68.0 -47.10499999999999  73.0 -42.10499999999999  70.625 -44.60499999999999 Z"/></g><g id="Semibold-M" transform="matrix(1 0 0 1 1985.97 1126)"><path d="M25.635875 -0.15937499999999005 H31.505375 L73.923875 -42.648499999999984 L68.054375 -48.51799999999999 L25.635875 -6.028874999999989 V-0.15937499999999005 Z M96.782625 -49.827749999999995  75.179375 -71.25174999999999  80.201 -76.344 Q84.065125 -80.27887499999999 89.5245 -80.31412499999999 Q94.98375 -80.34949999999999 98.918625 -76.48537499999999 L103.445625 -71.95824999999999 Q106.885875 -68.65937499999998 106.798875 -64.20824999999999 Q106.712 -59.75712499999999 103.554375 -56.59949999999999 L96.782625 -49.827749999999995 Z M89.60325 -42.523499999999984  36.179375 10.90050000000001 H14.505375 V-10.702749999999988 L67.929375 -64.12674999999999 L89.60325 -42.523499999999984 Z M71.05975 -45.58324999999999  68.054375 -48.51799999999999  73.923875 -42.648499999999984  71.05975 -45.58324999999999 Z"/></g><g id="Medium-M" transform="matrix(1 0 0 1 1689.91 1126)"><path d="M25.269 -0.20012499999998923 H31.79075 L74.616875 -43.056124999999994 L68.095125 -49.577749999999995 L25.269 -6.72187499999999 V-0.20012499999998923 Z M96.619625 -50.27624999999999  75.220125 -71.45549999999999  81.383125 -77.64849999999998 Q84.676625 -80.97187499999998 89.402125 -80.98674999999999 Q94.12775 -81.00174999999999 97.451125 -77.70824999999999 L103.404875 -71.7545 Q106.519 -68.70012499999999 106.554375 -64.47325 Q106.589625 -60.24624999999999 103.595125 -57.25174999999999 L96.619625 -50.27624999999999 Z M89.3995 -42.931124999999994  36.220125 10.24825000000001 H14.79075 V-11.15124999999999 L67.970125 -64.33049999999999 L89.3995 -42.931124999999994 Z M71.385875 -46.31699999999999  68.095125 -49.577749999999995  74.616875 -43.056124999999994  71.385875 -46.31699999999999 Z"/></g><g id="Regular-M" transform="matrix(1 0 0 1 1394.06 1126)"><path d="M25.0 -0.22999999999998977 H32.0 L75.125 -43.35499999999999 L68.125 -50.35499999999999 L25.0 -7.22999999999999 V-0.22999999999998977 Z M96.5 -50.60499999999999  75.25 -71.60499999999999  82.25 -78.60499999999999 Q85.125 -81.47999999999999 89.3125 -81.47999999999999 Q93.5 -81.47999999999999 96.375 -78.60499999999999 L103.375 -71.60499999999999 Q106.25 -68.72999999999999 106.375 -64.66749999999999 Q106.5 -60.60499999999999 103.625 -57.72999999999999 L96.5 -50.60499999999999 Z M89.25 -43.22999999999999  36.25 9.77000000000001 H15.0 V-11.47999999999999 L68.0 -64.47999999999999 L89.25 -43.22999999999999 Z"/></g><g id="Light-M" transform="matrix(1 0 0 1 1098.18 1126)"><path d="M25.76925 -0.22999999999998977 H31.951875 L78.25025 -46.528249999999986 L72.067625 -52.710999999999984 L25.76925 -6.412624999999991 V-0.22999999999998977 Z M94.28825 -51.95124999999999  77.413625 -68.672125  83.932875 -75.19125 Q86.13475 -77.39312499999998 89.2885 -77.39312499999998 Q92.44225 -77.39312499999998 94.644125 -75.19125 L100.730625 -69.10487499999999 Q102.9325 -66.90299999999999 103.009375 -63.82612499999999 Q103.08625 -60.74924999999999 100.884375 -58.54737499999999 L94.28825 -51.95124999999999 Z M88.865375 -46.451374999999985  35.144125 7.26987500000001 H18.2695 V-9.604874999999993 L71.990625 -63.32612499999999 L88.865375 -46.451374999999985 Z M75.134875 -49.643624999999986  72.067625 -52.710999999999984  78.25025 -46.528249999999986  75.134875 -49.643624999999986 Z"/></g><g id="Thin-M" transform="matrix(1 0 0 1 802.565 1126)"><path d="M26.5385 -0.22999999999998977 H31.903875 L81.375 -49.70112499999999 L76.009625 -55.06649999999999 L26.5385 -5.59537499999999 V-0.22999999999998977 Z M92.077 -53.29724999999999  79.576875 -65.73962499999999  85.615375 -71.77812499999999 Q87.14425 -73.30699999999999 89.264375 -73.30699999999999 Q91.384625 -73.30699999999999 92.9135 -71.77812499999999 L98.086625 -66.60499999999999 Q99.615375 -65.07612499999999 99.64425 -62.98487499999999 Q99.673125 -60.89349999999999 98.14425 -59.36462499999999 L92.077 -53.29724999999999 Z M88.48075 -49.67224999999999  34.0385 4.77000000000001 H21.538375 V-7.72999999999999 L75.98075 -62.17237499999999 L88.48075 -49.67224999999999 Z M78.64425 -52.43187499999999  76.009625 -55.06649999999999  81.375 -49.70112499999999  78.64425 -52.43187499999999 Z"/></g><g id="Ultralight-M" transform="matrix(1 0 0 1 506.415 1126)"><path d="M27.0 -0.22999999999998977 H31.875 L83.25 -51.60499999999999 L78.375 -56.47999999999999 L27.0 -5.10499999999999 V-0.22999999999998977 Z M90.75 -54.10499999999999  80.875 -63.97999999999999  86.625 -69.72999999999999 Q87.75 -70.85499999999999 89.25 -70.85499999999999 Q90.75 -70.85499999999999 91.875 -69.72999999999999 L96.5 -65.10499999999999 Q97.625 -63.97999999999999 97.625 -62.47999999999999 Q97.625 -60.97999999999999 96.5 -59.85499999999999 L90.75 -54.10499999999999 Z M88.25 -51.60499999999999  33.375 3.2700000000000102 H23.5 V-6.60499999999999 L78.375 -61.47999999999999 L88.25 -51.60499999999999 Z"/></g><g id="Bold-S" transform="matrix(1 0 0 1 2294.23 696)"><path d="M21.007125000000002 -7.910874999999987 H25.248 L57.399750000000004 -40.16124999999999 L53.158875 -44.40212499999999 L21.007125000000002 -12.15174999999999 V-7.910874999999987 Z M77.02612500000001 -45.78287499999999  58.879125 -64.0285  60.950250000000004 -66.19824999999999 Q64.796625 -70.14325 69.97443750000001 -70.1925625 Q75.15225000000001 -70.241875 79.09725 -66.39549999999998 L81.562875 -63.929874999999996 Q84.718875 -60.97112499999999 84.423 -56.927499999999995 Q84.127125 -52.88387499999999 81.36562500000001 -50.12237499999999 L77.02612500000001 -45.78287499999999 Z M71.305875 -40.06262499999999  29.39025 1.853000000000014 H11.144625000000001 V-16.293999999999986 L53.06025 -58.20962499999999 L71.305875 -40.06262499999999 Z M55.42725 -42.23237499999999  53.158875 -44.40212499999999  57.399750000000004 -40.16124999999999  55.42725 -42.23237499999999 Z"/></g><g id="Semibold-S" transform="matrix(1 0 0 1 1998.1 696)"><path d="M20.621205375 -7.953776874999988 H25.548115875 L58.128687375 -40.590071499999986 L53.201776875 -45.516981999999985 L20.621205375 -12.880687374999987 V-7.953776874999988 Z M76.854616125 -46.254499749999994  58.922026875 -64.24291075  62.193714 -67.57032099999999 Q65.439758625 -70.87218737499998 69.8458305 -70.89999962499999 Q74.25180375000001 -70.9279105 77.55367012500001 -67.68186587499999 L81.519973125 -63.71546425 Q84.332955375 -61.014026874999985 84.165687375 -57.20621424999999 Q83.998518 -53.39840162499999 81.40852687499999 -50.808410499999994 L76.854616125 -46.254499749999994 Z M71.09146425 -40.49144649999999  29.433151875 1.166964500000013 H11.444740875 V-16.765624749999986 L53.103151874999995 -58.42403574999999 L71.09146425 -40.49144649999999 Z M55.770267749999995 -43.00421424999999  53.201776875 -45.516981999999985  58.128687375 -40.590071499999986  55.770267749999995 -43.00421424999999 Z"/></g><g id="Medium-S" transform="matrix(1 0 0 1 1701.85 696)"><path d="M20.331741 -7.9859286249999855 H25.773276750000004 L58.675464375 -40.91168762499999 L53.233928625 -46.35312474999999 L20.331741 -13.427464374999989 V-7.9859286249999855 Z M76.726009125 -46.60836624999999  58.954178625 -64.40366949999999  63.126410625000005 -68.59957149999998 Q65.92223212500001 -71.41896437499999 69.74927662500001 -71.43070074999999 Q73.57641975000001 -71.44253574999999 76.395812625 -68.64671424999999 L81.48782137500001 -63.5547055 Q84.043491 -61.04617862499998 83.972776875 -57.41529924999999 Q83.901964125 -53.78432124999999 81.440678625 -51.32303574999999 L76.726009125 -46.60836624999999 Z M70.9307055 -40.81306262499999  29.465303625000004 0.6523392500000131 H11.66990175 V-17.11949124999999 L53.135303625 -58.58479449999999 L70.9307055 -40.81306262499999 Z M56.027580375 -43.58314299999999  53.233928625 -46.35312474999999  58.675464375 -40.91168762499999  56.027580375 -43.58314299999999 Z"/></g><g id="Regular-S" transform="matrix(1 0 0 1 1405.73 696)"><path d="M20.119500000000002 -8.009499999999989 H25.938375 L59.076375000000006 -41.14749999999999 L53.2575 -46.96637499999999 L20.119500000000002 -13.828374999999987 V-8.009499999999989 Z M76.631625 -46.86774999999999  58.97775 -64.52162499999999  63.810375 -69.35425 Q66.276 -71.819875 69.6785625 -71.819875 Q73.081125 -71.819875 75.54675 -69.35425 L81.46425 -63.43674999999999 Q83.83125 -61.069749999999985 83.83125 -57.568562499999985 Q83.83125 -54.067374999999984 81.46425 -51.70037499999999 L76.631625 -46.86774999999999 Z M70.81275000000001 -41.04887499999999  29.488875 0.2750000000000128 H11.835 V-17.378874999999987 L53.158875 -58.702749999999995 L70.81275000000001 -41.04887499999999 Z"/></g><g id="Light-S" transform="matrix(1 0 0 1 1109.75 696)"><path d="M20.72643825 -8.009499999999989 H25.900404375 L61.54219725 -43.65119424999999 L56.36823112500001 -48.82525899999998 L20.72643825 -13.183466124999988 V-8.009499999999989 Z M74.88655425 -47.929941249999985  60.684850125 -62.20758662499999  65.138163375 -66.66080124999999 Q67.07269275 -68.59533062499999 69.6596265 -68.59533062499999 Q72.24656025 -68.59533062499999 74.181089625 -66.66080124999999 L79.37783812500001 -61.464151374999986 Q81.21374250000001 -59.62824699999999 81.17577187500001 -56.90471762499999 Q81.13780125000001 -54.18118824999999 79.30189687500001 -52.34528387499999 L74.88655425 -47.929941249999985 Z M70.509280875 -43.59053987499998  28.616339625000002 -1.697598624999987 H14.414635500000001 V-15.89940137499999 L56.307478124999996 -57.79234262499999 L70.509280875 -43.59053987499998 Z M58.985541375 -46.207850124999986  56.36823112500001 -48.82525899999998  61.54219725 -43.65119424999999  58.985541375 -46.207850124999986 Z"/></g><g id="Thin-S" transform="matrix(1 0 0 1 814.015 696)"><path d="M21.3333765 -8.009499999999989 H25.862532375 L64.007625 -46.15459262499999 L59.478469125000004 -50.68374849999999 L21.3333765 -12.53865587499999 V-8.009499999999989 Z M73.141878 -48.99193524999999  62.391654375 -59.89384412499999  66.46565587500001 -63.967845624999995 Q67.86918825000001 -65.37137799999999 69.640591875 -65.37137799999999 Q71.412094125 -65.37137799999999 72.81562650000001 -63.967845624999995 L77.291722125 -59.491749999999996 Q78.596530875 -58.186842625 78.52068825 -56.24097137499999 Q78.444845625 -54.295001499999984 77.13993825 -52.990094124999985 L73.141878 -48.99193524999999 Z M70.20581175000001 -46.13181024999999  27.7440015 -3.6699999999999875 H16.993777875 V-14.420124999999988 L59.455686750000005 -56.88203387499999 L70.20581175000001 -46.13181024999999 Z M61.75443825 -48.40777937499999  59.478469125000004 -50.68374849999999  64.007625 -46.15459262499999  61.75443825 -48.40777937499999 Z"/></g><g id="Ultralight-S" transform="matrix(1 0 0 1 517.792 696)"><path d="M21.6975 -8.009499999999989 H25.839750000000002 L65.48700000000001 -47.65674999999999 L61.344750000000005 -51.79899999999999 L21.6975 -12.15174999999999 V-8.009499999999989 Z M72.094875 -49.62924999999999  63.415875 -58.505499999999984  67.26225000000001 -62.35187499999999 Q68.347125 -63.43674999999999 69.62925 -63.43674999999999 Q70.911375 -63.43674999999999 71.99625 -62.35187499999999 L76.03987500000001 -58.30824999999999 Q77.02612500000001 -57.32199999999999 76.92750000000001 -55.842624999999984 Q76.828875 -54.363249999999994 75.842625 -53.376999999999995 L72.094875 -49.62924999999999 Z M70.02375 -47.65674999999999  27.2205 -4.853499999999986 H18.5415 V-13.532499999999988 L61.344750000000005 -56.33574999999999 L70.02375 -47.65674999999999 Z"/></g></g></svg>