<svg xmlns="http://www.w3.org/2000/svg" version="1.1" width="3300" height="2000"><g id="Notes"><style>
    text {
      font-family: monospace;
      text-anchor: middle;
    }
    text.emphasis {
      font-weight:bold;
    }
    text.lanchor {
      text-anchor: start;
    }
  </style><rect height="2200" id="artboard" fill="white" width="3300" x="0" y="0"/><line id="" style="fill:none;stroke:black;stroke-width:0.5;" x1="263" x2="3036" y1="292" y2="292"/><text class="lanchor emphasis" transform="matrix(1 0 0 1 263 322)">Weight/Scale Variations</text><text transform="matrix(1 0 0 1 559.711 322)">Ultralight</text><text transform="matrix(1 0 0 1 856.422 322)">Thin</text><text transform="matrix(1 0 0 1 1153.13 322)">Light</text><text transform="matrix(1 0 0 1 1449.84 322)">Regular</text><text transform="matrix(1 0 0 1 1746.56 322)">Medium</text><text transform="matrix(1 0 0 1 2043.27 322)">Semibold</text><text transform="matrix(1 0 0 1 2339.98 322)">Bold</text><text transform="matrix(1 0 0 1 2636.69 322)">Heavy</text><text transform="matrix(1 0 0 1 2933.4 322)">Black</text><text id="template-version" style="text-anchor: end;" transform="matrix(1 0 0 1 3036 1933)">Template v.1.0</text><text class="lanchor" transform="matrix(1 0 0 1 263 726)">Small</text><text class="lanchor" transform="matrix(1 0 0 1 263 1156)">Medium</text><text class="lanchor" transform="matrix(1 0 0 1 263 1586)">Large</text></g><g id="Guides"><g id="H-reference" style="fill:#27AAE1;stroke:none;" transform="matrix(1 0 0 1 339 696)"><path d="M 54.9316 0 L 57.666 0 L 30.5664 -70.459 L 28.0762 -70.459 L 0.976562 0 L 3.66211 0 L 12.9395 -24.4629 L 45.7031 -24.4629 Z M 29.1992 -67.0898 L 29.4434 -67.0898 L 44.8242 -26.709 L 13.8184 -26.709 Z"/></g><line id="Baseline-S" style="fill:none;stroke:#27AAE1;opacity:1;stroke-width:0.577;" x1="263" x2="3036" y1="696" y2="696"/><line id="Capline-S" style="fill:none;stroke:#27AAE1;opacity:1;stroke-width:0.577;" x1="263" x2="3036" y1="625.541" y2="625.541"/><g id="H-reference" style="fill:#27AAE1;stroke:none;" transform="matrix(1 0 0 1 339 1126)"><path d="M 54.9316 0 L 57.666 0 L 30.5664 -70.459 L 28.0762 -70.459 L 0.976562 0 L 3.66211 0 L 12.9395 -24.4629 L 45.7031 -24.4629 Z M 29.1992 -67.0898 L 29.4434 -67.0898 L 44.8242 -26.709 L 13.8184 -26.709 Z"/></g><line id="Baseline-M" style="fill:none;stroke:#27AAE1;opacity:1;stroke-width:0.577;" x1="263" x2="3036" y1="1126" y2="1126"/><line id="Capline-M" style="fill:none;stroke:#27AAE1;opacity:1;stroke-width:0.577;" x1="263" x2="3036" y1="1055.54" y2="1055.54"/><g id="H-reference" style="fill:#27AAE1;stroke:none;" transform="matrix(1 0 0 1 339 1556)"><path d="M 54.9316 0 L 57.666 0 L 30.5664 -70.459 L 28.0762 -70.459 L 0.976562 0 L 3.66211 0 L 12.9395 -24.4629 L 45.7031 -24.4629 Z M 29.1992 -67.0898 L 29.4434 -67.0898 L 44.8242 -26.709 L 13.8184 -26.709 Z"/></g><line id="Baseline-L" style="fill:none;stroke:#27AAE1;opacity:1;stroke-width:0.577;" x1="263" x2="3036" y1="1556" y2="1556"/><line id="Capline-L" style="fill:none;stroke:#27AAE1;opacity:1;stroke-width:0.577;" x1="263" x2="3036" y1="1485.54" y2="1485.54"/><rect height="119.336" id="left-margin" style="fill:darkred;stroke:none;opacity:0.4;" width="12.4512" x="1394.06" y="1030.79"/><rect height="119.336" id="right-margin" style="fill:darkgreen;stroke:none;opacity:0.4;" width="12.4512" x="1502.5112" y="1030.79"/><rect x="1406.5112" y="1045" width="96" height="96" fill="none" stroke="blue" stroke-dasharray="5"/><rect x="1394.06" y="1030.79" width="120.9024" height="119.336" fill="none" stroke="blue"/></g><g id="Symbols"><g id="Bold-L" transform="matrix(1 0 0 1 2266 1556)"><path d="M77.465145 33.30125000000002 Q63.134535 33.30125000000002 50.67748875 27.966455000000018 Q38.22028125 22.631821250000016 28.87923 13.290770000000016 Q19.53817875 3.9497187500000166 14.203545 -8.497168749999979 Q8.86875 -20.944217499999986 8.86875 -35.288372499999994 Q8.86875 -49.632688749999986 14.203545 -62.101828749999996 Q19.53817875 -74.57096874999999 28.85391375 -83.83977999999999 Q38.16964875 -93.10875249999998 50.62846875 -98.51562625 Q63.0871275 -103.92249999999999 77.44498875000001 -103.92249999999999 Q91.80268875 -103.92249999999999 104.29085625 -98.5280425 Q116.77902375000001 -93.13374624999997 126.0359025 -83.88622 Q135.29278125 -74.63869374999999 140.69272125 -62.13730374999999 Q146.0925 -49.63607499999999 146.0925 -35.27289249999998 Q146.0925 -20.920029999999983 140.68562625 -8.465563749999987 Q135.2787525 3.988902500000016 126.00978 13.280611250000018 Q116.74096875000001 22.572320000000015 104.26828125 27.936785000000015 Q91.795755 33.30125000000002 77.465145 33.30125000000002 Z M77.480625 18.143750000000015 Q99.6525 18.143750000000015 115.213125 2.60376500000001 Q130.77375 -12.936219999999992 130.77375 -35.31062499999999 Q130.77375 -57.48249999999999 115.24344 -73.04312499999999 Q99.71296875 -88.60374999999999 77.31937500000001 -88.60374999999999 Q55.1475 -88.60374999999999 39.586875 -73.07343999999999 Q24.02625 -57.542968749999986 24.02625 -35.14937499999999 Q24.02625 -12.977499999999985 39.566235000000006 2.5831250000000168 Q55.10622000000001 18.143750000000015 77.480625 18.143750000000015 Z M77.4 10.565000000000015 Q80.39650875000001 10.565000000000015 82.929585 8.791250000000012 Q85.4625 7.0175000000000125 86.43 4.115000000000016 H68.37 Q69.49875 7.0175000000000125 71.95104 8.791250000000012 Q74.40349125 10.565000000000015 77.4 10.565000000000015 Z M56.92125 -7.172499999999985 H98.04 V-16.041249999999984 H56.92125 V-7.172499999999985 Z M58.695 -24.10374999999999 H96.06162375 Q101.74875 -28.457499999999982 105.135 -34.83912999999998 Q108.52125000000001 -41.22092124999999 108.52125000000001 -48.75032874999998 Q108.52125000000001 -61.65081249999999 99.41820375 -70.69290624999998 Q90.31531875 -79.73499999999999 77.4 -79.73499999999999 Q64.5 -79.73499999999999 55.47 -70.66017249999999 Q46.44 -61.585506249999995 46.44 -48.710177499999986 Q46.44 -41.19576624999998 49.745625000000004 -34.826713749999996 Q53.05125 -28.457499999999982 58.695 -24.10374999999999 Z M62.081250000000004 -32.97249999999998 Q58.76256375 -36.48597624999998 57.035576250000005 -40.539317499999996 Q55.30875 -44.59249749999999 55.30875 -48.77499999999999 Q55.30875 -57.92706624999998 61.69441125 -64.39673874999998 Q68.0800725 -70.86625 77.33808 -70.86625 Q86.5960875 -70.86625 93.12429375 -64.39673874999998 Q99.6525 -57.92706624999998 99.6525 -48.77499999999999 Q99.6525 -44.59249749999999 97.84504875000002 -40.539317499999996 Q96.03743625 -36.48597624999998 92.71875 -32.97249999999998 H62.081250000000004 Z"/></g><g id="Semibold-L" transform="matrix(1 0 0 1 1970.27 1556)"><path d="M77.45547 31.548623750000015 Q63.55523625000001 31.548623750000015 51.412627500000006 26.324930000000016 Q39.27018 21.101236250000017 30.169391250000004 12.000608750000012 Q21.06876375 2.8998200000000125 15.84507 -9.242143749999983 Q10.62137625 -21.384107499999985 10.62137625 -35.298047499999996 Q10.62137625 -49.21198749999999 15.84507 -61.366528749999986 Q21.06876375 -73.52107 30.155201249999998 -82.54590999999999 Q39.2414775 -91.57074999999998 51.39021375 -96.83524 Q63.53878875 -102.09973 77.46046875 -102.09973 Q91.38198750000001 -102.09973 103.5473325 -96.84233499999999 Q115.7126775 -91.58493999999999 124.730745 -82.57219375 Q133.7488125 -73.55944749999999 139.00927125 -61.375558749999996 Q144.26973 -49.191669999999974 144.26973 -35.27289249999998 Q144.26973 -21.360081249999986 139.00524000000001 -9.21892374999998 Q133.74075 2.922072500000013 124.71591000000001 11.981903750000015 Q115.69107000000001 21.04189625000002 103.5234675 26.295260000000017 Q91.35570375 31.548623750000015 77.45547 31.548623750000015 Z M77.480625 18.774721250000017 Q99.93291375000001 18.774721250000017 115.6688175 3.0154362500000147 Q131.40472125 -12.743848749999984 131.40472125 -35.31062499999999 Q131.40472125 -57.762913749999996 115.69897125000001 -73.49881749999999 Q99.99338250000001 -89.23472124999998 77.35436625 -89.23472124999998 Q54.93723000000001 -89.23472124999998 39.16617375 -73.52897125 Q23.39527875 -57.823382499999994 23.39527875 -35.18436624999998 Q23.39527875 -12.76722999999999 39.15456375 3.0038262500000172 Q54.91384875 18.774721250000017 77.480625 18.774721250000017 Z M77.4 10.284586250000014 Q80.3557125 10.284586250000014 82.76881875 8.475845000000014 Q85.18208625 6.666942500000012 85.93931625 3.834586250000015 H68.86068375 Q69.77916375 6.666942500000012 72.11180625 8.475845000000014 Q74.4442875 10.284586250000014 77.4 10.284586250000014 Z M57.41193375 -7.452913749999979 H97.4791725 V-15.270152499999988 H57.41193375 V-7.452913749999979 Z M58.484730000000006 -23.332652499999995 H96.29076 Q102.0993075 -27.686402499999986 105.55570125000001 -34.20283749999999 Q109.01193375 -40.71943374999999 109.01193375 -48.48071874999998 Q109.01193375 -61.591149999999985 99.76553625000001 -70.80336249999999 Q90.51897749999999 -80.01541375 77.4 -80.01541375 Q64.28973 -80.01541375 55.08445125 -70.78481874999999 Q45.8791725 -61.55422374999998 45.8791725 -48.457982499999986 Q45.8791725 -40.705243749999994 49.2899325 -34.195742499999994 Q52.7006925 -27.686402499999986 58.484730000000006 -23.332652499999995 Z M61.380135 -31.14972999999999 Q57.71089125 -34.87347624999998 55.70365125 -39.38041374999999 Q53.69641125 -43.88718999999999 53.69641125 -48.49458624999998 Q53.69641125 -58.314711249999974 60.58662375 -65.25652374999999 Q67.476675 -72.19817499999999 77.35081875 -72.19817499999999 Q87.22496249999999 -72.19817499999999 94.20982875 -65.25652374999999 Q101.19485625000002 -58.314711249999974 101.19485625000002 -48.49458624999998 Q101.19485625000002 -43.88718999999999 99.1419825 -39.38041374999999 Q97.08910875 -34.87347624999998 93.419865 -31.14972999999999 H61.380135 Z"/></g><g id="Medium-L" transform="matrix(1 0 0 1 1674.31 1556)"><path d="M77.44821375 30.233952500000015 Q63.87064125 30.233952500000015 51.964102499999996 25.093625000000014 Q40.05756375 19.953136250000014 31.13721375 11.032786250000015 Q22.21686375 2.112436250000016 17.076375000000002 -9.80087499999999 Q11.9360475 -21.714024999999985 11.9360475 -35.30530374999998 Q11.9360475 -48.896582499999994 17.076375000000002 -60.81505374999999 Q22.21686375 -72.73368624999999 31.131086250000003 -81.57550749999999 Q40.04547 -90.41716749999998 51.9615225 -95.57490999999999 Q63.877736250000005 -100.73265249999997 77.47207875000001 -100.73265249999997 Q91.06658250000001 -100.73265249999997 102.98973000000001 -95.5778125 Q114.91287750000001 -90.42313374999998 123.75163500000001 -81.58647249999999 Q132.59055375 -72.74981125 137.7465225 -60.80408874999999 Q142.9026525 -48.858204999999984 142.9026525 -35.27289249999998 Q142.9026525 -21.689998749999987 137.74491 -9.78410499999999 Q132.5871675 2.1217887500000145 123.7455075 11.007792500000015 Q114.90368625 19.893796250000015 102.96473625000002 25.063793750000016 Q91.02578625 30.233952500000015 77.44821375 30.233952500000015 Z M77.480625 19.247990000000016 Q100.14318375 19.247990000000016 116.01066750000001 3.3242300000000142 Q131.87798999999998 -12.599529999999987 131.87798999999998 -35.31062499999999 Q131.87798999999998 -57.97318374999999 116.04082125000001 -73.8406675 Q100.2036525 -89.70798999999997 77.38065 -89.70798999999997 Q54.77936625 -89.70798999999997 38.85076875 -73.87082124999999 Q22.92201 -58.03365249999999 22.92201 -35.21064999999999 Q22.92201 -12.609366249999987 38.84577 3.3192312500000156 Q54.76953 19.247990000000016 77.480625 19.247990000000016 Z M77.4 10.074316250000017 Q80.32491375000001 10.074316250000017 82.648365 8.239130000000017 Q84.97181625 6.4041050000000155 85.57118249999999 3.624316250000014 H69.2288175 Q69.98943375 6.4041050000000155 72.23226 8.239130000000017 Q74.47508625 10.074316250000017 77.4 10.074316250000017 Z M57.78006750000001 -7.6631837499999875 H97.05847125000001 V-14.691587499999983 H57.78006750000001 V-7.6631837499999875 Z M58.32686625 -22.754087499999983 H96.46265249999999 Q102.362145 -27.107837499999988 105.87110625000001 -33.72553749999999 Q109.38006750000001 -40.34323749999999 109.38006750000001 -48.278349999999975 Q109.38006750000001 -61.54648374999998 100.02595500000001 -70.88608375 Q90.67168124999999 -80.22568374999999 77.4 -80.22568374999999 Q64.13186625 -80.22568374999999 54.79516875 -70.87834375 Q45.45847125 -61.53084249999999 45.45847125 -48.26867499999999 Q45.45847125 -40.337271249999986 48.9480825 -33.72263499999998 Q52.437855000000006 -27.107837499999988 58.32686625 -22.754087499999983 Z M60.854298750000005 -29.782652499999983 Q56.922217499999995 -33.66410124999999 54.70454625 -38.51111499999999 Q52.486875000000005 -43.35796749999997 52.486875000000005 -48.28431624999999 Q52.486875000000005 -58.60544499999999 59.75554125 -65.90136249999999 Q67.0242075 -73.19727999999999 77.36049375 -73.19727999999999 Q87.69661875 -73.19727999999999 95.02414125000001 -65.90136249999999 Q102.35166375000001 -58.60544499999999 102.35166375000001 -48.28431624999999 Q102.35166375000001 -43.35796749999997 100.11480375 -38.51111499999999 Q97.87778250000001 -33.66410124999999 93.94570125000001 -29.782652499999983 H60.854298750000005 Z"/></g><g id="Regular-L" transform="matrix(1 0 0 1 1378.56 1556)"><path d="M77.4428925 29.270000000000017 Q64.102035 29.270000000000017 52.3685175 24.190625000000015 Q40.635 19.111250000000016 31.846875 10.323125000000015 Q23.05875 1.535000000000018 17.979375 -10.210611249999985 Q12.9 -21.956061249999976 12.9 -35.31062499999999 Q12.9 -48.665188749999984 17.979375 -60.41063874999999 Q23.05875 -72.15624999999999 31.846875 -80.86374999999998 Q40.635 -89.57124999999999 52.38061125 -94.65062499999999 Q64.12606124999999 -99.72999999999999 77.480625 -99.72999999999999 Q90.83518875 -99.72999999999999 102.58063875 -94.65062499999999 Q114.32625 -89.57124999999999 123.03375 -80.86374999999998 Q131.74125 -72.15624999999999 136.820625 -60.38499999999999 Q141.9 -48.61374999999998 141.9 -35.27289249999998 Q141.9 -21.932034999999985 136.820625 -10.198517499999987 Q131.74125 1.535000000000018 123.03375 10.293455000000016 Q114.32625 19.051910000000017 102.555 24.160955000000016 Q90.78375 29.270000000000017 77.4428925 29.270000000000017 Z M77.480625 19.595000000000017 Q100.2975 19.595000000000017 116.26125 3.550625000000018 Q132.225 -12.493749999999984 132.225 -35.31062499999999 Q132.225 -58.12749999999998 116.291565 -74.09124999999999 Q100.35796875 -90.05499999999998 77.4 -90.05499999999998 Q54.66375 -90.05499999999998 38.619375 -74.12156499999999 Q22.575 -58.18796874999998 22.575 -35.22999999999999 Q22.575 -12.493749999999984 38.619375 3.550625000000018 Q54.66375 19.595000000000017 77.480625 19.595000000000017 Z M77.4 9.920000000000016 Q80.30250000000001 9.920000000000016 82.56 8.065625000000018 Q84.8175 6.211250000000014 85.30125 3.470000000000013 H69.49875 Q70.14375 6.211250000000014 72.320625 8.065625000000018 Q74.4975 9.920000000000016 77.4 9.920000000000016 Z M58.050000000000004 -7.817499999999988 H96.75 V-14.267499999999984 H58.050000000000004 V-7.817499999999988 Z M58.21125 -22.329999999999984 H96.58875 Q102.555 -26.68374999999999 106.1025 -33.375624999999985 Q109.65 -40.06749999999998 109.65 -48.12999999999998 Q109.65 -61.51374999999999 100.216875 -70.94687499999999 Q90.78375 -80.37999999999998 77.4 -80.37999999999998 Q64.01625 -80.37999999999998 54.583125 -70.94687499999999 Q45.15 -61.51374999999999 45.15 -48.12999999999998 Q45.15 -40.06749999999998 48.6975 -33.375624999999985 Q52.245000000000005 -26.68374999999999 58.21125 -22.329999999999984 Z M60.46875 -28.779999999999987 Q56.343813749999995 -32.777226249999984 53.97182625 -37.87353249999998 Q51.6 -42.969999999999985 51.6 -48.12999999999998 Q51.6 -58.818617499999974 59.1461775 -66.37430875 Q66.692355 -73.92999999999999 77.3674275 -73.92999999999999 Q88.0425 -73.92999999999999 95.62125 -66.37430875 Q103.2 -58.818617499999974 103.2 -48.12999999999998 Q103.2 -42.969999999999985 100.82817375 -37.87353249999998 Q98.45618625 -32.777226249999984 94.33125 -28.779999999999987 H60.46875 Z"/></g><g id="Light-L" transform="matrix(1 0 0 1 1082.77 1556)"><path d="M77.45369625000001 26.044838750000014 Q64.7222025 26.044838750000014 53.605305 21.220238750000018 Q42.48840750000001 16.395638750000014 34.13356125 8.044501250000017 Q25.77855375 -0.3067974999999876 20.9518575 -11.430789999999988 Q16.12516125 -22.554782499999988 16.12516125 -35.29982124999998 Q16.12516125 -47.982939999999985 20.949761249999998 -59.14289124999999 Q25.774361250000002 -70.30284249999998 34.12549875 -78.57706374999998 Q42.4767975 -86.85144624999998 53.60079 -91.67814249999998 Q64.7247825 -96.50483875 77.46982125 -96.50483875 Q90.15294 -96.50483875 101.31289125 -91.68023874999997 Q112.4728425 -86.85563875 120.74706375 -78.58512624999999 Q129.02144625 -70.31445249999999 133.8481425 -59.13369999999999 Q138.67483875000002 -47.953108749999984 138.67483875000002 -35.28369624999999 Q138.67483875000002 -22.55220249999998 133.85023875 -11.435304999999985 Q129.02563875 -0.3184074999999922 120.75512625 8.006768750000013 Q112.4844525 16.331945000000015 101.3037 21.188311250000016 Q90.12310875 26.044838750000014 77.45369625000001 26.044838750000014 Z M77.480625 18.726668750000016 Q99.925335 18.726668750000016 115.6410825 2.9614175000000174 Q131.35666875 -12.803833749999988 131.35666875 -35.31062499999999 Q131.35666875 -57.75533499999999 115.67123625 -73.47108249999998 Q99.98580375 -89.18666875 77.4 -89.18666875 Q54.973833750000004 -89.18666875 39.2085825 -73.50123624999999 Q23.44333125 -57.815803749999986 23.44333125 -35.22999999999999 Q23.44333125 -12.803833749999988 39.2085825 2.9614175000000174 Q54.973833750000004 18.726668750000016 77.480625 18.726668750000016 Z M77.4 8.183337500000015 Q79.930335 8.183337500000015 81.93983250000001 6.70112750000002 Q83.94916875 5.218917500000018 84.61900125 2.849832500000012 H70.18099875 Q70.95 5.218917500000018 72.90983250000001 6.70112750000002 Q74.869665 8.183337500000015 77.4 8.183337500000015 Z M59.0423325 -8.375747499999981 H95.7576675 V-13.709252499999984 H59.0423325 V-8.375747499999981 Z M58.521333750000004 -22.578163749999987 H96.27866625 Q101.93322 -26.779532499999988 105.29544375 -33.23743374999998 Q108.6576675 -39.695334999999986 108.6576675 -47.38566999999999 Q108.6576675 -60.357587499999994 99.5147925 -69.50046249999998 Q90.37191750000001 -78.64333749999999 77.4 -78.64333749999999 Q64.4280825 -78.64333749999999 55.2852075 -69.50046249999998 Q46.1423325 -60.357587499999994 46.1423325 -47.38566999999999 Q46.1423325 -39.695334999999986 49.50455625 -33.23743374999998 Q52.86678 -26.779532499999988 58.521333750000004 -22.578163749999987 Z M60.46875 -27.91166874999999 Q56.303340000000006 -31.94985249999999 53.88958875 -37.05680124999999 Q51.47599875 -42.16374999999999 51.47599875 -47.40179499999999 Q51.47599875 -58.12266249999999 59.064584999999994 -65.7162475 Q66.6533325 -73.30983249999998 77.3674275 -73.30983249999998 Q88.08152249999999 -73.30983249999998 95.70268125 -65.7162475 Q103.32400125000001 -58.12266249999999 103.32400125000001 -47.40179499999999 Q103.32400125000001 -42.16374999999999 100.91041125000001 -37.05680124999999 Q98.49666 -31.94985249999999 94.33125 -27.91166874999999 H60.46875 Z"/></g><g id="Thin-L" transform="matrix(1 0 0 1 787.282 1556)"><path d="M77.4645 22.820000000000014 Q65.34237 22.820000000000014 54.8420925 18.250336250000014 Q44.341653750000006 13.680511250000016 36.41976375 5.766038750000014 Q28.498035 -2.148433749999988 23.9240175 -12.650807499999985 Q19.35 -23.15334249999998 19.35 -35.289017499999986 Q19.35 -47.300691249999986 23.91966375 -57.87514374999998 Q28.48948875 -68.44959625 36.40396125 -76.29086124999998 Q44.318433750000004 -84.131965 54.8208075 -88.70598249999998 Q65.3233425 -93.28 77.4590175 -93.28 Q89.47069125 -93.28 100.04514375 -88.71033624999998 Q110.61959625000001 -84.14051124999999 118.46086125 -76.30666375 Q126.30196500000001 -68.47281625 130.8759825 -57.882722499999986 Q135.45000000000002 -47.29246749999999 135.45000000000002 -35.294499999999985 Q135.45000000000002 -23.172369999999987 130.88033625 -12.672092499999984 Q126.31051125 -2.17165374999999 118.47666375000001 5.720405000000014 Q110.64281625000001 13.612625000000016 100.0527225 18.216312500000015 Q89.4624675 22.820000000000014 77.4645 22.820000000000014 Z M77.480625 17.858498750000013 Q99.55333125 17.858498750000013 115.020915 2.372210000000017 Q130.48849875 -13.113917499999985 130.48849875 -35.31062499999999 Q130.48849875 -57.38333124999998 115.05106875 -72.85091499999999 Q99.6138 -88.31849874999997 77.4 -88.31849874999997 Q55.2839175 -88.31849874999997 39.79779 -72.88106874999998 Q24.311501250000003 -57.44379999999998 24.311501250000003 -35.22999999999999 Q24.311501250000003 -13.113917499999985 39.79779 2.372210000000017 Q55.2839175 17.858498750000013 77.480625 17.858498750000013 Z M77.4 6.446997500000016 Q79.55833125 6.446997500000016 81.319665 5.336791250000012 Q83.08099875 4.226585000000014 83.93691375 2.2296650000000113 H70.86308625000001 Q71.75625000000001 4.226585000000014 73.49904000000001 5.336791250000012 Q75.24166875 6.446997500000016 77.4 6.446997500000016 Z M60.034665000000004 -8.933833749999984 H94.76533500000001 V-13.151166249999989 H60.034665000000004 V-8.933833749999984 Z M58.8314175 -22.826166249999986 H95.9685825 Q101.31160125 -26.87547624999999 104.48854875 -33.09940374999998 Q107.665335 -39.32333124999998 107.665335 -46.64150124999999 Q107.665335 -59.201747499999996 98.81271000000001 -68.05437249999999 Q89.960085 -76.90699749999999 77.4 -76.90699749999999 Q64.839915 -76.90699749999999 55.98729000000001 -68.05437249999999 Q47.134665 -59.201747499999996 47.134665 -46.64150124999999 Q47.134665 -39.32333124999998 50.311451250000005 -33.09940374999998 Q53.48839875 -26.87547624999999 58.8314175 -22.826166249999986 Z M60.46875 -27.043498749999983 Q56.2630275 -31.12280124999998 53.8075125 -36.24006999999999 Q51.3519975 -41.35749999999999 51.3519975 -46.673912499999986 Q51.3519975 -57.427029999999974 58.98315375 -65.05834749999998 Q66.61431 -72.68966499999999 77.3674275 -72.68966499999999 Q88.120545 -72.68966499999999 95.78427375 -65.05834749999998 Q103.4480025 -57.427029999999974 103.4480025 -46.673912499999986 Q103.4480025 -41.35749999999999 100.9924875 -36.24006999999999 Q98.5369725 -31.12280124999998 94.33125 -27.043498749999983 H60.46875 Z"/></g><g id="Ultralight-L" transform="matrix(1 0 0 1 491.205 1556)"><path d="M77.47095 20.885000000000016 Q65.714535 20.885000000000016 55.584165000000006 16.468201250000018 Q45.45363375 12.051241250000018 37.79167875 4.3989612500000135 Q30.129885 -3.253479999999989 25.7074425 -13.383043749999985 Q21.285 -23.512446249999996 21.285 -35.282567499999985 Q21.285 -46.89143874999998 25.70179875 -57.11452749999998 Q30.118758749999998 -67.33761624999998 37.77103875 -74.91878499999999 Q45.423480000000005 -82.500115 55.55304375 -86.92255749999998 Q65.68244625000001 -91.345 77.4525675 -91.345 Q89.06143875 -91.345 99.2845275 -86.92820125 Q109.50761625 -82.51124124999998 117.088785 -74.93958624999998 Q124.67011500000001 -67.36776999999998 129.0925575 -57.131942499999994 Q133.51500000000001 -46.89611499999998 133.51500000000001 -35.300949999999986 Q133.51500000000001 -23.544534999999982 129.09820125000002 -13.41416499999999 Q124.68124125 -3.2836337499999857 117.10958624999999 4.3484900000000195 Q109.53777 11.980775000000015 99.30194250000001 16.432887500000014 Q89.066115 20.885000000000016 77.47095 20.885000000000016 Z M77.480625 17.337500000000016 Q99.33 17.337500000000016 114.64875 2.0187500000000114 Q129.9675 -13.299999999999983 129.9675 -35.31062499999999 Q129.9675 -57.15999999999998 114.679065 -72.47874999999999 Q99.39046875 -87.79749999999999 77.4 -87.79749999999999 Q55.47 -87.79749999999999 40.151250000000005 -72.50906499999998 Q24.8325 -57.22046874999998 24.8325 -35.22999999999999 Q24.8325 -13.299999999999983 40.151250000000005 2.0187500000000114 Q55.47 17.337500000000016 77.480625 17.337500000000016 Z M77.4 5.405000000000015 Q79.33500000000001 5.405000000000015 80.9475 4.518125000000012 Q82.56 3.6312500000000156 83.5275 1.857500000000016 H71.27250000000001 Q72.24000000000001 3.6312500000000156 73.8525 4.518125000000012 Q75.465 5.405000000000015 77.4 5.405000000000015 Z M60.63 -9.268749999999983 H94.17 V-12.816249999999982 H60.63 V-9.268749999999983 Z M59.0175 -22.97499999999998 H95.7825 Q100.93846875000001 -26.932881249999994 104.004315 -33.01652125 Q107.07000000000001 -39.09999999999998 107.07000000000001 -46.19499999999999 Q107.07000000000001 -58.50804999999998 98.391525 -67.18652499999997 Q89.71305000000001 -75.86499999999998 77.4 -75.86499999999998 Q65.08695 -75.86499999999998 56.408475 -67.18652499999997 Q47.730000000000004 -58.50804999999998 47.730000000000004 -46.19499999999999 Q47.730000000000004 -39.09999999999998 50.795685 -33.01652125 Q53.86153125 -26.932881249999994 59.0175 -22.97499999999998 Z M60.46875 -26.52249999999998 Q56.23867875 -30.626473749999988 53.75817000000001 -35.75003124999999 Q51.2775 -40.87374999999999 51.2775 -46.236924999999985 Q51.2775 -57.009553749999995 58.934295 -64.66344624999999 Q66.59092875 -72.31749999999998 77.3674275 -72.31749999999998 Q88.14392625 -72.31749999999998 95.83313249999999 -64.66344624999999 Q103.52250000000001 -57.009553749999995 103.52250000000001 -46.236924999999985 Q103.52250000000001 -40.87374999999999 101.04183 -35.75003124999999 Q98.56132124999999 -30.626473749999988 94.33125 -26.52249999999998 H60.46875 Z"/></g><g id="Bold-M" transform="matrix(1 0 0 1 2281.8 1126)"><path d="M60.0 19.02000000000001 Q48.625 19.02000000000001 38.751625 14.75950000000001 Q28.878125 10.49912500000001 21.5745 3.1955000000000098 Q14.270875 -4.1081249999999905 10.0105 -13.981624999999987 Q5.75 -23.85499999999999 5.75 -35.22999999999999 Q5.75 -46.60499999999999 10.0105 -56.478374999999986 Q14.270875 -66.35187499999999 21.5745 -73.65549999999999 Q28.878125 -80.95912499999999 38.751625 -85.2195 Q48.625 -89.47999999999999 60.0 -89.47999999999999 Q71.375 -89.47999999999999 81.248375 -85.2195 Q91.121875 -80.95912499999999 98.4255 -73.65549999999999 Q105.729125 -66.35187499999999 109.9895 -56.478374999999986 Q114.25 -46.60499999999999 114.25 -35.22999999999999 Q114.25 -23.85499999999999 109.9895 -13.981624999999987 Q105.729125 -4.1081249999999905 98.4255 3.1955000000000098 Q91.121875 10.49912500000001 81.248375 14.75950000000001 Q71.375 19.02000000000001 60.0 19.02000000000001 Z M60.0 3.2700000000000102 Q76.25 3.2700000000000102 87.375 -7.85499999999999 Q98.5 -18.97999999999999 98.5 -35.22999999999999 Q98.5 -51.47999999999999 87.375 -62.60499999999999 Q76.25 -73.72999999999999 60.0 -73.72999999999999 Q43.75 -73.72999999999999 32.625 -62.60499999999999 Q21.5 -51.47999999999999 21.5 -35.22999999999999 Q21.5 -18.97999999999999 32.625 -7.85499999999999 Q43.75 3.2700000000000102 60.0 3.2700000000000102 Z M60.0 0.39500000000001023 Q63.25 0.39500000000001023 65.6875 -1.7299999999999898 Q68.125 -3.8549999999999898 68.625 -7.10499999999999 H51.375 Q51.875 -3.8549999999999898 54.3125 -1.7299999999999898 Q56.75 0.39500000000001023 60.0 0.39500000000001023 Z M43.75 -12.10499999999999 H76.25 V-22.10499999999999 H43.75 V-12.10499999999999 Z M45.625 -27.10499999999999 H74.375 Q78.75 -30.35499999999999 81.25 -35.22999999999999 Q83.75 -40.10499999999999 83.75 -45.85499999999999 Q83.75 -55.71124999999999 76.803125 -62.658124999999984 Q69.85625 -69.60499999999999 60.0 -69.60499999999999 Q50.25 -69.60499999999999 43.25 -62.658124999999984 Q36.25 -55.71124999999999 36.25 -45.85499999999999 Q36.25 -40.10499999999999 38.8125 -35.22999999999999 Q41.375 -30.35499999999999 45.625 -27.10499999999999 Z M49.5 -37.10499999999999 Q47.875 -38.97999999999999 47.0625 -41.17137499999998 Q46.25 -43.36274999999999 46.25 -45.85499999999999 Q46.25 -51.55137499999999 50.287875 -55.57824999999998 Q54.32575 -59.60499999999999 60.037875 -59.60499999999999 Q65.75 -59.60499999999999 69.75 -55.57824999999998 Q73.75 -51.55137499999999 73.75 -45.85499999999999 Q73.75 -43.36274999999999 72.9375 -41.17137499999998 Q72.125 -38.97999999999999 70.5 -37.10499999999999 H49.5 Z"/></g><g id="Semibold-M" transform="matrix(1 0 0 1 1985.97 1126)"><path d="M60.0 17.172250000000012 Q49.05975 17.172250000000012 39.51175 13.05225000000001 Q29.963625 8.93225000000001 22.90075 1.8692500000000116 Q15.83775 -5.19362499999999 11.71775 -14.741749999999989 Q7.59775 -24.28974999999999 7.59775 -35.22999999999999 Q7.59775 -46.170249999999996 11.71775 -55.71824999999998 Q15.83775 -65.266375 22.90075 -72.32924999999999 Q29.963625 -79.39224999999999 39.51175 -83.51225 Q49.05975 -87.63224999999998 60.0 -87.63224999999998 Q70.94025 -87.63224999999998 80.48825 -83.51225 Q90.036375 -79.39224999999999 97.09925 -72.32924999999999 Q104.16225 -65.266375 108.28225 -55.71824999999998 Q112.40225 -46.170249999999996 112.40225 -35.22999999999999 Q112.40225 -24.28974999999999 108.28225 -14.741749999999989 Q104.16225 -5.19362499999999 97.09925 1.8692500000000116 Q90.036375 8.93225000000001 80.48825 13.05225000000001 Q70.94025 17.172250000000012 60.0 17.172250000000012 Z M60.0 3.922125000000012 Q76.467375 3.922125000000012 87.80975 -7.420249999999989 Q99.152125 -18.762624999999993 99.152125 -35.22999999999999 Q99.152125 -51.697374999999994 87.80975 -63.039749999999984 Q76.467375 -74.38212499999999 60.0 -74.38212499999999 Q43.532625 -74.38212499999999 32.19025 -63.039749999999984 Q20.847875 -51.697374999999994 20.847875 -35.22999999999999 Q20.847875 -18.762624999999993 32.19025 -7.420249999999989 Q43.532625 3.922125000000012 60.0 3.922125000000012 Z M60.0 0.12325000000000941 Q63.195625 0.12325000000000941 65.5245 -2.0288749999999887 Q67.85325 -4.181124999999991 68.135875 -7.376749999999987 H51.864125 Q52.14675 -4.181124999999991 54.4755 -2.0288749999999887 Q56.804375 0.12325000000000941 60.0 0.12325000000000941 Z M44.2935 -12.376749999999987 H75.7065 V-21.289874999999988 H44.2935 V-12.376749999999987 Z M45.407625 -26.289874999999988 H74.592375 Q79.076125 -29.59412499999999 81.68475 -34.60499999999999 Q84.2935 -39.61587499999999 84.2935 -45.58324999999999 Q84.2935 -55.66499999999999 77.187625 -62.77087499999999 Q70.08175 -69.87674999999999 60.0 -69.87674999999999 Q49.97825 -69.87674999999999 42.842375 -62.77087499999999 Q35.7065 -55.66499999999999 35.7065 -45.58324999999999 Q35.7065 -39.61587499999999 38.350625 -34.60499999999999 Q40.994625 -29.59412499999999 45.407625 -26.289874999999988 Z M48.7935 -35.20299999999999 Q46.788125 -37.34962499999999 45.703875 -39.97412499999999 Q44.619625 -42.598624999999984 44.619625 -45.58324999999999 Q44.619625 -51.955124999999995 49.130125 -56.459374999999994 Q53.64075 -60.96362499999999 60.021375 -60.96362499999999 Q66.402125 -60.96362499999999 70.89125 -56.459374999999994 Q75.380375 -51.955124999999995 75.380375 -45.58324999999999 Q75.380375 -42.598624999999984 74.296125 -39.97412499999999 Q73.211875 -37.34962499999999 71.2065 -35.20299999999999 H48.7935 Z"/></g><g id="Medium-M" transform="matrix(1 0 0 1 1689.91 1126)"><path d="M60.0 15.78637500000001 Q49.385875 15.78637500000001 40.081875 11.77162500000001 Q30.777875 7.7568750000000115 23.8955 0.8745000000000118 Q17.013125 -6.007874999999991 12.998375 -15.311874999999986 Q8.983625 -24.61587499999999 8.983625 -35.22999999999999 Q8.983625 -45.84412499999999 12.998375 -55.14812499999999 Q17.013125 -64.452125 23.8955 -71.33449999999999 Q30.777875 -78.21687499999999 40.081875 -82.231625 Q49.385875 -86.24637499999999 60.0 -86.24637499999999 Q70.614125 -86.24637499999999 79.918125 -82.231625 Q89.222125 -78.21687499999999 96.1045 -71.33449999999999 Q102.986875 -64.452125 107.001625 -55.14812499999999 Q111.016375 -45.84412499999999 111.016375 -35.22999999999999 Q111.016375 -24.61587499999999 107.001625 -15.311874999999986 Q102.986875 -6.007874999999991 96.1045 0.8745000000000118 Q89.222125 7.7568750000000115 79.918125 11.77162500000001 Q70.614125 15.78637500000001 60.0 15.78637500000001 Z M60.0 4.41125000000001 Q76.630375 4.41125000000001 88.135875 -7.094124999999991 Q99.64125 -18.59962499999999 99.64125 -35.22999999999999 Q99.64125 -51.86037499999999 88.135875 -63.36587499999999 Q76.630375 -74.87124999999999 60.0 -74.87124999999999 Q43.369625 -74.87124999999999 31.864125 -63.36587499999999 Q20.35875 -51.86037499999999 20.35875 -35.22999999999999 Q20.35875 -18.59962499999999 31.864125 -7.094124999999991 Q43.369625 4.41125000000001 60.0 4.41125000000001 Z M60.0 -0.08049999999999002 Q63.154875 -0.08049999999999002 65.402125 -2.25312499999999 Q67.6495 -4.4256249999999895 67.769 -7.5804999999999865 H52.231 Q52.3505 -4.4256249999999895 54.597875 -2.25312499999999 Q56.845125 -0.08049999999999002 60.0 -0.08049999999999002 Z M44.701125 -12.580499999999986 H75.298875 V-20.67837499999999 H44.701125 V-12.580499999999986 Z M45.244625 -25.67837499999999 H74.755375 Q79.320625 -29.02349999999999 82.010875 -34.13624999999999 Q84.701125 -39.248999999999995 84.701125 -45.37949999999999 Q84.701125 -55.63037499999999 77.476 -62.85549999999999 Q70.251 -70.08049999999999 60.0 -70.08049999999999 Q49.7745 -70.08049999999999 42.53675 -62.85549999999999 Q35.298875 -55.63037499999999 35.298875 -45.37949999999999 Q35.298875 -39.248999999999995 38.004125 -34.13624999999999 Q40.70925 -29.02349999999999 45.244625 -25.67837499999999 Z M48.263625 -33.77624999999999 Q45.972875 -36.12674999999999 44.68475 -39.075999999999986 Q43.39675 -42.025375 43.39675 -45.37949999999999 Q43.39675 -52.257999999999996 48.26175 -57.120374999999996 Q53.126875 -61.982749999999996 60.009 -61.982749999999996 Q66.89125 -61.982749999999996 71.74725 -57.120374999999996 Q76.60325 -52.257999999999996 76.60325 -45.37949999999999 Q76.60325 -42.025375 75.31525 -39.075999999999986 Q74.027125 -36.12674999999999 71.736375 -33.77624999999999 H48.263625 Z"/></g><g id="Regular-M" transform="matrix(1 0 0 1 1394.06 1126)"><path d="M60.0 14.77000000000001 Q49.625 14.77000000000001 40.5 10.83250000000001 Q31.375 6.89500000000001 24.625 0.14500000000001023 Q17.875 -6.60499999999999 13.9375 -15.72999999999999 Q10.0 -24.85499999999999 10.0 -35.22999999999999 Q10.0 -45.60499999999999 13.9375 -54.72999999999999 Q17.875 -63.85499999999999 24.625 -70.60499999999999 Q31.375 -77.35499999999999 40.5 -81.29249999999999 Q49.625 -85.22999999999999 60.0 -85.22999999999999 Q70.375 -85.22999999999999 79.5 -81.29249999999999 Q88.625 -77.35499999999999 95.375 -70.60499999999999 Q102.125 -63.85499999999999 106.0625 -54.72999999999999 Q110.0 -45.60499999999999 110.0 -35.22999999999999 Q110.0 -24.85499999999999 106.0625 -15.72999999999999 Q102.125 -6.60499999999999 95.375 0.14500000000001023 Q88.625 6.89500000000001 79.5 10.83250000000001 Q70.375 14.77000000000001 60.0 14.77000000000001 Z M60.0 4.77000000000001 Q76.75 4.77000000000001 88.375 -6.85499999999999 Q100.0 -18.47999999999999 100.0 -35.22999999999999 Q100.0 -51.97999999999999 88.375 -63.60499999999999 Q76.75 -75.22999999999999 60.0 -75.22999999999999 Q43.25 -75.22999999999999 31.625 -63.60499999999999 Q20.0 -51.97999999999999 20.0 -35.22999999999999 Q20.0 -18.47999999999999 31.625 -6.85499999999999 Q43.25 4.77000000000001 60.0 4.77000000000001 Z M60.0 -0.22999999999998977 Q63.125 -0.22999999999998977 65.3125 -2.4174999999999898 Q67.5 -4.60499999999999 67.5 -7.72999999999999 H52.5 Q52.5 -4.60499999999999 54.6875 -2.4174999999999898 Q56.875 -0.22999999999998977 60.0 -0.22999999999998977 Z M45.0 -12.72999999999999 H75.0 V-20.22999999999999 H45.0 V-12.72999999999999 Z M45.125 -25.22999999999999 H74.875 Q79.5 -28.60499999999999 82.25 -33.79249999999999 Q85.0 -38.97999999999999 85.0 -45.22999999999999 Q85.0 -55.60499999999999 77.6875 -62.91749999999999 Q70.375 -70.22999999999999 60.0 -70.22999999999999 Q49.625 -70.22999999999999 42.3125 -62.91749999999999 Q35.0 -55.60499999999999 35.0 -45.22999999999999 Q35.0 -38.97999999999999 37.75 -33.79249999999999 Q40.5 -28.60499999999999 45.125 -25.22999999999999 Z M47.875 -32.72999999999999 Q45.375 -35.22999999999999 43.9375 -38.41749999999999 Q42.5 -41.60499999999999 42.5 -45.22999999999999 Q42.5 -52.47999999999999 47.625 -57.60499999999999 Q52.75 -62.72999999999999 60.0 -62.72999999999999 Q67.25 -62.72999999999999 72.375 -57.60499999999999 Q77.5 -52.47999999999999 77.5 -45.22999999999999 Q77.5 -41.60499999999999 76.0625 -38.41749999999999 Q74.625 -35.22999999999999 72.125 -32.72999999999999 H47.875 Z"/></g><g id="Light-M" transform="matrix(1 0 0 1 1098.18 1126)"><path d="M60.008375 12.26987500000001 Q50.153875 12.26987500000001 41.482875 8.529875000000011 Q32.81175 4.789875000000009 26.397625 -1.6213749999999898 Q19.983375 -8.032749999999993 16.24175 -16.69999999999999 Q12.500125 -25.367124999999987 12.500125 -35.22162499999999 Q12.500125 -45.07612499999999 16.240125 -53.74712499999998 Q19.980125 -62.418249999999986 26.391375 -68.83237499999998 Q32.80275 -75.246625 41.47 -78.98825 Q50.137125 -82.72987499999999 59.991625 -82.72987499999999 Q69.846125 -82.72987499999999 78.517125 -78.98987499999998 Q87.18825 -75.24987499999999 93.602375 -68.838625 Q100.016625 -62.42724999999999 103.75825 -53.75999999999999 Q107.499875 -45.09287499999999 107.499875 -35.23837499999999 Q107.499875 -25.38387499999999 103.759875 -16.71287499999999 Q100.019875 -8.041749999999993 93.608625 -1.6276249999999912 Q87.19725 4.7866250000000115 78.53 8.52825000000001 Q69.862875 12.26987500000001 60.008375 12.26987500000001 Z M60.0 4.77000000000001 Q76.75 4.77000000000001 88.375 -6.85499999999999 Q100.0 -18.47999999999999 100.0 -35.22999999999999 Q100.0 -51.97999999999999 88.375 -63.60499999999999 Q76.75 -75.22999999999999 60.0 -75.22999999999999 Q43.25 -75.22999999999999 31.625 -63.60499999999999 Q20.0 -51.97999999999999 20.0 -35.22999999999999 Q20.0 -18.47999999999999 31.625 -6.85499999999999 Q43.25 4.77000000000001 60.0 4.77000000000001 Z M60.0 -1.576249999999991 Q62.596125 -1.576249999999991 64.471125 -3.2829999999999906 Q66.346125 -4.9896249999999895 66.5865 -7.537624999999991 H53.4135 Q53.653875 -4.9896249999999895 55.528875 -3.2829999999999906 Q57.403875 -1.576249999999991 60.0 -1.576249999999991 Z M45.76925 -13.49924999999999 H74.23075 V-19.46074999999999 H45.76925 V-13.49924999999999 Z M45.365375 -25.422374999999988 H74.634625 Q79.018 -28.67924999999999 81.624375 -33.685374999999986 Q84.23075 -38.69149999999999 84.23075 -44.65299999999999 Q84.23075 -54.708749999999995 77.14325 -61.796249999999986 Q70.05575 -68.88374999999999 60.0 -68.88374999999999 Q49.94425 -68.88374999999999 42.85675 -61.796249999999986 Q35.76925 -54.708749999999995 35.76925 -44.65299999999999 Q35.76925 -38.69149999999999 38.375625 -33.685374999999986 Q40.982 -28.67924999999999 45.365375 -25.422374999999988 Z M47.5865 -31.383749999999992 Q44.862875 -34.05987499999999 43.29675 -37.47174999999999 Q41.73075 -40.88374999999999 41.73075 -44.665499999999994 Q41.73075 -52.229124999999996 47.081 -57.575749999999985 Q52.43125 -62.92237499999999 60.0 -62.92237499999999 Q67.56875 -62.92237499999999 72.919 -57.575749999999985 Q78.26925 -52.229124999999996 78.26925 -44.665499999999994 Q78.26925 -40.88374999999999 76.70325 -37.47174999999999 Q75.137125 -34.05987499999999 72.4135 -31.383749999999992 H47.5865 Z"/></g><g id="Thin-M" transform="matrix(1 0 0 1 802.565 1126)"><path d="M60.01675 9.77000000000001 Q50.682625 9.77000000000001 42.4655 6.22762500000001 Q34.248375 2.68512500000001 28.169875 -3.3876249999999892 Q22.0915 -9.460374999999992 18.54575 -17.669749999999986 Q15.0 -25.879249999999992 15.0 -35.21324999999999 Q15.0 -44.54737499999999 18.542375 -52.764499999999984 Q22.084875 -60.981624999999994 28.157625 -67.06012499999999 Q34.230375 -73.1385 42.43975 -76.68424999999999 Q50.64925 -80.22999999999999 59.98325 -80.22999999999999 Q69.317375 -80.22999999999999 77.5345 -76.68762499999998 Q85.751625 -73.145125 91.830125 -67.072375 Q97.9085 -60.999624999999995 101.45425 -52.790249999999986 Q105.0 -44.580749999999995 105.0 -35.24674999999999 Q105.0 -25.91262499999999 101.457625 -17.69549999999999 Q97.915125 -9.478374999999993 91.842375 -3.399874999999991 Q85.769625 2.6785000000000103 77.56025 6.2242500000000085 Q69.35075 9.77000000000001 60.01675 9.77000000000001 Z M60.0 4.77000000000001 Q76.75 4.77000000000001 88.375 -6.85499999999999 Q100.0 -18.47999999999999 100.0 -35.22999999999999 Q100.0 -51.97999999999999 88.375 -63.60499999999999 Q76.75 -75.22999999999999 60.0 -75.22999999999999 Q43.25 -75.22999999999999 31.625 -63.60499999999999 Q20.0 -51.97999999999999 20.0 -35.22999999999999 Q20.0 -18.47999999999999 31.625 -6.85499999999999 Q43.25 4.77000000000001 60.0 4.77000000000001 Z M60.0 -2.922249999999991 Q62.067375 -2.922249999999991 63.629875 -4.14824999999999 Q65.192375 -5.374249999999989 65.673125 -7.34537499999999 H54.326875 Q54.807625 -5.374249999999989 56.370125 -4.14824999999999 Q57.932625 -2.922249999999991 60.0 -2.922249999999991 Z M46.5385 -14.268499999999989 H73.4615 V-18.69149999999999 H46.5385 V-14.268499999999989 Z M45.60575 -25.61462499999999 H74.39425 Q78.536125 -28.753624999999992 80.998875 -33.57837499999999 Q83.4615 -38.40312499999999 83.4615 -44.07612499999999 Q83.4615 -53.812749999999994 76.599 -60.67524999999999 Q69.7365 -67.53774999999999 60.0 -67.53774999999999 Q50.2635 -67.53774999999999 43.401 -60.67524999999999 Q36.5385 -53.812749999999994 36.5385 -44.07612499999999 Q36.5385 -38.40312499999999 39.001125 -33.57837499999999 Q41.463875 -28.753624999999992 45.60575 -25.61462499999999 Z M47.298125 -30.03774999999999 Q44.350875 -32.88987499999999 42.65625 -36.52624999999999 Q40.9615 -40.16274999999999 40.9615 -44.10124999999999 Q40.9615 -51.97812499999999 46.537125 -57.54637499999998 Q52.112625 -63.11462499999999 60.0 -63.11462499999999 Q67.887375 -63.11462499999999 73.462875 -57.54637499999998 Q79.0385 -51.97812499999999 79.0385 -44.10124999999999 Q79.0385 -40.16274999999999 77.34375 -36.52624999999999 Q75.649125 -32.88987499999999 72.701875 -30.03774999999999 H47.298125 Z"/></g><g id="Ultralight-M" transform="matrix(1 0 0 1 506.415 1126)"><path d="M60.02175 8.27000000000001 Q51.0 8.27000000000001 43.05525 4.846125000000011 Q35.110375 1.4221250000000119 29.233375 -4.44737499999999 Q23.3565 -10.316999999999993 19.92825 -18.251749999999987 Q16.5 -26.186499999999988 16.5 -35.20824999999999 Q16.5 -44.22999999999999 19.923875 -52.17474999999999 Q23.347875 -60.119624999999985 29.217375 -65.99649999999998 Q35.087 -71.87349999999999 43.02175 -75.30174999999998 Q50.9565 -78.72999999999999 59.97825 -78.72999999999999 Q69.0 -78.72999999999999 76.94475 -75.306125 Q84.889625 -71.88212499999999 90.7665 -66.01262499999999 Q96.6435 -60.14299999999999 100.07175 -52.20824999999999 Q103.5 -44.273499999999984 103.5 -35.25174999999999 Q103.5 -26.22999999999999 100.076125 -18.28524999999999 Q96.652125 -10.340374999999987 90.782625 -4.4633749999999885 Q84.913 1.4135000000000097 76.97825 4.841750000000012 Q69.0435 8.27000000000001 60.02175 8.27000000000001 Z M60.0 4.77000000000001 Q76.75 4.77000000000001 88.375 -6.85499999999999 Q100.0 -18.47999999999999 100.0 -35.22999999999999 Q100.0 -51.97999999999999 88.375 -63.60499999999999 Q76.75 -75.22999999999999 60.0 -75.22999999999999 Q43.25 -75.22999999999999 31.625 -63.60499999999999 Q20.0 -51.97999999999999 20.0 -35.22999999999999 Q20.0 -18.47999999999999 31.625 -6.85499999999999 Q43.25 4.77000000000001 60.0 4.77000000000001 Z M60.0 -3.7299999999999898 Q61.75 -3.7299999999999898 63.125 -4.66749999999999 Q64.5 -5.60499999999999 65.125 -7.22999999999999 H54.875 Q55.5 -5.60499999999999 56.875 -4.66749999999999 Q58.25 -3.7299999999999898 60.0 -3.7299999999999898 Z M47.0 -14.72999999999999 H73.0 V-18.22999999999999 H47.0 V-14.72999999999999 Z M45.75 -25.72999999999999 H74.25 Q78.246875 -28.79812499999999 80.6235 -33.51412499999999 Q83.0 -38.22999999999999 83.0 -43.72999999999999 Q83.0 -53.27499999999999 76.2725 -60.00249999999998 Q69.545 -66.72999999999999 60.0 -66.72999999999999 Q50.455 -66.72999999999999 43.7275 -60.00249999999998 Q37.0 -53.27499999999999 37.0 -43.72999999999999 Q37.0 -38.22999999999999 39.3765 -33.51412499999999 Q41.753125 -28.79812499999999 45.75 -25.72999999999999 Z M47.125 -29.22999999999999 Q44.043625 -32.18774999999999 42.27175 -35.95887499999999 Q40.5 -39.72999999999999 40.5 -43.76249999999999 Q40.5 -51.82762499999998 46.21075 -57.528874999999985 Q51.921375 -63.22999999999999 60.0 -63.22999999999999 Q68.078625 -63.22999999999999 73.78925 -57.528874999999985 Q79.5 -51.82762499999998 79.5 -43.76249999999999 Q79.5 -39.72999999999999 77.72825 -35.95887499999999 Q75.956375 -32.18774999999999 72.875 -29.22999999999999 H47.125 Z"/></g><g id="Bold-S" transform="matrix(1 0 0 1 2294.23 696)"><path d="M47.3672205 5.995250000000014 Q38.759625 5.995250000000014 31.265407125 2.781653000000013 Q23.771090625000003 -0.43184537499998754 18.156468 -6.046467999999987 Q12.541845375000001 -11.66109062499999 9.328347 -19.15126487499999 Q6.11475 -26.641439124999984 6.11475 -35.27517024999999 Q6.11475 -43.90899999999999 9.328347 -51.35390537499998 Q12.541845375000001 -58.798909374999994 18.156468 -64.41353199999999 Q23.771090625000003 -70.02815462499998 31.261264875000002 -73.241653 Q38.751439125 -76.45524999999999 47.38517025 -76.45524999999999 Q56.019000000000005 -76.45524999999999 63.463905374999996 -73.241653 Q70.90890937500001 -70.02815462499998 76.523532 -64.41353199999999 Q82.138154625 -58.798909374999994 85.35165300000001 -51.331813374999996 Q88.56525 -43.86471737499999 88.56525 -35.25722049999999 Q88.56525 -26.649624999999986 85.35165300000001 -19.155407124999986 Q82.138154625 -11.66109062499999 76.523532 -6.046467999999987 Q70.90890937500001 -0.43184537499998754 63.44181337500001 2.781653000000013 Q55.974717375000004 5.995250000000014 47.3672205 5.995250000000014 Z M47.34 -5.642499999999988 Q59.76675 -5.642499999999988 68.347125 -14.222874999999988 Q76.92750000000001 -22.80324999999999 76.92750000000001 -35.22999999999999 Q76.92750000000001 -47.65674999999999 68.347125 -56.23712499999999 Q59.76675 -64.8175 47.34 -64.8175 Q34.913250000000005 -64.8175 26.332875 -56.23712499999999 Q17.7525 -47.65674999999999 17.7525 -35.22999999999999 Q17.7525 -22.80324999999999 26.332875 -14.222874999999988 Q34.913250000000005 -5.642499999999988 47.34 -5.642499999999988 Z M47.34 -8.699874999999988 Q49.411125000000006 -8.699874999999988 50.989125 -10.031312499999988 Q52.567125000000004 -11.362749999999988 52.961625000000005 -13.433874999999986 H41.718375 Q42.112875 -11.362749999999988 43.690875000000005 -10.031312499999988 Q45.268875 -8.699874999999988 47.34 -8.699874999999988 Z M34.518750000000004 -16.98437499999999 H60.16125 V-23.69087499999999 H34.518750000000004 V-16.98437499999999 Z M35.30775 -27.24137499999999 H59.37225 Q62.133750000000006 -29.706999999999987 63.71175 -33.09180999999999 Q65.28975 -36.47652137499999 65.28975 -40.45712499999999 Q65.28975 -47.90627124999999 60.032938875 -53.156573124999994 Q54.77612775000001 -58.406874999999985 47.31771075 -58.406874999999985 Q39.943125 -58.406874999999985 34.6666875 -53.156573124999994 Q29.39025 -47.90627124999999 29.39025 -40.45712499999999 Q29.39025 -36.47652137499999 31.0175625 -33.09180999999999 Q32.644875 -29.706999999999987 35.30775 -27.24137499999999 Z M38.069250000000004 -33.94787499999999 Q36.984375 -35.42724999999999 36.5405625 -37.057619874999986 Q36.09675 -38.68798974999999 36.09675 -40.45712499999999 Q36.09675 -45.11508512499999 39.405125625000004 -48.40768074999999 Q42.713599875 -51.70037499999999 47.393750625 -51.70037499999999 Q52.074000000000005 -51.70037499999999 55.328625 -48.40768074999999 Q58.58325 -45.11508512499999 58.58325 -40.45712499999999 Q58.58325 -38.68798974999999 58.1394375 -37.057619874999986 Q57.695625 -35.42724999999999 56.61075 -33.94787499999999 H38.069250000000004 Z"/></g><g id="Semibold-S" transform="matrix(1 0 0 1 1998.1 696)"><path d="M47.3672205 4.5373752500000135 Q39.10264275 4.5373752500000135 31.86514575 1.434632750000013 Q24.627550125000003 -1.6681097499999868 19.20287925 -7.092879249999985 Q13.77810975 -12.517550124999989 10.67536725 -19.75100349999999 Q7.57262475 -26.984456874999985 7.57262475 -35.27517024999999 Q7.57262475 -43.56598224999999 10.67536725 -50.75416674999998 Q13.77810975 -57.942449874999994 19.20287925 -63.367120749999984 Q24.627550125000003 -68.79189025 31.861003500000002 -71.89463275 Q39.094456875 -74.99737524999999 47.38517025 -74.99737524999999 Q55.675982250000004 -74.99737524999999 62.864166749999995 -71.89463275 Q70.05244987500001 -68.79189025 75.47712075 -63.367120749999984 Q80.90189025000001 -57.942449874999994 84.00463275000001 -50.73207474999999 Q87.10737525 -43.52169962499999 87.10737525 -35.25722049999999 Q87.10737525 -26.992642749999987 84.00463275000001 -19.755145749999986 Q80.90189025000001 -12.517550124999989 75.47712075 -7.092879249999985 Q70.05244987500001 -1.6681097499999868 62.84207475 1.434632750000013 Q55.631699625 4.5373752500000135 47.3672205 4.5373752500000135 Z M47.34 -5.127973374999986 Q59.938258875 -5.127973374999986 68.69014274999999 -13.879857249999986 Q77.442026625 -22.63174112499999 77.442026625 -35.22999999999999 Q77.442026625 -47.82825887499999 68.69014274999999 -56.58014274999998 Q59.938258875 -65.33202662499998 47.34 -65.33202662499998 Q34.741741125000004 -65.33202662499998 25.98985725 -56.58014274999998 Q17.237973375 -47.82825887499999 17.237973375 -35.22999999999999 Q17.237973375 -22.63174112499999 25.98985725 -13.879857249999986 Q34.741741125000004 -5.127973374999986 47.34 -5.127973374999986 Z M47.34 -8.914285749999987 Q49.368223125 -8.914285749999987 50.860518000000006 -10.267124874999986 Q52.352714250000005 -11.620062624999989 52.575705375 -13.648285749999985 H42.104294625 Q42.32728575 -11.620062624999989 43.819482 -10.267124874999986 Q45.311776875 -8.914285749999987 47.34 -8.914285749999987 Z M34.9475715 -17.198785749999985 H59.732428500000005 V-23.047741374999987 H34.9475715 V-17.198785749999985 Z M35.136241125000005 -26.598241374999986 H59.54375887500001 Q62.391062625 -29.106669624999988 64.05476775 -32.59868499999999 Q65.7185715 -36.09060174999999 65.7185715 -40.24271424999999 Q65.7185715 -47.869779999999984 60.336309375 -53.245532874999995 Q54.95404725 -58.621285749999984 47.31771075 -58.621285749999984 Q39.72871425 -58.621285749999984 34.345071374999996 -53.245532874999995 Q28.9614285 -47.869779999999984 28.9614285 -40.24271424999999 Q28.9614285 -36.09060174999999 30.653143125000003 -32.59868499999999 Q32.344759125 -29.106669624999988 35.136241125000005 -26.598241374999986 Z M37.5118215 -32.44719699999999 Q36.126830625000004 -34.140884124999985 35.468607375 -36.11298962499998 Q34.810384125 -38.08509512499999 34.810384125 -40.24271424999999 Q34.810384125 -45.43354524999999 38.4917595 -49.102986999999985 Q42.17303625 -52.772330124999996 47.38083075 -52.772330124999996 Q52.588526625 -52.772330124999996 56.229071250000004 -49.102986999999985 Q59.869615875 -45.43354524999999 59.869615875 -40.24271424999999 Q59.869615875 -38.08509512499999 59.211392625 -36.11298962499998 Q58.55316937500001 -34.140884124999985 57.1681785 -32.44719699999999 H37.5118215 Z"/></g><g id="Medium-S" transform="matrix(1 0 0 1 1701.85 696)"><path d="M47.3672205 3.443919875000013 Q39.359955375 3.443919875000013 32.314974375 0.4242196250000134 Q25.269993375000002 -2.595480624999986 19.987737 -7.877736999999986 Q14.705480625 -13.159993374999988 11.685780375 -20.20083212499999 Q8.666080125 -27.24176949999999 8.666080125 -35.27517024999999 Q8.666080125 -43.30866962499999 11.685780375 -50.304338124999994 Q14.705480625 -57.300006624999995 19.987737 -62.582263 Q25.269993375000002 -67.86451937499999 32.310832125000005 -70.884219625 Q39.3517695 -73.90391987499999 47.38517025 -73.90391987499999 Q55.41866962500001 -73.90391987499999 62.41433812500001 -70.884219625 Q69.41000662500001 -67.86451937499999 74.69226300000001 -62.582263 Q79.974519375 -57.300006624999995 82.99421962500001 -50.28214749999999 Q86.013919875 -43.26438699999999 86.013919875 -35.25722049999999 Q86.013919875 -27.249955374999985 82.99421962500001 -20.204974374999985 Q79.974519375 -13.159993374999988 74.69226300000001 -7.877736999999986 Q69.41000662500001 -2.595480624999986 62.3921475 0.4242196250000134 Q55.374387000000006 3.443919875000013 47.3672205 3.443919875000013 Z M47.34 -4.742053749999986 Q60.066865875000005 -4.742053749999986 68.947455375 -13.622544624999989 Q77.82794625 -22.50313412499999 77.82794625 -35.22999999999999 Q77.82794625 -47.95686587499999 68.947455375 -56.83745537499999 Q60.066865875000005 -65.71794624999998 47.34 -65.71794624999998 Q34.613134125 -65.71794624999998 25.732544625000003 -56.83745537499999 Q16.85205375 -47.95686587499999 16.85205375 -35.22999999999999 Q16.85205375 -22.50313412499999 25.732544625000003 -13.622544624999989 Q34.613134125 -4.742053749999986 47.34 -4.742053749999986 Z M47.34 -9.075044499999986 Q49.336071375 -9.075044499999986 50.763964125 -10.444058124999987 Q52.191955500000006 -11.812973124999989 52.286241000000004 -13.809044499999985 H42.393759 Q42.4880445 -11.812973124999989 43.916035875000006 -10.444058124999987 Q45.343928625000004 -9.075044499999986 47.34 -9.075044499999986 Z M35.269187625 -17.359544499999984 H59.410812375 V-22.56526787499999 H35.269187625 V-17.359544499999984 Z M35.007634125 -26.11576787499999 H59.672365875000004 Q62.58397312500001 -28.656446499999987 64.31208037500001 -32.22884124999999 Q66.040187625 -35.80113737499999 66.040187625 -40.08195549999999 Q66.040187625 -47.84246087499999 60.56383725 -53.31230199999999 Q55.087486874999996 -58.782044499999984 47.31771075 -58.782044499999984 Q39.567955500000004 -58.782044499999984 34.10393325 -53.31230199999999 Q28.639812375 -47.84246087499999 28.639812375 -40.08195549999999 Q28.639812375 -35.80113737499999 30.379754625000004 -32.22884124999999 Q32.11959825 -28.656446499999987 35.007634125 -26.11576787499999 Z M37.093750125 -31.321491249999987 Q35.483598375 -33.17603574999998 34.66451775 -35.40436899999999 Q33.845535749999996 -37.63280087499999 33.845535749999996 -40.08195549999999 Q33.845535749999996 -45.672513624999986 37.806611625 -49.62441737499999 Q41.767588875 -53.57641975 47.371066875000004 -53.57641975 Q52.97444625 -53.57641975 56.90445525 -49.62441737499999 Q60.83446425 -45.672513624999986 60.83446425 -40.08195549999999 Q60.83446425 -37.63280087499999 60.015482250000005 -35.40436899999999 Q59.196401625 -33.17603574999998 57.586249875 -31.321491249999987 H37.093750125 Z"/></g><g id="Regular-S" transform="matrix(1 0 0 1 1405.73 696)"><path d="M47.3672205 2.6420000000000137 Q39.548625 2.6420000000000137 32.644875 -0.31674999999998654 Q25.741125 -3.2754999999999868 20.563312500000002 -8.453312499999988 Q15.3855 -13.631124999999987 12.42675 -20.53073274999999 Q9.468 -27.430439124999985 9.468 -35.27517024999999 Q9.468 -43.11999999999999 12.42675 -49.974437499999986 Q15.3855 -56.828875 20.563312500000002 -62.006687499999984 Q25.741125 -67.18449999999999 32.640732750000005 -70.14325 Q39.540439125 -73.10199999999999 47.38517025 -73.10199999999999 Q55.230000000000004 -73.10199999999999 62.0844375 -70.14325 Q68.93887500000001 -67.18449999999999 74.1166875 -62.006687499999984 Q79.2945 -56.828875 82.25325000000001 -49.952345499999986 Q85.212 -43.075717374999996 85.212 -35.25722049999999 Q85.212 -27.438624999999988 82.25325000000001 -20.534874999999985 Q79.2945 -13.631124999999987 74.1166875 -8.453312499999988 Q68.93887500000001 -3.2754999999999868 62.0623455 -0.31674999999998654 Q55.18571737500001 2.6420000000000137 47.3672205 2.6420000000000137 Z M47.34 -4.458999999999985 Q60.16125 -4.458999999999985 69.136125 -13.433874999999986 Q78.111 -22.40874999999999 78.111 -35.22999999999999 Q78.111 -48.05124999999999 69.136125 -57.02612499999999 Q60.16125 -66.00099999999999 47.34 -66.00099999999999 Q34.518750000000004 -66.00099999999999 25.543875 -57.02612499999999 Q16.569 -48.05124999999999 16.569 -35.22999999999999 Q16.569 -22.40874999999999 25.543875 -13.433874999999986 Q34.518750000000004 -4.458999999999985 47.34 -4.458999999999985 Z M47.34 -9.192999999999987 Q49.3125 -9.192999999999987 50.69325 -10.573749999999986 Q52.074000000000005 -11.954499999999989 52.074000000000005 -13.926999999999989 H42.606 Q42.606 -11.954499999999989 43.98675 -10.573749999999986 Q45.3675 -9.192999999999987 47.34 -9.192999999999987 Z M35.505 -17.47749999999999 H59.175000000000004 V-22.211499999999987 H35.505 V-17.47749999999999 Z M34.913250000000005 -25.761999999999986 H59.76675 Q62.725500000000004 -28.326249999999987 64.50075 -31.957622499999985 Q66.276 -35.58889637499999 66.276 -39.96399999999999 Q66.276 -47.822439999999986 60.73071075 -53.36121999999999 Q55.185421500000004 -58.89999999999999 47.31771075 -58.89999999999999 Q39.45 -58.89999999999999 33.927 -53.36121999999999 Q28.404 -47.822439999999986 28.404 -39.96399999999999 Q28.404 -35.58889637499999 30.17925 -31.957622499999985 Q31.954500000000003 -28.326249999999987 34.913250000000005 -25.761999999999986 Z M36.787125 -30.495999999999988 Q35.011875 -32.46849999999999 34.074937500000004 -34.88481249999999 Q33.138 -37.30112499999999 33.138 -39.96399999999999 Q33.138 -45.84767162499999 37.304117250000004 -50.00688512499998 Q41.470333125 -54.16599999999998 47.363867250000006 -54.16599999999998 Q53.2575 -54.16599999999998 57.399750000000004 -50.00688512499998 Q61.542 -45.84767162499999 61.542 -39.96399999999999 Q61.542 -37.30112499999999 60.6050625 -34.88481249999999 Q59.668125 -32.46849999999999 57.892875000000004 -30.495999999999988 H36.787125 Z"/></g><g id="Light-S" transform="matrix(1 0 0 1 1109.75 696)"><path d="M47.373828375 0.6694013750000121 Q39.965907375 0.6694013750000121 33.420363375 -2.1335211249999855 Q26.874720750000005 -4.936443624999988 21.961913625 -9.846982374999989 Q17.049007875 -14.75761974999999 14.24480325 -21.29606274999999 Q11.440598625000002 -27.83450574999999 11.440598625000002 -35.26856237499999 Q11.440598625000002 -42.70271762499999 14.243521125 -49.198949124999984 Q17.046443625000002 -55.695279249999984 21.956982375000003 -60.608086374999985 Q26.867619750000003 -65.52099212499999 33.406062750000004 -68.32519674999999 Q39.944505750000005 -71.12940137499999 47.378562375 -71.12940137499999 Q54.812717625000005 -71.12940137499999 61.308949125 -68.32647887499998 Q67.80527925 -65.52355637499998 72.718086375 -60.613017625 Q77.630992125 -55.70238024999999 80.43519675 -49.18701549999999 Q83.239401375 -42.67165074999998 83.239401375 -35.26382837499999 Q83.239401375 -27.855907374999987 80.43647887499999 -21.310363374999987 Q77.633556375 -14.764720749999992 72.72301762500001 -9.851913624999987 Q67.81238025 -4.939007874999987 61.2970155 -2.1348032499999867 Q54.78165075 0.6694013750000121 47.373828375 0.6694013750000121 Z M47.34 -4.458999999999985 Q60.16125 -4.458999999999985 69.136125 -13.433874999999986 Q78.111 -22.40874999999999 78.111 -35.22999999999999 Q78.111 -48.05124999999999 69.136125 -57.02612499999999 Q60.16125 -66.00099999999999 47.34 -66.00099999999999 Q34.518750000000004 -66.00099999999999 25.543875 -57.02612499999999 Q16.569 -48.05124999999999 16.569 -35.22999999999999 Q16.569 -22.40874999999999 25.543875 -13.433874999999986 Q34.518750000000004 -4.458999999999985 47.34 -4.458999999999985 Z M47.34 -10.255191249999989 Q48.895217625 -10.255191249999989 50.029405125000004 -11.256629499999988 Q51.163592625 -12.257969124999988 51.35324850000001 -13.77521612499999 H43.3267515 Q43.516407375 -12.257969124999988 44.650594875 -11.256629499999988 Q45.784782375 -10.255191249999989 47.34 -10.255191249999989 Z M36.11193825 -18.084438249999987 H58.568061750000005 V-21.604561749999988 H36.11193825 V-18.084438249999987 Z M35.102905875000005 -25.913783874999986 H59.577094125 Q62.345202 -28.384833249999986 64.007131875 -31.87310087499999 Q65.66906175 -35.36126987499999 65.66906175 -39.50874699999999 Q65.66906175 -47.11529874999999 60.3012975 -52.476553749999994 Q54.93353325 -57.83780874999999 47.31771075 -57.83780874999999 Q39.701888249999996 -57.83780874999999 34.35641325 -52.476553749999994 Q29.010938250000002 -47.11529874999999 29.010938250000002 -39.50874699999999 Q29.010938250000002 -35.36126987499999 30.672868125 -31.87310087499999 Q32.334798 -28.384833249999986 35.102905875000005 -25.913783874999986 Z M36.559498500000004 -29.43380874999999 Q34.607808375000005 -31.54527137499999 33.56938575 -34.13861574999999 Q32.53106175 -36.73205874999999 32.53106175 -39.51860949999999 Q32.53106175 -45.64973124999999 36.87490125 -49.98370824999999 Q41.218839375 -54.31778387499999 47.363867250000006 -54.31778387499999 Q53.508993749999995 -54.31778387499999 57.828966 -49.98370824999999 Q62.14893825 -45.64973124999999 62.14893825 -39.51860949999999 Q62.14893825 -36.73205874999999 61.11061425 -34.13861574999999 Q60.072191625 -31.54527137499999 58.1205015 -29.43380874999999 H36.559498500000004 Z"/></g><g id="Thin-S" transform="matrix(1 0 0 1 814.015 696)"><path d="M47.380337625 -1.3029999999999866 Q40.383091125 -1.3029999999999866 34.1956545 -3.949996374999987 Q28.008217875000003 -6.597091374999987 23.360218875 -11.240553624999986 Q18.712318500000002 -15.884015874999989 16.062659250000003 -22.061294124999982 Q13.413 -28.23857237499999 13.413 -35.26205312499999 Q13.413 -42.285533874999985 16.059996375 -48.42365799999998 Q18.707091375 -54.56178212499999 23.350553625 -59.20978112499999 Q27.994015875000002 -63.8576815 34.171294124999996 -66.50734075 Q40.348572375 -69.157 47.372053125 -69.157 Q54.395533875 -69.157 60.533657999999996 -66.51000362499998 Q66.67178212500001 -63.86290862499999 71.319781125 -59.21944637499999 Q75.96768150000001 -54.57598412499999 78.61734075000001 -48.42178412499998 Q81.26700000000001 -42.267584124999985 81.26700000000001 -35.27033762499999 Q81.26700000000001 -28.273091124999986 78.620003625 -22.08565449999999 Q75.972908625 -15.89821787499999 71.329446375 -11.250218874999987 Q66.685984125 -6.602318499999988 60.531784124999994 -3.9526592499999893 Q54.377584125 -1.3029999999999866 47.380337625 -1.3029999999999866 Z M47.34 -4.458999999999985 Q60.16125 -4.458999999999985 69.136125 -13.433874999999986 Q78.111 -22.40874999999999 78.111 -35.22999999999999 Q78.111 -48.05124999999999 69.136125 -57.02612499999999 Q60.16125 -66.00099999999999 47.34 -66.00099999999999 Q34.518750000000004 -66.00099999999999 25.543875 -57.02612499999999 Q16.569 -48.05124999999999 16.569 -35.22999999999999 Q16.569 -22.40874999999999 25.543875 -13.433874999999986 Q34.518750000000004 -4.458999999999985 47.34 -4.458999999999985 Z M47.34 -11.317185249999987 Q48.478033875 -11.317185249999987 49.365658875 -11.939311749999987 Q50.253283875 -12.561438249999988 50.632595625 -13.623530874999986 H44.047404375000006 Q44.426716125000006 -12.561438249999988 45.314341125000006 -11.939311749999987 Q46.201966125000006 -11.317185249999987 47.34 -11.317185249999987 Z M36.7188765 -18.691376499999986 H57.96112350000001 V-20.99762349999999 H36.7188765 V-18.691376499999986 Z M35.292561750000004 -26.065469124999986 H59.38743825 Q61.965002625000004 -28.44351512499999 63.513612375 -31.78857924999999 Q65.0621235 -35.13374199999999 65.0621235 -39.053592624999986 Q65.0621235 -46.40835474999999 59.87188425000001 -51.59208474999999 Q54.68164500000001 -56.775814749999995 47.31771075 -56.775814749999995 Q39.953776500000004 -56.775814749999995 34.785826500000006 -51.59208474999999 Q29.6178765 -46.40835474999999 29.6178765 -39.053592624999986 Q29.6178765 -35.13374199999999 31.166387625000002 -31.78857924999999 Q32.714997375 -28.44351512499999 35.292561750000004 -26.065469124999986 Z M36.331970625000004 -28.371814749999984 Q34.203840375000006 -30.62214137499999 33.06403125 -33.39261624999999 Q31.924123500000004 -36.16318974999999 31.924123500000004 -39.073416249999994 Q31.924123500000004 -45.45179087499999 36.445783875000004 -49.96062999999999 Q40.96744425000001 -54.46946912499999 47.363867250000006 -54.46946912499999 Q53.760388875000004 -54.46946912499999 58.258083375 -49.96062999999999 Q62.7558765 -45.45179087499999 62.7558765 -39.073416249999994 Q62.7558765 -36.16318974999999 61.61596875 -33.39261624999999 Q60.476159625 -30.62214137499999 58.348029375 -28.371814749999984 H36.331970625000004 Z"/></g><g id="Ultralight-S" transform="matrix(1 0 0 1 517.792 696)"><path d="M47.384381250000004 -2.486499999999987 Q40.633500000000005 -2.486499999999987 34.66096725 -5.039999874999985 Q28.688335875 -7.593598374999985 24.199320375 -12.076696374999987 Q19.7104035 -16.55989299999999 17.15345175 -22.52039349999999 Q14.5965 -28.480992624999992 14.5965 -35.258009499999986 Q14.5965 -42.03512499999999 17.149999875 -47.95834524999999 Q19.703598375 -53.881664124999986 24.186696375 -58.37058099999999 Q28.669893000000005 -62.859596499999995 34.630393500000004 -65.41654824999999 Q40.590992625000005 -67.97349999999999 47.3680095 -67.97349999999999 Q54.145125 -67.97349999999999 60.06834525 -65.42000012499999 Q65.991664125 -62.866401624999995 70.480581 -58.38330362499998 Q74.96959650000001 -53.90010699999999 77.52654825 -47.96268474999999 Q80.0835 -42.02516387499999 80.0835 -35.27438124999999 Q80.0835 -28.52349999999999 77.530000125 -22.550967249999985 Q74.97640162500001 -16.578335874999986 70.493303625 -12.089320374999986 Q66.010107 -7.600403499999988 60.07268475 -5.043451749999985 Q54.135163875 -2.486499999999987 47.384381250000004 -2.486499999999987 Z M47.34 -4.458999999999985 Q60.16125 -4.458999999999985 69.136125 -13.433874999999986 Q78.111 -22.40874999999999 78.111 -35.22999999999999 Q78.111 -48.05124999999999 69.136125 -57.02612499999999 Q60.16125 -66.00099999999999 47.34 -66.00099999999999 Q34.518750000000004 -66.00099999999999 25.543875 -57.02612499999999 Q16.569 -48.05124999999999 16.569 -35.22999999999999 Q16.569 -22.40874999999999 25.543875 -13.433874999999986 Q34.518750000000004 -4.458999999999985 47.34 -4.458999999999985 Z M47.34 -11.954499999999989 Q48.227625 -11.954499999999989 48.967312500000006 -12.348999999999986 Q49.707 -12.743499999999987 50.200125 -13.532499999999988 H44.479875 Q44.973 -12.743499999999987 45.7126875 -12.348999999999986 Q46.452375 -11.954499999999989 47.34 -11.954499999999989 Z M37.083 -19.055499999999988 H57.597 V-20.63349999999999 H37.083 V-19.055499999999988 Z M35.406375000000004 -26.156499999999987 H59.273625 Q61.736784375000006 -28.478625624999992 63.21744150000001 -31.73788599999999 Q64.69800000000001 -34.99714637499999 64.69800000000001 -38.78049999999999 Q64.69800000000001 -45.98406999999999 59.61427575 -51.061284999999984 Q54.5305515 -56.13849999999999 47.31771075 -56.13849999999999 Q40.10487 -56.13849999999999 35.043435 -51.061284999999984 Q29.982000000000003 -45.98406999999999 29.982000000000003 -38.78049999999999 Q29.982000000000003 -34.99714637499999 31.4625585 -31.73788599999999 Q32.943215625 -28.478625624999992 35.406375000000004 -26.156499999999987 Z M36.195375 -27.73449999999999 Q33.961420125000004 -30.068164749999987 32.76066075 -32.94495737499999 Q31.560000000000002 -35.82174999999999 31.560000000000002 -38.806142499999986 Q31.560000000000002 -45.33294774999999 36.188274 -49.946723874999996 Q40.816548000000004 -54.56049999999999 47.363867250000006 -54.56049999999999 Q53.911285125000006 -54.56049999999999 58.51559325 -49.946723874999996 Q63.120000000000005 -45.33294774999999 63.120000000000005 -38.806142499999986 Q63.120000000000005 -35.82174999999999 61.91933925000001 -32.94495737499999 Q60.718579874999996 -30.068164749999987 58.484625 -27.73449999999999 H36.195375 Z"/></g></g></svg>