<svg xmlns="http://www.w3.org/2000/svg" version="1.1" width="3300" height="2000"><g id="Notes"><style>
    text {
      font-family: monospace;
      text-anchor: middle;
    }
    text.emphasis {
      font-weight:bold;
    }
    text.lanchor {
      text-anchor: start;
    }
  </style><rect height="2200" id="artboard" fill="white" width="3300" x="0" y="0"/><line id="" style="fill:none;stroke:black;stroke-width:0.5;" x1="263" x2="3036" y1="292" y2="292"/><text class="lanchor emphasis" transform="matrix(1 0 0 1 263 322)">Weight/Scale Variations</text><text transform="matrix(1 0 0 1 559.711 322)">Ultralight</text><text transform="matrix(1 0 0 1 856.422 322)">Thin</text><text transform="matrix(1 0 0 1 1153.13 322)">Light</text><text transform="matrix(1 0 0 1 1449.84 322)">Regular</text><text transform="matrix(1 0 0 1 1746.56 322)">Medium</text><text transform="matrix(1 0 0 1 2043.27 322)">Semibold</text><text transform="matrix(1 0 0 1 2339.98 322)">Bold</text><text transform="matrix(1 0 0 1 2636.69 322)">Heavy</text><text transform="matrix(1 0 0 1 2933.4 322)">Black</text><text id="template-version" style="text-anchor: end;" transform="matrix(1 0 0 1 3036 1933)">Template v.1.0</text><text class="lanchor" transform="matrix(1 0 0 1 263 726)">Small</text><text class="lanchor" transform="matrix(1 0 0 1 263 1156)">Medium</text><text class="lanchor" transform="matrix(1 0 0 1 263 1586)">Large</text></g><g id="Guides"><g id="H-reference" style="fill:#27AAE1;stroke:none;" transform="matrix(1 0 0 1 339 696)"><path d="M 54.9316 0 L 57.666 0 L 30.5664 -70.459 L 28.0762 -70.459 L 0.976562 0 L 3.66211 0 L 12.9395 -24.4629 L 45.7031 -24.4629 Z M 29.1992 -67.0898 L 29.4434 -67.0898 L 44.8242 -26.709 L 13.8184 -26.709 Z"/></g><line id="Baseline-S" style="fill:none;stroke:#27AAE1;opacity:1;stroke-width:0.577;" x1="263" x2="3036" y1="696" y2="696"/><line id="Capline-S" style="fill:none;stroke:#27AAE1;opacity:1;stroke-width:0.577;" x1="263" x2="3036" y1="625.541" y2="625.541"/><g id="H-reference" style="fill:#27AAE1;stroke:none;" transform="matrix(1 0 0 1 339 1126)"><path d="M 54.9316 0 L 57.666 0 L 30.5664 -70.459 L 28.0762 -70.459 L 0.976562 0 L 3.66211 0 L 12.9395 -24.4629 L 45.7031 -24.4629 Z M 29.1992 -67.0898 L 29.4434 -67.0898 L 44.8242 -26.709 L 13.8184 -26.709 Z"/></g><line id="Baseline-M" style="fill:none;stroke:#27AAE1;opacity:1;stroke-width:0.577;" x1="263" x2="3036" y1="1126" y2="1126"/><line id="Capline-M" style="fill:none;stroke:#27AAE1;opacity:1;stroke-width:0.577;" x1="263" x2="3036" y1="1055.54" y2="1055.54"/><g id="H-reference" style="fill:#27AAE1;stroke:none;" transform="matrix(1 0 0 1 339 1556)"><path d="M 54.9316 0 L 57.666 0 L 30.5664 -70.459 L 28.0762 -70.459 L 0.976562 0 L 3.66211 0 L 12.9395 -24.4629 L 45.7031 -24.4629 Z M 29.1992 -67.0898 L 29.4434 -67.0898 L 44.8242 -26.709 L 13.8184 -26.709 Z"/></g><line id="Baseline-L" style="fill:none;stroke:#27AAE1;opacity:1;stroke-width:0.577;" x1="263" x2="3036" y1="1556" y2="1556"/><line id="Capline-L" style="fill:none;stroke:#27AAE1;opacity:1;stroke-width:0.577;" x1="263" x2="3036" y1="1485.54" y2="1485.54"/><rect height="119.336" id="left-margin" style="fill:darkred;stroke:none;opacity:0.4;" width="12.4512" x="1394.06" y="1030.79"/><rect height="119.336" id="right-margin" style="fill:darkgreen;stroke:none;opacity:0.4;" width="12.4512" x="1502.5112" y="1030.79"/><rect x="1406.5112" y="1045" width="96" height="96" fill="none" stroke="blue" stroke-dasharray="5"/><rect x="1394.06" y="1030.79" width="120.9024" height="119.336" fill="none" stroke="blue"/></g><g id="Symbols"><g id="Bold-L" transform="matrix(1 0 0 1 2266 1556)"><path d="M30.47625 44.266250000000014 Q24.1794375 44.266250000000014 19.74909375 39.835906250000015 Q15.31875 35.405562500000016 15.31875 29.108750000000015 V-64.73874999999998 Q15.31875 -71.10215874999999 19.74909375 -75.57974875 Q24.1794375 -80.05749999999999 30.47625 -80.05749999999999 H95.62125 L80.46375 -64.73874999999998 H30.47625 Q30.47625 -64.73874999999998 30.47625 -64.73874999999998 Q30.47625 -64.73874999999998 30.47625 -64.73874999999998 V29.108750000000015 Q30.47625 29.108750000000015 30.47625 29.108750000000015 Q30.47625 29.108750000000015 30.47625 29.108750000000015 H124.32375 Q124.32375 29.108750000000015 124.32375 29.108750000000015 Q124.32375 29.108750000000015 124.32375 29.108750000000015 V-21.039999999999985 L139.6425 -36.358749999999986 V29.108750000000015 Q139.6425 35.405562500000016 135.16474875 39.835906250000015 Q130.68715875 44.266250000000014 124.32375 44.266250000000014 H30.47625 Z M104.65125 -75.38125  114.00375 -66.18999999999998  69.015 -21.523749999999986 V-9.429999999999986 H80.9475 L126.0975 -54.25749999999999 L134.96625 -45.38874999999999 L86.26875 3.470000000000013 H56.115 V-26.68374999999999 L104.65125 -75.38125 Z M134.96625 -45.38874999999999  104.65125 -75.38125  119.0025 -89.57124999999999 Q123.5175 -94.08624999999998 129.85639875 -94.00562499999998 Q136.1952975 -93.92499999999998 140.77125 -89.24875 L149.15625 -80.70249999999999 Q153.34875 -76.02624999999999 153.34875 -69.89520249999998 Q153.34875 -63.76399375 148.83375 -59.25624999999998 L134.96625 -45.38874999999999 Z"/></g><g id="Semibold-L" transform="matrix(1 0 0 1 1970.27 1556)"><path d="M29.84527875 42.513623750000015 Q24.603525 42.513623750000015 20.83753125 38.747630000000015 Q17.07137625 34.98147500000002 17.07137625 29.739721250000017 V-65.36972124999998 Q17.07137625 -70.64904624999998 20.83753125 -74.44196874999999 Q24.603525 -78.23472999999998 29.84527875 -78.23472999999998 H95.06042250000002 L82.28652 -65.36972124999998 H29.84527875 Q29.84527875 -65.36972124999998 29.84527875 -65.36972124999998 Q29.84527875 -65.36972124999998 29.84527875 -65.36972124999998 V29.739721250000017 Q29.84527875 29.739721250000017 29.84527875 29.739721250000017 Q29.84527875 29.739721250000017 29.84527875 29.739721250000017 H124.95472125 Q124.95472125 29.739721250000017 124.95472125 29.739721250000017 Q124.95472125 29.739721250000017 124.95472125 29.739721250000017 V-23.002896249999992 L137.81973000000002 -35.868066249999984 V29.739721250000017 Q137.81973000000002 34.98147500000002 134.02696875 38.747630000000015 Q130.23404625 42.513623750000015 124.95472125 42.513623750000015 H29.84527875 Z M105.56263500000001 -75.03069249999999  113.8634625 -66.89111499999999  68.4541725 -21.73401999999998 V-8.869172499999983 H81.15777 L126.72847125 -54.25749999999999 L134.68583625 -46.300135 L85.9181925 2.62875875000001 H56.95624125 V-26.333192499999996 L105.56263500000001 -75.03069249999999 Z M134.68583625 -46.300135  105.56263500000001 -75.03069249999999  120.6849825 -90.06193374999998 Q124.42888500000001 -93.80583624999997 129.786255 -93.76020249999999 Q135.14378625 -93.71473 138.94848000000002 -89.80957749999999 L149.57695125 -79.0200175 Q153.13848000000002 -75.11486499999998 153.13848000000002 -69.93374124999998 Q153.13848000000002 -64.75261749999999 149.32443375 -61.008876249999986 L134.68583625 -46.300135 Z"/></g><g id="Medium-L" transform="matrix(1 0 0 1 1674.31 1556)"><path d="M29.37201 41.19895250000002 Q24.92167125 41.19895250000002 21.65377875 37.931221250000014 Q18.3860475 34.66332875000002 18.3860475 30.212990000000016 V-65.84298999999999 Q18.3860475 -70.30913124999998 21.65377875 -73.58831124999999 Q24.92167125 -76.86765249999998 29.37201 -76.86765249999998 H94.63972125000001 L83.6535975 -65.84298999999999 H29.37201 Q29.37201 -65.84298999999999 29.37201 -65.84298999999999 Q29.37201 -65.84298999999999 29.37201 -65.84298999999999 V30.212990000000016 Q29.37201 30.212990000000016 29.37201 30.212990000000016 Q29.37201 30.212990000000016 29.37201 30.212990000000016 H125.42799 Q125.42799 30.212990000000016 125.42799 30.212990000000016 Q125.42799 30.212990000000016 125.42799 30.212990000000016 V-24.47526999999998 L136.4526525 -35.499932499999986 V30.212990000000016 Q136.4526525 34.66332875000002 133.17331125 37.931221250000014 Q129.89413125 41.19895250000002 125.42799 41.19895250000002 H29.37201 Z M106.24617375 -74.767855  113.7583275 -67.41695125  68.03347125 -21.89188374999999 V-8.44847124999999 H81.31563375 L127.20174 -54.25749999999999 L134.47556625 -46.98367374999998 L85.655355 1.9977875000000154 H57.5872125 V-26.070354999999992 L106.24617375 -74.767855 Z M134.47556625 -46.98367374999998  106.24617375 -74.767855  121.94708625 -90.43006749999998 Q125.11242374999999 -93.59556624999999 129.7336875 -93.57621624999999 Q134.35495125 -93.55686624999998 137.5814025 -90.23027875 L149.89235625 -77.75791374999999 Q152.98061625 -74.43132625 152.98061625 -69.96260499999998 Q152.98061625 -65.49404499999999 149.6925675 -62.32354749999999 L134.47556625 -46.98367374999998 Z"/></g><g id="Regular-L" transform="matrix(1 0 0 1 1378.56 1556)"><path d="M29.025000000000002 40.235000000000014 Q25.155 40.235000000000014 22.2525 37.33250000000002 Q19.35 34.430000000000014 19.35 30.560000000000016 V-66.18999999999998 Q19.35 -70.05999999999999 22.2525 -72.96249999999999 Q25.155 -75.86499999999998 29.025000000000002 -75.86499999999998 H94.33125 L84.65625 -66.18999999999998 H29.025000000000002 Q29.025000000000002 -66.18999999999998 29.025000000000002 -66.18999999999998 Q29.025000000000002 -66.18999999999998 29.025000000000002 -66.18999999999998 V30.560000000000016 Q29.025000000000002 30.560000000000016 29.025000000000002 30.560000000000016 Q29.025000000000002 30.560000000000016 29.025000000000002 30.560000000000016 H125.775 Q125.775 30.560000000000016 125.775 30.560000000000016 Q125.775 30.560000000000016 125.775 30.560000000000016 V-25.554999999999993 L135.45000000000002 -35.22999999999999 V30.560000000000016 Q135.45000000000002 34.430000000000014 132.5475 37.33250000000002 Q129.645 40.235000000000014 125.775 40.235000000000014 H29.025000000000002 Z M106.7475 -74.57499999999999  113.68125 -67.80249999999998  67.72500000000001 -22.00749999999998 V-8.139999999999986 H81.43125 L127.54875 -54.25749999999999 L134.32125 -47.484999999999985 L85.4625 1.535000000000018 H58.050000000000004 V-25.877499999999984 L106.7475 -74.57499999999999 Z M134.32125 -47.484999999999985  106.7475 -74.57499999999999  122.8725 -90.69999999999999 Q125.61375000000001 -93.44125 129.69514875000002 -93.44125 Q133.7765475 -93.44125 136.57875 -90.53875 L150.12375 -76.83249999999998 Q152.865 -73.92999999999999 152.865 -69.98388999999999 Q152.865 -66.03778 149.9625 -63.28749999999998 L134.32125 -47.484999999999985 Z"/></g><g id="Light-L" transform="matrix(1 0 0 1 1082.77 1556)"><path d="M31.8781575 37.009677500000016 Q28.084106249999998 37.009677500000016 25.32963375 34.255366250000016 Q22.57516125 31.500893750000017 22.57516125 27.706842500000015 V-63.33684249999999 Q22.57516125 -67.13089375 25.32963375 -69.88536624999999 Q28.084106249999998 -72.63983875 31.8781575 -72.63983875 H92.5945875 L85.27641750000001 -65.32166874999999 H31.8781575 Q31.133827500000002 -65.32166874999999 30.51349875 -64.70150124999999 Q29.89333125 -64.0811725 29.89333125 -63.33684249999999 V27.706842500000015 Q29.89333125 28.451172500000013 30.51349875 29.07150125000002 Q31.133827500000002 29.691668750000012 31.8781575 29.691668750000012 H122.92184250000001 Q123.6661725 29.691668750000012 124.28650125 29.07150125000002 Q124.90666875000001 28.451172500000013 124.90666875000001 27.706842500000015 V-26.05116624999998 L132.22483875 -33.36933624999999 V27.706842500000015 Q132.22483875 31.500893750000017 129.47036625 34.255366250000016 Q126.71589375 37.009677500000016 122.92184250000001 37.009677500000016 H31.8781575 Z M108.42208125 -71.7218425  113.68125 -66.56200374999999  68.59333125 -21.635334999999984 V-9.008331249999983 H81.05908500000001 L126.37033500000001 -54.19541874999999 L131.4680925 -49.15958124999999 L84.15992250000001 -1.6901612499999814 H61.27516125 V-24.574922499999985 L108.42208125 -71.7218425 Z M131.49405375 -49.15958124999999  108.42208125 -71.7218425  123.18258375 -86.48234500000001 Q125.79983250000001 -89.09959375 129.69514875000002 -89.06863375 Q133.590465 -89.03751249999999 136.33058625 -86.259175 L145.90609500000002 -76.64641749999998 Q148.58542500000001 -73.79761374999998 148.58542500000001 -70.01065749999998 Q148.58542500000001 -66.2238625 145.74484500000003 -63.53566374999998 L131.49405375 -49.15958124999999 Z"/></g><g id="Thin-L" transform="matrix(1 0 0 1 787.282 1556)"><path d="M34.730669999999996 33.78500000000002 Q31.01272875 33.78500000000002 28.406283750000004 31.178716250000015 Q25.8 28.572271250000014 25.8 24.854330000000015 V-60.484329999999986 Q25.8 -64.20227124999998 28.406283750000004 -66.80871624999999 Q31.01272875 -69.41499999999999 34.730669999999996 -69.41499999999999 H90.8582475 L85.896585 -64.45349874999998 H34.730669999999996 Q33.2423325 -64.45349874999998 32.001836250000004 -63.21316374999998 Q30.761501250000002 -61.972667499999986 30.761501250000002 -60.484329999999986 V24.854330000000015 Q30.761501250000002 26.342667500000015 32.001836250000004 27.58316375000002 Q33.2423325 28.823498750000013 34.730669999999996 28.823498750000013 H120.06933000000001 Q121.55766750000001 28.823498750000013 122.79816375 27.58316375000002 Q124.03849875 26.342667500000015 124.03849875 24.854330000000015 V-26.547332499999982 L129.0 -31.50883374999998 V24.854330000000015 Q129.0 28.572271250000014 126.39371625 31.178716250000015 Q123.78727125 33.78500000000002 120.06933000000001 33.78500000000002 H34.730669999999996 Z M110.09650125 -68.86932999999999  113.68125 -65.32166874999999  69.46150125 -21.263331249999986 V-9.87650124999999 H80.68708125 L125.19208125 -54.13349874999999 L128.61558 -50.834001249999986 L82.8576675 -4.914999999999985 H64.5 V-23.272667499999983 L110.09650125 -68.86932999999999 Z M128.66734125 -50.834001249999986  110.09650125 -68.86932999999999  123.49266750000001 -82.26549624999998 Q125.985915 -84.75858249999999 129.69514875000002 -84.69666249999999 Q133.40454375000002 -84.63458124999998 136.08258375 -81.98008374999999 L141.68924625 -76.46033499999999 Q144.30633375 -73.66522749999997 144.30633375 -70.03758624999999 Q144.30633375 -66.409945 141.52799625 -63.78366624999998 L128.66734125 -50.834001249999986 Z"/></g><g id="Ultralight-L" transform="matrix(1 0 0 1 491.205 1556)"><path d="M36.4425 31.850000000000016 Q32.77003125 31.850000000000016 30.25259625 29.332565000000017 Q27.735 26.814968750000016 27.735 23.142500000000016 V-58.772499999999994 Q27.735 -62.44496874999999 30.25259625 -64.962565 Q32.77003125 -67.47999999999999 36.4425 -67.47999999999999 H89.81625 L86.26875 -63.93249999999999 H36.4425 Q34.5075 -63.93249999999999 32.895 -62.31999999999999 Q31.282500000000002 -60.70749999999998 31.282500000000002 -58.772499999999994 V23.142500000000016 Q31.282500000000002 25.077500000000015 32.895 26.690000000000015 Q34.5075 28.302500000000016 36.4425 28.302500000000016 H118.3575 Q120.2925 28.302500000000016 121.905 26.690000000000015 Q123.5175 25.077500000000015 123.5175 23.142500000000016 V-26.844999999999985 L127.065 -30.392499999999984 V23.142500000000016 Q127.065 26.814968750000016 124.547565 29.332565000000017 Q122.02996875 31.850000000000016 118.3575 31.850000000000016 H36.4425 Z M111.10125000000001 -67.15749999999998  113.68125 -64.57749999999999  69.9825 -21.039999999999985 V-10.397499999999987 H80.46375 L124.485 -54.09624999999998 L126.90375 -51.83874999999999 L82.07625 -6.849999999999987 H66.435 V-22.49124999999998 L111.10125000000001 -67.15749999999998 Z M126.9711525 -51.83874999999999  111.10125000000001 -67.15749999999998  123.67875000000001 -79.73499999999999 Q126.0975 -82.15374999999999 129.69514875000002 -82.07312499999999 Q133.2927975 -81.99249999999999 135.93375 -79.4125 L139.15875 -76.34874999999998 Q141.73875 -73.58573125 141.73875 -70.05371124999999 Q141.73875 -66.52153 138.9975 -63.93249999999999 L126.9711525 -51.83874999999999 Z"/></g><g id="Bold-M" transform="matrix(1 0 0 1 2281.8 1126)"><path d="M26.5 27.52000000000001 Q19.875 27.52000000000001 15.3125 22.95750000000001 Q10.75 18.39500000000001 10.75 11.77000000000001 V-55.22999999999999 Q10.75 -61.85499999999999 15.3125 -66.41749999999999 Q19.875 -70.97999999999999 26.5 -70.97999999999999 H71.0 L55.25 -55.22999999999999 H26.5 Q26.5 -55.22999999999999 26.5 -55.22999999999999 Q26.5 -55.22999999999999 26.5 -55.22999999999999 V11.77000000000001 Q26.5 11.77000000000001 26.5 11.77000000000001 Q26.5 11.77000000000001 26.5 11.77000000000001 H93.5 Q93.5 11.77000000000001 93.5 11.77000000000001 Q93.5 11.77000000000001 93.5 11.77000000000001 V-16.85499999999999 L109.25 -32.60499999999999 V11.77000000000001 Q109.25 18.39500000000001 104.6875 22.95750000000001 Q100.125 27.52000000000001 93.5 27.52000000000001 H26.5 Z M78.75 -64.60499999999999  88.375 -55.10499999999999  56.25 -23.35499999999999 V-17.97999999999999 H61.5 L93.625 -49.85499999999999 L102.875 -40.60499999999999 L67.125 -4.72999999999999 H43.0 V-28.85499999999999 L78.75 -64.60499999999999 Z M102.875 -40.60499999999999  78.75 -64.60499999999999  89.375 -75.22999999999999 Q94.125 -79.97999999999999 100.6875 -79.85499999999999 Q107.25 -79.72999999999999 111.875 -74.97999999999999 L113.625 -73.22999999999999 Q118.0 -68.47999999999999 118.0 -62.10499999999999 Q118.0 -55.72999999999999 113.375 -51.10499999999999 L102.875 -40.60499999999999 Z"/></g><g id="Semibold-M" transform="matrix(1 0 0 1 1985.97 1126)"><path d="M25.847875 25.67225000000001 Q20.30975 25.67225000000001 16.45375 21.81625000000001 Q12.59775 17.96025000000001 12.59775 12.42212500000001 V-55.88212499999999 Q12.59775 -61.420249999999996 16.45375 -65.27624999999999 Q20.30975 -69.13224999999998 25.847875 -69.13224999999998 H70.40225 L57.152 -55.88212499999999 H25.847875 Q25.847875 -55.88212499999999 25.847875 -55.88212499999999 Q25.847875 -55.88212499999999 25.847875 -55.88212499999999 V12.42212500000001 Q25.847875 12.42212500000001 25.847875 12.42212500000001 Q25.847875 12.42212500000001 25.847875 12.42212500000001 H94.152125 Q94.152125 12.42212500000001 94.152125 12.42212500000001 Q94.152125 12.42212500000001 94.152125 12.42212500000001 V-18.86574999999999 L107.40225 -32.11587499999999 V12.42212500000001 Q107.40225 17.96025000000001 103.54625 21.81625000000001 Q99.69025 25.67225000000001 94.152125 25.67225000000001 H25.847875 Z M79.673875 -64.27887499999999  88.212 -55.86587499999999  55.7065 -23.572374999999987 V-17.436499999999988 H61.717375 L94.277125 -49.85499999999999 L102.60325 -41.58324999999999 L66.744625 -5.599499999999988 H43.8695 V-28.47462499999999 L79.673875 -64.27887499999999 Z M102.60325 -41.58324999999999  79.673875 -64.27887499999999  91.114 -75.71912499999999 Q95.10325 -79.70824999999999 100.633125 -79.63762499999999 Q106.163125 -79.567 110.02725 -75.57775 L114.05975 -71.49099999999999 Q117.782625 -67.556125 117.782625 -62.15937499999998 Q117.782625 -56.76249999999999 113.9185 -52.89837499999999 L102.60325 -41.58324999999999 Z"/></g><g id="Medium-M" transform="matrix(1 0 0 1 1689.91 1126)"><path d="M25.35875 24.28637500000001 Q20.635875 24.28637500000001 17.30975 20.96025000000001 Q13.983625 17.63412500000001 13.983625 12.91125000000001 V-56.37124999999999 Q13.983625 -61.09412499999999 17.30975 -64.42025 Q20.635875 -67.74637499999999 25.35875 -67.74637499999999 H69.95375 L58.57875 -56.37124999999999 H25.35875 Q25.35875 -56.37124999999999 25.35875 -56.37124999999999 Q25.35875 -56.37124999999999 25.35875 -56.37124999999999 V12.91125000000001 Q25.35875 12.91125000000001 25.35875 12.91125000000001 Q25.35875 12.91125000000001 25.35875 12.91125000000001 H94.64125 Q94.64125 12.91125000000001 94.64125 12.91125000000001 Q94.64125 12.91125000000001 94.64125 12.91125000000001 V-20.373999999999988 L106.016375 -31.748999999999988 V12.91125000000001 Q106.016375 17.63412500000001 102.69025 20.96025000000001 Q99.364125 24.28637500000001 94.64125 24.28637500000001 H25.35875 Z M80.366875 -64.03437499999998  88.089625 -56.436499999999995  55.298875 -23.73537499999999 V-17.028874999999992 H61.880375 L94.76625 -49.85499999999999 L102.3995 -42.31699999999999 L66.45925 -6.251749999999991 H44.52175 V-28.189249999999987 L80.366875 -64.03437499999998 Z M102.3995 -42.31699999999999  80.366875 -64.03437499999998  92.4185 -76.08599999999998 Q95.837 -79.5045 100.592375 -79.47462499999999 Q105.347875 -79.44462499999999 108.641375 -76.02624999999999 L114.385875 -70.1865 Q117.619625 -66.863125 117.619625 -62.200124999999986 Q117.619625 -57.53699999999999 114.326125 -54.243624999999994 L102.3995 -42.31699999999999 Z"/></g><g id="Regular-M" transform="matrix(1 0 0 1 1394.06 1126)"><path d="M25.0 23.27000000000001 Q20.875 23.27000000000001 17.9375 20.33250000000001 Q15.0 17.39500000000001 15.0 13.27000000000001 V-56.72999999999999 Q15.0 -60.85499999999999 17.9375 -63.79249999999999 Q20.875 -66.72999999999999 25.0 -66.72999999999999 H69.625 L59.625 -56.72999999999999 H25.0 Q25.0 -56.72999999999999 25.0 -56.72999999999999 Q25.0 -56.72999999999999 25.0 -56.72999999999999 V13.27000000000001 Q25.0 13.27000000000001 25.0 13.27000000000001 Q25.0 13.27000000000001 25.0 13.27000000000001 H95.0 Q95.0 13.27000000000001 95.0 13.27000000000001 Q95.0 13.27000000000001 95.0 13.27000000000001 V-21.47999999999999 L105.0 -31.47999999999999 V13.27000000000001 Q105.0 17.39500000000001 102.0625 20.33250000000001 Q99.125 23.27000000000001 95.0 23.27000000000001 H25.0 Z M80.875 -63.85499999999999  88.0 -56.85499999999999  55.0 -23.85499999999999 V-16.72999999999999 H62.0 L95.125 -49.85499999999999 L102.25 -42.85499999999999 L66.25 -6.72999999999999 H45.0 V-27.97999999999999 L80.875 -63.85499999999999 Z M102.25 -42.85499999999999  80.875 -63.85499999999999  93.375 -76.35499999999999 Q96.375 -79.35499999999999 100.5625 -79.35499999999999 Q104.75 -79.35499999999999 107.625 -76.35499999999999 L114.625 -69.22999999999999 Q117.5 -66.35499999999999 117.5 -62.22999999999999 Q117.5 -58.10499999999999 114.625 -55.22999999999999 L102.25 -42.85499999999999 Z"/></g><g id="Light-M" transform="matrix(1 0 0 1 1098.18 1126)"><path d="M26.538625 20.76975000000001 Q22.750125 20.76975000000001 20.125125 18.14487500000001 Q17.500125 15.51987500000001 17.500125 11.73137500000001 V-55.191374999999994 Q17.500125 -58.97987499999999 20.125125 -61.60487499999999 Q22.750125 -64.22987499999999 26.538625 -64.22987499999999 H69.240375 L61.7405 -56.72999999999999 H26.538625 Q25.961625 -56.72999999999999 25.48075 -56.24924999999999 Q25.0 -55.76837499999999 25.0 -55.191374999999994 V11.73137500000001 Q25.0 12.30837500000001 25.48075 12.78925000000001 Q25.961625 13.27000000000001 26.538625 13.27000000000001 H93.461375 Q94.038375 13.27000000000001 94.51925 12.78925000000001 Q95.0 12.30837500000001 95.0 11.73137500000001 V-23.547499999999992 L102.499875 -31.04724999999999 V11.73137500000001 Q102.499875 15.51987500000001 99.874875 18.14487500000001 Q97.249875 20.76975000000001 93.461375 20.76975000000001 H26.538625 Z M82.654 -62.12412499999999  88.048125 -56.85499999999999  55.0 -23.85499999999999 V-16.72999999999999 H62.0 L95.221125 -49.85499999999999 L100.519125 -44.633999999999986 L65.24025 -9.230124999999987 H47.500125 V-26.970249999999993 L82.654 -62.12412499999999 Z M100.519125 -44.633999999999986  82.654 -62.12412499999999  94.09625 -73.566375 Q96.759625 -76.22975 100.5625 -76.22975 Q104.365375 -76.22975 106.951875 -73.51825 L111.836375 -68.60499999999999 Q114.422875 -65.97037499999999 114.422875 -62.25399999999999 Q114.422875 -58.53774999999999 111.78825 -55.90312499999999 L100.519125 -44.633999999999986 Z"/></g><g id="Thin-M" transform="matrix(1 0 0 1 802.565 1126)"><path d="M28.076875 18.27000000000001 Q24.625 18.27000000000001 22.3125 15.95750000000001 Q20.0 13.64500000000001 20.0 10.19312500000001 V-53.65312499999999 Q20.0 -57.10499999999999 22.3125 -59.41749999999999 Q24.625 -61.72999999999999 28.076875 -61.72999999999999 H68.85575 L63.85575 -56.72999999999999 H28.076875 Q26.923125 -56.72999999999999 25.9615 -55.76849999999999 Q25.0 -54.80687499999999 25.0 -53.65312499999999 V10.19312500000001 Q25.0 11.34687500000001 25.9615 12.308500000000011 Q26.923125 13.27000000000001 28.076875 13.27000000000001 H91.923125 Q93.076875 13.27000000000001 94.0385 12.308500000000011 Q95.0 11.34687500000001 95.0 10.19312500000001 V-25.61462499999999 L100.0 -30.61462499999999 V10.19312500000001 Q100.0 13.64500000000001 97.6875 15.95750000000001 Q95.375 18.27000000000001 91.923125 18.27000000000001 H28.076875 Z M84.432625 -60.39349999999999  88.096125 -56.85499999999999  55.0 -23.85499999999999 V-16.72999999999999 H62.0 L95.31725 -49.85499999999999 L98.7885 -46.41262499999999 L64.23075 -11.72999999999999 H50.0 V-25.96074999999999 L84.432625 -60.39349999999999 Z M98.7885 -46.41262499999999  84.432625 -60.39349999999999  94.81725 -70.77812499999999 Q97.14425 -73.10499999999999 100.5625 -73.10499999999999 Q103.98075 -73.10499999999999 106.278875 -70.68199999999999 L109.048125 -67.97999999999999 Q111.34625 -65.58574999999999 111.34625 -62.27812499999999 Q111.34625 -58.97037499999999 108.952 -56.57612499999999 L98.7885 -46.41262499999999 Z"/></g><g id="Ultralight-M" transform="matrix(1 0 0 1 506.415 1126)"><path d="M29.0 16.77000000000001 Q25.75 16.77000000000001 23.625 14.64500000000001 Q21.5 12.52000000000001 21.5 9.27000000000001 V-52.72999999999999 Q21.5 -55.97999999999999 23.625 -58.10499999999999 Q25.75 -60.22999999999999 29.0 -60.22999999999999 H68.625 L65.125 -56.72999999999999 H29.0 Q27.5 -56.72999999999999 26.25 -55.47999999999999 Q25.0 -54.22999999999999 25.0 -52.72999999999999 V9.27000000000001 Q25.0 10.77000000000001 26.25 12.02000000000001 Q27.5 13.27000000000001 29.0 13.27000000000001 H91.0 Q92.5 13.27000000000001 93.75 12.02000000000001 Q95.0 10.77000000000001 95.0 9.27000000000001 V-26.85499999999999 L98.5 -30.35499999999999 V9.27000000000001 Q98.5 12.52000000000001 96.375 14.64500000000001 Q94.25 16.77000000000001 91.0 16.77000000000001 H29.0 Z M85.5 -59.35499999999999  88.125 -56.85499999999999  55.0 -23.85499999999999 V-16.72999999999999 H62.0 L95.375 -49.85499999999999 L97.75 -47.47999999999999 L63.625 -13.22999999999999 H51.5 V-25.35499999999999 L85.5 -59.35499999999999 Z M97.75 -47.47999999999999  85.5 -59.35499999999999  95.25 -69.10499999999999 Q97.375 -71.22999999999999 100.5625 -71.22999999999999 Q103.75 -71.22999999999999 105.875 -68.97999999999999 L107.375 -67.60499999999999 Q109.5 -65.35499999999999 109.5 -62.29249999999999 Q109.5 -59.22999999999999 107.25 -56.97999999999999 L97.75 -47.47999999999999 Z"/></g><g id="Bold-S" transform="matrix(1 0 0 1 2294.23 696)"><path d="M22.4865 11.419625000000014 Q17.584837500000003 11.419625000000014 14.21679375 8.051581250000012 Q10.84875 4.683537500000013 10.84875 -0.21812499999998636 V-49.92512499999999 Q10.84875 -54.826787499999995 14.21679375 -58.19483124999999 Q17.584837500000003 -61.56287499999999 22.4865 -61.56287499999999 H53.2575 L41.61975 -49.92512499999999 H22.4865 Q22.4865 -49.92512499999999 22.4865 -49.92512499999999 Q22.4865 -49.92512499999999 22.4865 -49.92512499999999 V-0.21812499999998636 Q22.4865 -0.21812499999998636 22.4865 -0.21812499999998636 Q22.4865 -0.21812499999998636 22.4865 -0.21812499999998636 H72.1935 Q72.1935 -0.21812499999998636 72.1935 -0.21812499999998636 Q72.1935 -0.21812499999998636 72.1935 -0.21812499999998636 V-18.95687499999999 L83.83125 -30.693249999999985 V-0.21812499999998636 Q83.83125 4.683537500000013 80.46320625 8.051581250000012 Q77.09516250000001 11.419625000000014 72.1935 11.419625000000014 H22.4865 Z M62.824125 -57.91374999999999  69.92512500000001 -50.81274999999999  45.959250000000004 -27.33999999999999 V-23.69087499999999 H49.608375 L73.37700000000001 -47.16362499999999 L79.984875 -40.358499999999985 L53.652 -14.025624999999987 H36.294000000000004 V-31.28499999999999 L62.824125 -57.91374999999999 Z M79.984875 -40.358499999999985  62.824125 -57.91374999999999  69.727875 -64.8175 Q73.189513875 -68.269375 77.967895125 -68.17074999999998 Q82.746375 -68.07212499999999 86.19825 -64.62024999999998 L87.159547875 -63.73134287499998 Q90.439125 -60.182124999999985 90.439125 -55.48136162499999 Q90.439125 -50.78059824999999 86.98725 -47.360874999999986 L79.984875 -40.358499999999985 Z"/></g><g id="Semibold-S" transform="matrix(1 0 0 1 1998.1 696)"><path d="M21.971973375 9.961750250000014 Q17.92785525 9.961750250000014 15.11724 7.151135000000013 Q12.306624750000001 4.340519750000013 12.306624750000001 0.2964016250000139 V-50.43965162499999 Q12.306624750000001 -54.48376974999999 15.11724 -57.29438499999999 Q17.92785525 -60.10500024999999 21.971973375 -60.10500024999999 H52.78587525 L43.120428000000004 -50.43965162499999 H21.971973375 Q21.971973375 -50.43965162499999 21.971973375 -50.43965162499999 Q21.971973375 -50.43965162499999 21.971973375 -50.43965162499999 V0.2964016250000139 Q21.971973375 0.2964016250000139 21.971973375 0.2964016250000139 Q21.971973375 0.2964016250000139 21.971973375 0.2964016250000139 H72.708026625 Q72.708026625 0.2964016250000139 72.708026625 0.2964016250000139 Q72.708026625 0.2964016250000139 72.708026625 0.2964016250000139 V-20.543356749999987 L82.37337525 -30.307330374999985 V0.2964016250000139 Q82.37337525 4.340519750000013 79.56276000000001 7.151135000000013 Q76.75214475 9.961750250000014 72.708026625 9.961750250000014 H21.971973375 Z M63.553062374999996 -57.65643737499998  69.796518 -51.413080374999986  45.5304285 -27.511508874999983 V-23.262053499999986 H49.779883875 L73.891526625 -47.16362499999999 L79.77046425 -41.13033924999999 L53.351884125000005 -14.71166049999999 H36.98003550000001 V-30.984884124999986 L63.553062374999996 -57.65643737499998 Z M79.77046425 -41.13033924999999  63.553062374999996 -57.65643737499998  71.099946 -65.203419625 Q73.9612545 -68.05496425 77.925091875 -67.99924112499998 Q81.888830625 -67.943518 84.74037525 -65.09187474999999 L87.502565625 -62.35927187499999 Q90.267616125 -59.453187625 90.267616125 -55.52426349999999 Q90.267616125 -51.59524074999999 87.4160715 -48.77584787499999 L79.77046425 -41.13033924999999 Z"/></g><g id="Medium-S" transform="matrix(1 0 0 1 1701.85 696)"><path d="M21.58605375 8.868294875000014 Q18.185167875 8.868294875000014 15.792624 6.475751000000013 Q13.400080125 4.083207125000014 13.400080125 0.6823212500000135 V-50.82557124999999 Q13.400080125 -54.226457124999996 15.792624 -56.61900099999998 Q18.185167875 -59.011544874999984 21.58605375 -59.011544874999984 H52.43200875 L44.24613375 -50.82557124999999 H21.58605375 Q21.58605375 -50.82557124999999 21.58605375 -50.82557124999999 Q21.58605375 -50.82557124999999 21.58605375 -50.82557124999999 V0.6823212500000135 Q21.58605375 0.6823212500000135 21.58605375 0.6823212500000135 Q21.58605375 0.6823212500000135 21.58605375 0.6823212500000135 H73.09394625 Q73.09394625 0.6823212500000135 73.09394625 0.6823212500000135 Q73.09394625 0.6823212500000135 73.09394625 0.6823212500000135 V-21.73336599999999 L81.279919875 -30.017865999999984 V0.6823212500000135 Q81.279919875 4.083207125000014 78.887376 6.475751000000013 Q76.494832125 8.868294875000014 73.09394625 8.868294875000014 H21.58605375 Z M64.099839375 -57.463526874999985  69.69996412500001 -51.863303499999994  45.208812375 -27.640115874999992 V-22.940437374999988 H49.908490875000005 L74.27744625 -47.16362499999999 L79.6097055 -41.709267999999994 L53.12672325 -15.226285749999985 H37.49466075 V-30.759723249999986 L64.099839375 -57.463526874999985 Z M79.6097055 -41.709267999999994  64.099839375 -57.463526874999985  72.12919649999999 -65.49288399999999 Q74.54018325 -67.8942055 77.892940125 -67.870634125 Q81.245598375 -67.84696412499999 83.646919875 -65.44574124999998 L87.75987825 -61.330119999999994 Q90.139009125 -58.90641062499999 90.139009125 -55.556415249999986 Q90.139009125 -52.20641987499998 87.737687625 -49.83725012499999 L79.6097055 -41.709267999999994 Z"/></g><g id="Regular-S" transform="matrix(1 0 0 1 1405.73 696)"><path d="M21.303 8.066375000000013 Q18.3738375 8.066375000000013 16.287918750000003 5.980456250000014 Q14.202 3.8945375000000144 14.202 0.9653750000000123 V-51.10862499999999 Q14.202 -54.03778749999999 16.287918750000003 -56.12370625 Q18.3738375 -58.20962499999999 21.303 -58.20962499999999 H52.172625000000004 L45.071625000000004 -51.10862499999999 H21.303 Q21.303 -51.10862499999999 21.303 -51.10862499999999 Q21.303 -51.10862499999999 21.303 -51.10862499999999 V0.9653750000000123 Q21.303 0.9653750000000123 21.303 0.9653750000000123 Q21.303 0.9653750000000123 21.303 0.9653750000000123 H73.37700000000001 Q73.37700000000001 0.9653750000000123 73.37700000000001 0.9653750000000123 Q73.37700000000001 0.9653750000000123 73.37700000000001 0.9653750000000123 V-22.605999999999987 L80.47800000000001 -29.805624999999985 V0.9653750000000123 Q80.47800000000001 3.8945375000000144 78.39208125 5.980456250000014 Q76.30616250000001 8.066375000000013 73.37700000000001 8.066375000000013 H21.303 Z M64.50075 -57.32199999999999  69.62925 -52.193499999999986  44.973 -27.73449999999999 V-22.704624999999986 H50.002875 L74.5605 -47.16362499999999 L79.49175000000001 -42.13374999999999 L52.961625000000005 -15.603624999999987 H37.872 V-30.594624999999986 L64.50075 -57.32199999999999 Z M79.49175000000001 -42.13374999999999  64.50075 -57.32199999999999  72.883875 -65.705125 Q74.964763875 -67.77624999999999 77.869270125 -67.77624999999999 Q80.773875 -67.77624999999999 82.845 -65.705125 L87.948547875 -60.57534287499999 Q90.04462500000001 -58.505499999999984 90.04462500000001 -55.57998662499999 Q90.04462500000001 -52.65447324999998 87.9735 -50.61549999999999 L79.49175000000001 -42.13374999999999 Z"/></g><g id="Light-S" transform="matrix(1 0 0 1 1109.75 696)"><path d="M22.516975125000002 6.093677750000013 Q19.853311125 6.093677750000013 18.013954875000003 4.2544201250000135 Q16.174598625 2.4150638750000137 16.174598625 -0.24860012499998696 V-49.89464987499999 Q16.174598625 -52.55831387499998 18.013954875000003 -54.39767012499999 Q19.853311125 -56.237026374999985 22.516975125000002 -56.237026374999985 H51.869155875000004 L46.7407545 -51.10862499999999 H22.516975125000002 Q22.061722125000003 -51.10862499999999 21.68231175 -50.72931324999999 Q21.303 -50.34990287499999 21.303 -49.89464987499999 V-0.24860012499998696 Q21.303 0.20665287500001384 21.68231175 0.5860632500000129 Q22.061722125000003 0.9653750000000123 22.516975125000002 0.9653750000000123 H72.163024875 Q72.618277875 0.9653750000000123 72.99768825 0.5860632500000129 Q73.37700000000001 0.20665287500001384 73.37700000000001 -0.24860012499998696 V-24.23725749999999 L78.505401375 -29.464185249999993 V-0.24860012499998696 Q78.505401375 2.4150638750000137 76.66604512500001 4.2544201250000135 Q74.826688875 6.093677750000013 72.163024875 6.093677750000013 H22.516975125000002 Z M65.904381 -55.956339625  69.667220625 -52.193499999999986  44.973 -27.73449999999999 V-22.704624999999986 H50.002875 L74.636342625 -47.16362499999999 L78.126089625 -43.53738099999999 L52.16493225000001 -17.576223624999987 H39.844598624999996 V-29.797932249999988 L65.904381 -55.956339625 Z M78.126089625 -43.53738099999999  65.904381 -55.956339625  73.45294125 -63.50489987499999 Q75.26823300000001 -65.31042774999999 77.869270125 -65.31042774999999 Q80.470405875 -65.31042774999999 82.313904375 -63.46692924999999 L85.74832275 -60.082217874999984 Q87.61677337500001 -58.20203087499999 87.61677337500001 -55.598922624999986 Q87.61677337500001 -52.99591299999999 85.73530425000001 -51.14659562499999 L78.126089625 -43.53738099999999 Z"/></g><g id="Thin-S" transform="matrix(1 0 0 1 814.015 696)"><path d="M23.730654375 4.121375000000013 Q21.332587500000002 4.121375000000013 19.73979375 2.5285812500000127 Q18.147000000000002 0.9357875000000142 18.147000000000002 -1.4622793749999872 V-48.680970624999986 Q18.147000000000002 -51.07903749999999 19.73979375 -52.67183125 Q21.332587500000002 -54.264624999999995 23.730654375 -54.264624999999995 H51.565686750000005 L48.409686750000006 -51.10862499999999 H23.730654375 Q22.820345625 -51.10862499999999 22.061623500000003 -50.35000149999999 Q21.303 -49.59127937499999 21.303 -48.680970624999986 V-1.4622793749999872 Q21.303 -0.5519706249999867 22.061623500000003 0.20675150000001352 Q22.820345625 0.9653750000000123 23.730654375 0.9653750000000123 H70.949345625 Q71.859654375 0.9653750000000123 72.6183765 0.20675150000001352 Q73.37700000000001 -0.5519706249999867 73.37700000000001 -1.4622793749999872 V-25.86821912499999 L76.533 -29.122844124999986 V-1.4622793749999872 Q76.533 0.9357875000000142 74.94020625 2.5285812500000127 Q73.3474125 4.121375000000013 70.949345625 4.121375000000013 H23.730654375 Z M67.307716125 -54.59087649999999  69.705092625 -52.193499999999986  44.973 -27.73449999999999 V-22.704624999999986 H50.002875 L74.71218525 -47.16362499999999 L76.7606265 -44.94071612499999 L51.36843675 -19.548624999999987 H41.817 V-29.00143674999999 L67.307716125 -54.59087649999999 Z M76.7606265 -44.94071612499999  67.307716125 -54.59087649999999  74.02181025 -61.304970624999996 Q75.571702125 -62.844999999999985 77.869270125 -62.844999999999985 Q80.16693675 -62.844999999999985 81.78290737500001 -61.22912799999999 L83.5483935 -59.5891915 Q85.18931625 -57.898561749999985 85.18931625 -55.61795724999999 Q85.18931625 -53.33725412499999 83.49750300000001 -51.67759262499999 L76.7606265 -44.94071612499999 Z"/></g><g id="Ultralight-S" transform="matrix(1 0 0 1 517.792 696)"><path d="M24.459 2.9378750000000124 Q22.220212500000002 2.9378750000000124 20.77535625 1.4930187500000134 Q19.3305 0.04816250000001254 19.3305 -2.1906249999999865 V-47.95262499999999 Q19.3305 -50.19141249999999 20.77535625 -51.63626874999999 Q22.220212500000002 -53.081124999999986 24.459 -53.081124999999986 H51.383625 L49.411125000000006 -51.10862499999999 H24.459 Q23.2755 -51.10862499999999 22.289250000000003 -50.12237499999999 Q21.303 -49.136124999999986 21.303 -47.95262499999999 V-2.1906249999999865 Q21.303 -1.007124999999986 22.289250000000003 -0.020874999999987764 Q23.2755 0.9653750000000123 24.459 0.9653750000000123 H70.221 Q71.4045 0.9653750000000123 72.39075 -0.020874999999987764 Q73.37700000000001 -1.007124999999986 73.37700000000001 -2.1906249999999865 V-26.84687499999999 L75.3495 -28.917999999999985 V-2.1906249999999865 Q75.3495 0.04816250000001254 73.90464375 1.4930187500000134 Q72.4597875 2.9378750000000124 70.221 2.9378750000000124 H24.459 Z M68.14987500000001 -53.77149999999999  69.727875 -52.193499999999986  44.973 -27.73449999999999 V-22.704624999999986 H50.002875 L74.75775 -47.16362499999999 L75.94125 -45.78287499999999 L50.8905 -20.73212499999999 H43.0005 V-28.52349999999999 L68.14987500000001 -53.77149999999999 Z M75.94125 -45.78287499999999  68.14987500000001 -53.77149999999999  74.36325000000001 -59.98487499999999 Q75.753763875 -61.365624999999994 77.869270125 -61.365624999999994 Q79.984875 -61.365624999999994 81.46425 -59.88624999999999 L82.228297875 -59.29321787499998 Q83.732625 -57.716499999999996 83.732625 -55.62929912499999 Q83.732625 -53.54209824999998 82.15462500000001 -51.99624999999999 L75.94125 -45.78287499999999 Z"/></g></g></svg>