<svg xmlns="http://www.w3.org/2000/svg" version="1.1" width="3300" height="2000"><g id="Notes"><style>
    text {
      font-family: monospace;
      text-anchor: middle;
    }
    text.emphasis {
      font-weight:bold;
    }
    text.lanchor {
      text-anchor: start;
    }
  </style><rect height="2200" id="artboard" fill="white" width="3300" x="0" y="0"/><line id="" style="fill:none;stroke:black;stroke-width:0.5;" x1="263" x2="3036" y1="292" y2="292"/><text class="lanchor emphasis" transform="matrix(1 0 0 1 263 322)">Weight/Scale Variations</text><text transform="matrix(1 0 0 1 559.711 322)">Ultralight</text><text transform="matrix(1 0 0 1 856.422 322)">Thin</text><text transform="matrix(1 0 0 1 1153.13 322)">Light</text><text transform="matrix(1 0 0 1 1449.84 322)">Regular</text><text transform="matrix(1 0 0 1 1746.56 322)">Medium</text><text transform="matrix(1 0 0 1 2043.27 322)">Semibold</text><text transform="matrix(1 0 0 1 2339.98 322)">Bold</text><text transform="matrix(1 0 0 1 2636.69 322)">Heavy</text><text transform="matrix(1 0 0 1 2933.4 322)">Black</text><text id="template-version" style="text-anchor: end;" transform="matrix(1 0 0 1 3036 1933)">Template v.1.0</text><text class="lanchor" transform="matrix(1 0 0 1 263 726)">Small</text><text class="lanchor" transform="matrix(1 0 0 1 263 1156)">Medium</text><text class="lanchor" transform="matrix(1 0 0 1 263 1586)">Large</text></g><g id="Guides"><g id="H-reference" style="fill:#27AAE1;stroke:none;" transform="matrix(1 0 0 1 339 696)"><path d="M 54.9316 0 L 57.666 0 L 30.5664 -70.459 L 28.0762 -70.459 L 0.976562 0 L 3.66211 0 L 12.9395 -24.4629 L 45.7031 -24.4629 Z M 29.1992 -67.0898 L 29.4434 -67.0898 L 44.8242 -26.709 L 13.8184 -26.709 Z"/></g><line id="Baseline-S" style="fill:none;stroke:#27AAE1;opacity:1;stroke-width:0.577;" x1="263" x2="3036" y1="696" y2="696"/><line id="Capline-S" style="fill:none;stroke:#27AAE1;opacity:1;stroke-width:0.577;" x1="263" x2="3036" y1="625.541" y2="625.541"/><g id="H-reference" style="fill:#27AAE1;stroke:none;" transform="matrix(1 0 0 1 339 1126)"><path d="M 54.9316 0 L 57.666 0 L 30.5664 -70.459 L 28.0762 -70.459 L 0.976562 0 L 3.66211 0 L 12.9395 -24.4629 L 45.7031 -24.4629 Z M 29.1992 -67.0898 L 29.4434 -67.0898 L 44.8242 -26.709 L 13.8184 -26.709 Z"/></g><line id="Baseline-M" style="fill:none;stroke:#27AAE1;opacity:1;stroke-width:0.577;" x1="263" x2="3036" y1="1126" y2="1126"/><line id="Capline-M" style="fill:none;stroke:#27AAE1;opacity:1;stroke-width:0.577;" x1="263" x2="3036" y1="1055.54" y2="1055.54"/><g id="H-reference" style="fill:#27AAE1;stroke:none;" transform="matrix(1 0 0 1 339 1556)"><path d="M 54.9316 0 L 57.666 0 L 30.5664 -70.459 L 28.0762 -70.459 L 0.976562 0 L 3.66211 0 L 12.9395 -24.4629 L 45.7031 -24.4629 Z M 29.1992 -67.0898 L 29.4434 -67.0898 L 44.8242 -26.709 L 13.8184 -26.709 Z"/></g><line id="Baseline-L" style="fill:none;stroke:#27AAE1;opacity:1;stroke-width:0.577;" x1="263" x2="3036" y1="1556" y2="1556"/><line id="Capline-L" style="fill:none;stroke:#27AAE1;opacity:1;stroke-width:0.577;" x1="263" x2="3036" y1="1485.54" y2="1485.54"/><rect height="119.336" id="left-margin" style="fill:darkred;stroke:none;opacity:0.4;" width="12.4512" x="1394.06" y="1030.79"/><rect height="119.336" id="right-margin" style="fill:darkgreen;stroke:none;opacity:0.4;" width="12.4512" x="1502.5112" y="1030.79"/><rect x="1406.5112" y="1045" width="96" height="96" fill="none" stroke="blue" stroke-dasharray="5"/><rect x="1394.06" y="1030.79" width="120.9024" height="119.336" fill="none" stroke="blue"/></g><g id="Symbols"><g id="Bold-L" transform="matrix(1 0 0 1 2266 1556)"><path d="M69.82125 12.661250000000017 V-27.65124999999999 H29.50875 V-42.80874999999999 H69.82125 V-83.12124999999999 H84.97875 V-42.80874999999999 H125.29125 V-27.65124999999999 H84.97875 V12.661250000000017 H69.82125 Z"/></g><g id="Semibold-L" transform="matrix(1 0 0 1 1970.27 1556)"><path d="M71.01304875000001 11.469451250000017 V-28.843048749999994 H30.70054875 V-41.616951249999985 H71.01304875000001 V-81.92945125 H83.78695125 V-41.616951249999985 H124.09945125000002 V-28.843048749999994 H83.78695125 V11.469451250000017 H71.01304875000001 Z"/></g><g id="Medium-L" transform="matrix(1 0 0 1 1674.31 1556)"><path d="M71.90701875 10.575481250000013 V-29.73701874999999 H31.594518750000002 V-40.72298124999999 H71.90701875 V-81.03548124999999 H82.89298125 V-40.72298124999999 H123.20548125 V-29.73701874999999 H82.89298125 V10.575481250000013 H71.90701875 Z"/></g><g id="Regular-L" transform="matrix(1 0 0 1 1378.56 1556)"><path d="M72.5625 9.920000000000016 V-30.392499999999984 H32.25 V-40.06749999999998 H72.5625 V-80.37999999999998 H82.2375 V-40.06749999999998 H122.55 V-30.392499999999984 H82.2375 V9.920000000000016 H72.5625 Z"/></g><g id="Light-L" transform="matrix(1 0 0 1 1082.77 1556)"><path d="M73.740915 8.307338750000014 V-31.570914999999985 H33.86266125 V-38.889084999999994 H73.740915 V-78.76733875 H81.05908500000001 V-38.889084999999994 H120.93733875000001 V-31.570914999999985 H81.05908500000001 V8.307338750000014 H73.740915 Z"/></g><g id="Thin-L" transform="matrix(1 0 0 1 787.282 1556)"><path d="M74.91916875 6.6950000000000145 V-32.74916874999998 H35.475 V-37.710831249999984 H74.91916875 V-77.15499999999999 H79.88083125 V-37.710831249999984 H119.325 V-32.74916874999998 H79.88083125 V6.6950000000000145 H74.91916875 Z"/></g><g id="Ultralight-L" transform="matrix(1 0 0 1 491.205 1556)"><path d="M75.62625 5.727500000000013 V-33.45624999999998 H36.4425 V-37.00374999999998 H75.62625 V-76.18749999999999 H79.17375 V-37.00374999999998 H118.3575 V-33.45624999999998 H79.17375 V5.727500000000013 H75.62625 Z"/></g><g id="Bold-M" transform="matrix(1 0 0 1 2281.8 1126)"><path d="M52.125 2.6450000000000102 V-27.35499999999999 H22.125 V-43.10499999999999 H52.125 V-73.10499999999999 H67.875 V-43.10499999999999 H97.875 V-27.35499999999999 H67.875 V2.6450000000000102 H52.125 Z"/></g><g id="Semibold-M" transform="matrix(1 0 0 1 1985.97 1126)"><path d="M53.374875 1.3951250000000108 V-28.604874999999993 H23.374875 V-41.85512499999999 H53.374875 V-71.85512499999999 H66.625125 V-41.85512499999999 H96.625125 V-28.604874999999993 H66.625125 V1.3951250000000108 H53.374875 Z"/></g><g id="Medium-M" transform="matrix(1 0 0 1 1689.91 1126)"><path d="M54.3125 0.45750000000001023 V-29.54249999999999 H24.3125 V-40.91749999999999 H54.3125 V-70.91749999999999 H65.6875 V-40.91749999999999 H95.6875 V-29.54249999999999 H65.6875 V0.45750000000001023 H54.3125 Z"/></g><g id="Regular-M" transform="matrix(1 0 0 1 1394.06 1126)"><path d="M55.0 -0.22999999999998977 V-30.22999999999999 H25.0 V-40.22999999999999 H55.0 V-70.22999999999999 H65.0 V-40.22999999999999 H95.0 V-30.22999999999999 H65.0 V-0.22999999999998977 H55.0 Z"/></g><g id="Light-M" transform="matrix(1 0 0 1 1098.18 1126)"><path d="M56.250125 -1.4801249999999904 V-31.480124999999987 H26.250125 V-38.97987499999999 H56.250125 V-68.97987499999999 H63.749875 V-38.97987499999999 H93.749875 V-31.480124999999987 H63.749875 V-1.4801249999999904 H56.250125 Z"/></g><g id="Thin-M" transform="matrix(1 0 0 1 802.565 1126)"><path d="M57.5 -2.7299999999999898 V-32.72999999999999 H27.5 V-37.72999999999999 H57.5 V-67.72999999999999 H62.5 V-37.72999999999999 H92.5 V-32.72999999999999 H62.5 V-2.7299999999999898 H57.5 Z"/></g><g id="Ultralight-M" transform="matrix(1 0 0 1 506.415 1126)"><path d="M58.25 -3.4799999999999898 V-33.47999999999999 H28.25 V-36.97999999999999 H58.25 V-66.97999999999999 H61.75 V-36.97999999999999 H91.75 V-33.47999999999999 H61.75 V-3.4799999999999898 H58.25 Z"/></g><g id="Bold-S" transform="matrix(1 0 0 1 2294.23 696)"><path d="M41.521125000000005 -9.291624999999986 V-29.41112499999999 H21.401625 V-41.04887499999999 H41.521125000000005 V-61.16837499999998 H53.158875 V-41.04887499999999 H73.278375 V-29.41112499999999 H53.158875 V-9.291624999999986 H41.521125000000005 Z"/></g><g id="Semibold-S" transform="matrix(1 0 0 1 1998.1 696)"><path d="M42.507276375000004 -10.277776374999988 V-30.39727637499999 H22.387776375 V-40.06272362499999 H42.507276375000004 V-60.18222362499999 H52.172723625 V-40.06272362499999 H72.292223625 V-30.39727637499999 H52.172723625 V-10.277776374999988 H42.507276375000004 Z"/></g><g id="Medium-S" transform="matrix(1 0 0 1 1701.85 696)"><path d="M43.2470625 -11.017562499999986 V-31.137062499999985 H23.1275625 V-39.32293749999999 H43.2470625 V-59.44243749999998 H51.4329375 V-39.32293749999999 H71.5524375 V-31.137062499999985 H51.4329375 V-11.017562499999986 H43.2470625 Z"/></g><g id="Regular-S" transform="matrix(1 0 0 1 1405.73 696)"><path d="M43.789500000000004 -11.559999999999988 V-31.67949999999999 H23.67 V-38.78049999999999 H43.789500000000004 V-58.89999999999999 H50.8905 V-38.78049999999999 H71.01 V-31.67949999999999 H50.8905 V-11.559999999999988 H43.789500000000004 Z"/></g><g id="Light-S" transform="matrix(1 0 0 1 1109.75 696)"><path d="M44.775848625 -12.54634862499999 V-32.66584862499999 H24.656348625000003 V-37.79415137499999 H44.775848625 V-57.913651374999986 H49.904151375000005 V-37.79415137499999 H70.023651375 V-32.66584862499999 H49.904151375000005 V-12.54634862499999 H44.775848625 Z"/></g><g id="Thin-S" transform="matrix(1 0 0 1 814.015 696)"><path d="M45.762 -13.532499999999988 V-33.65199999999999 H25.642500000000002 V-36.807999999999986 H45.762 V-56.927499999999995 H48.918 V-36.807999999999986 H69.03750000000001 V-33.65199999999999 H48.918 V-13.532499999999988 H45.762 Z"/></g><g id="Ultralight-S" transform="matrix(1 0 0 1 517.792 696)"><path d="M46.353750000000005 -14.124249999999986 V-34.24374999999999 H26.23425 V-36.21624999999999 H46.353750000000005 V-56.33574999999999 H48.32625 V-36.21624999999999 H68.44575 V-34.24374999999999 H48.32625 V-14.124249999999986 H46.353750000000005 Z"/></g></g></svg>