<svg xmlns="http://www.w3.org/2000/svg" version="1.1" width="3300" height="2000"><g id="Notes"><style>
    text {
      font-family: monospace;
      text-anchor: middle;
    }
    text.emphasis {
      font-weight:bold;
    }
    text.lanchor {
      text-anchor: start;
    }
  </style><rect height="2200" id="artboard" fill="white" width="3300" x="0" y="0"/><line id="" style="fill:none;stroke:black;stroke-width:0.5;" x1="263" x2="3036" y1="292" y2="292"/><text class="lanchor emphasis" transform="matrix(1 0 0 1 263 322)">Weight/Scale Variations</text><text transform="matrix(1 0 0 1 559.711 322)">Ultralight</text><text transform="matrix(1 0 0 1 856.422 322)">Thin</text><text transform="matrix(1 0 0 1 1153.13 322)">Light</text><text transform="matrix(1 0 0 1 1449.84 322)">Regular</text><text transform="matrix(1 0 0 1 1746.56 322)">Medium</text><text transform="matrix(1 0 0 1 2043.27 322)">Semibold</text><text transform="matrix(1 0 0 1 2339.98 322)">Bold</text><text transform="matrix(1 0 0 1 2636.69 322)">Heavy</text><text transform="matrix(1 0 0 1 2933.4 322)">Black</text><text id="template-version" style="text-anchor: end;" transform="matrix(1 0 0 1 3036 1933)">Template v.1.0</text><text class="lanchor" transform="matrix(1 0 0 1 263 726)">Small</text><text class="lanchor" transform="matrix(1 0 0 1 263 1156)">Medium</text><text class="lanchor" transform="matrix(1 0 0 1 263 1586)">Large</text></g><g id="Guides"><g id="H-reference" style="fill:#27AAE1;stroke:none;" transform="matrix(1 0 0 1 339 696)"><path d="M 54.9316 0 L 57.666 0 L 30.5664 -70.459 L 28.0762 -70.459 L 0.976562 0 L 3.66211 0 L 12.9395 -24.4629 L 45.7031 -24.4629 Z M 29.1992 -67.0898 L 29.4434 -67.0898 L 44.8242 -26.709 L 13.8184 -26.709 Z"/></g><line id="Baseline-S" style="fill:none;stroke:#27AAE1;opacity:1;stroke-width:0.577;" x1="263" x2="3036" y1="696" y2="696"/><line id="Capline-S" style="fill:none;stroke:#27AAE1;opacity:1;stroke-width:0.577;" x1="263" x2="3036" y1="625.541" y2="625.541"/><g id="H-reference" style="fill:#27AAE1;stroke:none;" transform="matrix(1 0 0 1 339 1126)"><path d="M 54.9316 0 L 57.666 0 L 30.5664 -70.459 L 28.0762 -70.459 L 0.976562 0 L 3.66211 0 L 12.9395 -24.4629 L 45.7031 -24.4629 Z M 29.1992 -67.0898 L 29.4434 -67.0898 L 44.8242 -26.709 L 13.8184 -26.709 Z"/></g><line id="Baseline-M" style="fill:none;stroke:#27AAE1;opacity:1;stroke-width:0.577;" x1="263" x2="3036" y1="1126" y2="1126"/><line id="Capline-M" style="fill:none;stroke:#27AAE1;opacity:1;stroke-width:0.577;" x1="263" x2="3036" y1="1055.54" y2="1055.54"/><g id="H-reference" style="fill:#27AAE1;stroke:none;" transform="matrix(1 0 0 1 339 1556)"><path d="M 54.9316 0 L 57.666 0 L 30.5664 -70.459 L 28.0762 -70.459 L 0.976562 0 L 3.66211 0 L 12.9395 -24.4629 L 45.7031 -24.4629 Z M 29.1992 -67.0898 L 29.4434 -67.0898 L 44.8242 -26.709 L 13.8184 -26.709 Z"/></g><line id="Baseline-L" style="fill:none;stroke:#27AAE1;opacity:1;stroke-width:0.577;" x1="263" x2="3036" y1="1556" y2="1556"/><line id="Capline-L" style="fill:none;stroke:#27AAE1;opacity:1;stroke-width:0.577;" x1="263" x2="3036" y1="1485.54" y2="1485.54"/><rect height="119.336" id="left-margin" style="fill:darkred;stroke:none;opacity:0.4;" width="12.4512" x="1394.06" y="1030.79"/><rect height="119.336" id="right-margin" style="fill:darkgreen;stroke:none;opacity:0.4;" width="12.4512" x="1502.5112" y="1030.79"/><rect x="1406.5112" y="1045" width="96" height="96" fill="none" stroke="blue" stroke-dasharray="5"/><rect x="1394.06" y="1030.79" width="120.9024" height="119.336" fill="none" stroke="blue"/></g><g id="Symbols"><g id="Bold-L" transform="matrix(1 0 0 1 2266 1556)"><path d="M36.92625 33.30125000000002 Q30.629437499999998 33.30125000000002 26.19909375 28.87090625000002 Q21.76875 24.440562500000016 21.76875 18.143750000000015 V-88.60374999999999 Q21.76875 -94.96715874999998 26.19909375 -99.44474874999997 Q30.629437499999998 -103.92249999999999 36.92625 -103.92249999999999 H117.87375 Q124.23715874999999 -103.92249999999999 128.71474875 -99.44474874999997 Q133.1925 -94.96715874999998 133.1925 -88.60374999999999 V18.143750000000015 Q133.1925 24.440562500000016 128.71474875 28.87090625000002 Q124.23715874999999 33.30125000000002 117.87375 33.30125000000002 H36.92625 Z M36.92625 18.143750000000015 H117.87375 Q117.87375 18.143750000000015 117.87375 18.143750000000015 Q117.87375 18.143750000000015 117.87375 18.143750000000015 V-88.60374999999999 Q117.87375 -88.60374999999999 117.87375 -88.60374999999999 Q117.87375 -88.60374999999999 117.87375 -88.60374999999999 H109.9725 V-45.71124999999999 L94.33125 -54.741249999999994 L78.69 -45.71124999999999 V-88.60374999999999 H36.92625 Q36.92625 -88.60374999999999 36.92625 -88.60374999999999 Q36.92625 -88.60374999999999 36.92625 -88.60374999999999 V18.143750000000015 Q36.92625 18.143750000000015 36.92625 18.143750000000015 Q36.92625 18.143750000000015 36.92625 18.143750000000015 Z"/></g><g id="Semibold-L" transform="matrix(1 0 0 1 1970.27 1556)"><path d="M36.29527875 31.548623750000015 Q31.053525000000004 31.548623750000015 27.28753125 27.782468750000014 Q23.52137625 24.016475000000014 23.52137625 18.774721250000017 V-89.23472124999998 Q23.52137625 -94.51404624999998 27.28753125 -98.30696874999998 Q31.053525000000004 -102.09973 36.29527875 -102.09973 H118.50472125 Q123.78404625 -102.09973 127.57696874999999 -98.30696874999998 Q131.36973 -94.51404624999998 131.36973 -89.23472124999998 V18.774721250000017 Q131.36973 24.016475000000014 127.57696874999999 27.782468750000014 Q123.78404625 31.548623750000015 118.50472125 31.548623750000015 H36.29527875 Z M36.29527875 18.774721250000017 H118.50472125 Q118.50472125 18.774721250000017 118.50472125 18.774721250000017 Q118.50472125 18.774721250000017 118.50472125 18.774721250000017 V-89.23472124999998 Q118.50472125 -89.23472124999998 118.50472125 -89.23472124999998 Q118.50472125 -89.23472124999998 118.50472125 -89.23472124999998 H109.8322125 V-46.342221249999994 L94.1909625 -55.372221249999996 L78.5497125 -46.342221249999994 V-89.23472124999998 H36.29527875 Q36.29527875 -89.23472124999998 36.29527875 -89.23472124999998 Q36.29527875 -89.23472124999998 36.29527875 -89.23472124999998 V18.774721250000017 Q36.29527875 18.774721250000017 36.29527875 18.774721250000017 Q36.29527875 18.774721250000017 36.29527875 18.774721250000017 Z"/></g><g id="Medium-L" transform="matrix(1 0 0 1 1674.31 1556)"><path d="M35.82201 30.233952500000015 Q31.371671250000002 30.233952500000015 28.10377875 26.966221250000014 Q24.8360475 23.698328750000016 24.8360475 19.247990000000016 V-89.70798999999997 Q24.8360475 -94.17413124999999 28.10377875 -97.45331124999998 Q31.371671250000002 -100.73265249999997 35.82201 -100.73265249999997 H118.97798999999999 Q123.44413125 -100.73265249999997 126.72331125 -97.45331124999998 Q130.0026525 -94.17413124999999 130.0026525 -89.70798999999997 V19.247990000000016 Q130.0026525 23.698328750000016 126.72331125 26.966221250000014 Q123.44413125 30.233952500000015 118.97798999999999 30.233952500000015 H35.82201 Z M35.82201 19.247990000000016 H118.97798999999999 Q118.97798999999999 19.247990000000016 118.97798999999999 19.247990000000016 Q118.97798999999999 19.247990000000016 118.97798999999999 19.247990000000016 V-89.70798999999997 Q118.97798999999999 -89.70798999999997 118.97798999999999 -89.70798999999997 Q118.97798999999999 -89.70798999999997 118.97798999999999 -89.70798999999997 H109.7270775 V-46.81548999999998 L94.0858275 -55.845489999999984 L78.44457750000001 -46.81548999999998 V-89.70798999999997 H35.82201 Q35.82201 -89.70798999999997 35.82201 -89.70798999999997 Q35.82201 -89.70798999999997 35.82201 -89.70798999999997 V19.247990000000016 Q35.82201 19.247990000000016 35.82201 19.247990000000016 Q35.82201 19.247990000000016 35.82201 19.247990000000016 Z"/></g><g id="Regular-L" transform="matrix(1 0 0 1 1378.56 1556)"><path d="M35.475 29.270000000000017 Q31.605 29.270000000000017 28.7025 26.367500000000014 Q25.8 23.465000000000014 25.8 19.595000000000017 V-90.05499999999998 Q25.8 -93.92499999999998 28.7025 -96.82749999999999 Q31.605 -99.72999999999999 35.475 -99.72999999999999 H119.325 Q123.19500000000001 -99.72999999999999 126.0975 -96.82749999999999 Q129.0 -93.92499999999998 129.0 -90.05499999999998 V19.595000000000017 Q129.0 23.465000000000014 126.0975 26.367500000000014 Q123.19500000000001 29.270000000000017 119.325 29.270000000000017 H35.475 Z M35.475 19.595000000000017 H119.325 Q119.325 19.595000000000017 119.325 19.595000000000017 Q119.325 19.595000000000017 119.325 19.595000000000017 V-90.05499999999998 Q119.325 -90.05499999999998 119.325 -90.05499999999998 Q119.325 -90.05499999999998 119.325 -90.05499999999998 H109.65 V-47.16249999999998 L94.00875 -56.19249999999998 L78.3675 -47.16249999999998 V-90.05499999999998 H35.475 Q35.475 -90.05499999999998 35.475 -90.05499999999998 Q35.475 -90.05499999999998 35.475 -90.05499999999998 V19.595000000000017 Q35.475 19.595000000000017 35.475 19.595000000000017 Q35.475 19.595000000000017 35.475 19.595000000000017 Z"/></g><g id="Light-L" transform="matrix(1 0 0 1 1082.77 1556)"><path d="M38.328157499999996 26.044838750000014 Q34.53410625 26.044838750000014 31.779633750000002 23.290366250000016 Q29.02516125 20.535893750000017 29.02516125 16.74184250000002 V-87.2018425 Q29.02516125 -90.99589375 31.779633750000002 -93.75036624999998 Q34.53410625 -96.50483875 38.328157499999996 -96.50483875 H116.47184250000001 Q120.26589375 -96.50483875 123.02036625000001 -93.75036624999998 Q125.77483875 -90.99589375 125.77483875 -87.2018425 V16.74184250000002 Q125.77483875 20.535893750000017 123.02036625000001 23.290366250000016 Q120.26589375 26.044838750000014 116.47184250000001 26.044838750000014 H38.328157499999996 Z M38.328157499999996 18.726668750000016 H116.47184250000001 Q117.21617250000001 18.726668750000016 117.83650125 18.106501250000015 Q118.45666875 17.486172500000016 118.45666875 16.74184250000002 V-87.2018425 Q118.45666875 -87.94617249999999 117.83650125 -88.56650124999999 Q117.21617250000001 -89.18666875 116.47184250000001 -89.18666875 H107.91333750000001 V-48.52699749999998 L93.76058625 -56.75074749999999 L79.60799625 -48.52699749999998 V-89.18666875 H38.328157499999996 Q37.5838275 -89.18666875 36.96349875 -88.56650124999999 Q36.34333125 -87.94617249999999 36.34333125 -87.2018425 V16.74184250000002 Q36.34333125 17.486172500000016 36.96349875 18.106501250000015 Q37.5838275 18.726668750000016 38.328157499999996 18.726668750000016 Z"/></g><g id="Thin-L" transform="matrix(1 0 0 1 787.282 1556)"><path d="M41.18067 22.820000000000014 Q37.462728750000004 22.820000000000014 34.85628375 20.213716250000015 Q32.25 17.607271250000014 32.25 13.889330000000019 V-84.34932999999998 Q32.25 -88.06727124999998 34.85628375 -90.67371624999998 Q37.462728750000004 -93.28 41.18067 -93.28 H113.61933 Q117.33727125 -93.28 119.94371625000001 -90.67371624999998 Q122.55 -88.06727124999998 122.55 -84.34932999999998 V13.889330000000019 Q122.55 17.607271250000014 119.94371625000001 20.213716250000015 Q117.33727125 22.820000000000014 113.61933 22.820000000000014 H41.18067 Z M41.18067 17.858498750000013 H113.61933 Q115.1076675 17.858498750000013 116.34816375 16.61816375000001 Q117.58849875 15.377667500000015 117.58849875 13.889330000000019 V-84.34932999999998 Q117.58849875 -85.83766749999998 116.34816375 -87.07816374999999 Q115.1076675 -88.31849874999997 113.61933 -88.31849874999997 H106.1769975 V-49.89133374999999 L93.51258375 -57.30883374999999 L80.84833125 -49.89133374999999 V-88.31849874999997 H41.18067 Q39.6923325 -88.31849874999997 38.45183625000001 -87.07816374999999 Q37.211501250000005 -85.83766749999998 37.211501250000005 -84.34932999999998 V13.889330000000019 Q37.211501250000005 15.377667500000015 38.45183625000001 16.61816375000001 Q39.6923325 17.858498750000013 41.18067 17.858498750000013 Z"/></g><g id="Ultralight-L" transform="matrix(1 0 0 1 491.205 1556)"><path d="M42.8925 20.885000000000016 Q39.22003125 20.885000000000016 36.70259625 18.367403750000015 Q34.185 15.849968750000016 34.185 12.177500000000016 V-82.63749999999999 Q34.185 -86.30996875 36.70259625 -88.82756499999999 Q39.22003125 -91.345 42.8925 -91.345 H111.9075 Q115.57996875 -91.345 118.097565 -88.82756499999999 Q120.61500000000001 -86.30996875 120.61500000000001 -82.63749999999999 V12.177500000000016 Q120.61500000000001 15.849968750000016 118.097565 18.367403750000015 Q115.57996875 20.885000000000016 111.9075 20.885000000000016 H42.8925 Z M42.8925 17.337500000000016 H111.9075 Q113.8425 17.337500000000016 115.455 15.725000000000016 Q117.06750000000001 14.112500000000015 117.06750000000001 12.177500000000016 V-82.63749999999999 Q117.06750000000001 -84.57249999999999 115.455 -86.18499999999997 Q113.8425 -87.79749999999999 111.9075 -87.79749999999999 H105.135 V-50.70999999999998 L93.36375 -57.64374999999998 L81.5925 -50.70999999999998 V-87.79749999999999 H42.8925 Q40.9575 -87.79749999999999 39.345 -86.18499999999997 Q37.7325 -84.57249999999999 37.7325 -82.63749999999999 V12.177500000000016 Q37.7325 14.112500000000015 39.345 15.725000000000016 Q40.9575 17.337500000000016 42.8925 17.337500000000016 Z"/></g><g id="Bold-M" transform="matrix(1 0 0 1 2281.8 1126)"><path d="M31.5 19.02000000000001 Q24.875 19.02000000000001 20.3125 14.45750000000001 Q15.75 9.89500000000001 15.75 3.2700000000000102 V-73.72999999999999 Q15.75 -80.35499999999999 20.3125 -84.91749999999999 Q24.875 -89.47999999999999 31.5 -89.47999999999999 H88.5 Q95.125 -89.47999999999999 99.6875 -84.91749999999999 Q104.25 -80.35499999999999 104.25 -73.72999999999999 V3.2700000000000102 Q104.25 9.89500000000001 99.6875 14.45750000000001 Q95.125 19.02000000000001 88.5 19.02000000000001 H31.5 Z M31.5 3.2700000000000102 H88.5 Q88.5 3.2700000000000102 88.5 3.2700000000000102 Q88.5 3.2700000000000102 88.5 3.2700000000000102 V-73.72999999999999 Q88.5 -73.72999999999999 88.5 -73.72999999999999 Q88.5 -73.72999999999999 88.5 -73.72999999999999 H80.375 V-38.72999999999999 L67.875 -46.22999999999999 L55.375 -38.72999999999999 V-73.72999999999999 H31.5 Q31.5 -73.72999999999999 31.5 -73.72999999999999 Q31.5 -73.72999999999999 31.5 -73.72999999999999 V3.2700000000000102 Q31.5 3.2700000000000102 31.5 3.2700000000000102 Q31.5 3.2700000000000102 31.5 3.2700000000000102 Z"/></g><g id="Semibold-M" transform="matrix(1 0 0 1 1985.97 1126)"><path d="M30.847875 17.172250000000012 Q25.30975 17.172250000000012 21.45375 13.31625000000001 Q17.59775 9.460250000000011 17.59775 3.922125000000012 V-74.38212499999999 Q17.59775 -79.92025 21.45375 -83.77624999999999 Q25.30975 -87.63224999999998 30.847875 -87.63224999999998 H89.152125 Q94.69025 -87.63224999999998 98.54625 -83.77624999999999 Q102.40225 -79.92025 102.40225 -74.38212499999999 V3.922125000000012 Q102.40225 9.460250000000011 98.54625 13.31625000000001 Q94.69025 17.172250000000012 89.152125 17.172250000000012 H30.847875 Z M30.847875 3.922125000000012 H89.152125 Q89.152125 3.922125000000012 89.152125 3.922125000000012 Q89.152125 3.922125000000012 89.152125 3.922125000000012 V-74.38212499999999 Q89.152125 -74.38212499999999 89.152125 -74.38212499999999 Q89.152125 -74.38212499999999 89.152125 -74.38212499999999 H80.212 V-39.38212499999999 L67.712 -46.88212499999999 L55.212 -39.38212499999999 V-74.38212499999999 H30.847875 Q30.847875 -74.38212499999999 30.847875 -74.38212499999999 Q30.847875 -74.38212499999999 30.847875 -74.38212499999999 V3.922125000000012 Q30.847875 3.922125000000012 30.847875 3.922125000000012 Q30.847875 3.922125000000012 30.847875 3.922125000000012 Z"/></g><g id="Medium-M" transform="matrix(1 0 0 1 1689.91 1126)"><path d="M30.35875 15.78637500000001 Q25.635875 15.78637500000001 22.30975 12.460250000000011 Q18.983625 9.13412500000001 18.983625 4.41125000000001 V-74.87124999999999 Q18.983625 -79.59412499999999 22.30975 -82.92025 Q25.635875 -86.24637499999999 30.35875 -86.24637499999999 H89.64125 Q94.364125 -86.24637499999999 97.69025 -82.92025 Q101.016375 -79.59412499999999 101.016375 -74.87124999999999 V4.41125000000001 Q101.016375 9.13412500000001 97.69025 12.460250000000011 Q94.364125 15.78637500000001 89.64125 15.78637500000001 H30.35875 Z M30.35875 4.41125000000001 H89.64125 Q89.64125 4.41125000000001 89.64125 4.41125000000001 Q89.64125 4.41125000000001 89.64125 4.41125000000001 V-74.87124999999999 Q89.64125 -74.87124999999999 89.64125 -74.87124999999999 Q89.64125 -74.87124999999999 89.64125 -74.87124999999999 H80.089625 V-39.87124999999999 L67.589625 -47.37124999999999 L55.089625 -39.87124999999999 V-74.87124999999999 H30.35875 Q30.35875 -74.87124999999999 30.35875 -74.87124999999999 Q30.35875 -74.87124999999999 30.35875 -74.87124999999999 V4.41125000000001 Q30.35875 4.41125000000001 30.35875 4.41125000000001 Q30.35875 4.41125000000001 30.35875 4.41125000000001 Z"/></g><g id="Regular-M" transform="matrix(1 0 0 1 1394.06 1126)"><path d="M30.0 14.77000000000001 Q25.875 14.77000000000001 22.9375 11.83250000000001 Q20.0 8.89500000000001 20.0 4.77000000000001 V-75.22999999999999 Q20.0 -79.35499999999999 22.9375 -82.29249999999999 Q25.875 -85.22999999999999 30.0 -85.22999999999999 H90.0 Q94.125 -85.22999999999999 97.0625 -82.29249999999999 Q100.0 -79.35499999999999 100.0 -75.22999999999999 V4.77000000000001 Q100.0 8.89500000000001 97.0625 11.83250000000001 Q94.125 14.77000000000001 90.0 14.77000000000001 H30.0 Z M30.0 4.77000000000001 H90.0 Q90.0 4.77000000000001 90.0 4.77000000000001 Q90.0 4.77000000000001 90.0 4.77000000000001 V-75.22999999999999 Q90.0 -75.22999999999999 90.0 -75.22999999999999 Q90.0 -75.22999999999999 90.0 -75.22999999999999 H80.0 V-40.22999999999999 L67.5 -47.72999999999999 L55.0 -40.22999999999999 V-75.22999999999999 H30.0 Q30.0 -75.22999999999999 30.0 -75.22999999999999 Q30.0 -75.22999999999999 30.0 -75.22999999999999 V4.77000000000001 Q30.0 4.77000000000001 30.0 4.77000000000001 Q30.0 4.77000000000001 30.0 4.77000000000001 Z"/></g><g id="Light-M" transform="matrix(1 0 0 1 1098.18 1126)"><path d="M31.538625 12.26987500000001 Q27.750125 12.26987500000001 25.125125 9.64487500000001 Q22.500125 7.01987500000001 22.500125 3.2313750000000105 V-73.691375 Q22.500125 -77.47987499999999 25.125125 -80.10487499999999 Q27.750125 -82.72987499999999 31.538625 -82.72987499999999 H88.461375 Q92.249875 -82.72987499999999 94.874875 -80.10487499999999 Q97.499875 -77.47987499999999 97.499875 -73.691375 V3.2313750000000105 Q97.499875 7.01987500000001 94.874875 9.64487500000001 Q92.249875 12.26987500000001 88.461375 12.26987500000001 H31.538625 Z M31.538625 4.77000000000001 H88.461375 Q89.038375 4.77000000000001 89.51925 4.28925000000001 Q90.0 3.8083750000000087 90.0 3.2313750000000105 V-73.691375 Q90.0 -74.26837499999999 89.51925 -74.74924999999999 Q89.038375 -75.22999999999999 88.461375 -75.22999999999999 H80.0 V-42.441749999999985 L68.750125 -49.17237499999999 L57.500125 -42.441749999999985 V-75.22999999999999 H31.538625 Q30.961625 -75.22999999999999 30.48075 -74.74924999999999 Q30.0 -74.26837499999999 30.0 -73.691375 V3.2313750000000105 Q30.0 3.8083750000000087 30.48075 4.28925000000001 Q30.961625 4.77000000000001 31.538625 4.77000000000001 Z"/></g><g id="Thin-M" transform="matrix(1 0 0 1 802.565 1126)"><path d="M33.076875 9.77000000000001 Q29.625 9.77000000000001 27.3125 7.45750000000001 Q25.0 5.14500000000001 25.0 1.693125000000009 V-72.15312499999999 Q25.0 -75.60499999999999 27.3125 -77.91749999999999 Q29.625 -80.22999999999999 33.076875 -80.22999999999999 H86.923125 Q90.375 -80.22999999999999 92.6875 -77.91749999999999 Q95.0 -75.60499999999999 95.0 -72.15312499999999 V1.693125000000009 Q95.0 5.14500000000001 92.6875 7.45750000000001 Q90.375 9.77000000000001 86.923125 9.77000000000001 H33.076875 Z M33.076875 4.77000000000001 H86.923125 Q88.076875 4.77000000000001 89.0385 3.8085000000000093 Q90.0 2.8468750000000114 90.0 1.693125000000009 V-72.15312499999999 Q90.0 -73.30687499999999 89.0385 -74.26849999999999 Q88.076875 -75.22999999999999 86.923125 -75.22999999999999 H80.0 V-44.65299999999999 L70.0 -50.61462499999999 L60.0 -44.65299999999999 V-75.22999999999999 H33.076875 Q31.923125 -75.22999999999999 30.9615 -74.26849999999999 Q30.0 -73.30687499999999 30.0 -72.15312499999999 V1.693125000000009 Q30.0 2.8468750000000114 30.9615 3.8085000000000093 Q31.923125 4.77000000000001 33.076875 4.77000000000001 Z"/></g><g id="Ultralight-M" transform="matrix(1 0 0 1 506.415 1126)"><path d="M34.0 8.27000000000001 Q30.75 8.27000000000001 28.625 6.14500000000001 Q26.5 4.02000000000001 26.5 0.7700000000000102 V-71.22999999999999 Q26.5 -74.47999999999999 28.625 -76.60499999999999 Q30.75 -78.72999999999999 34.0 -78.72999999999999 H86.0 Q89.25 -78.72999999999999 91.375 -76.60499999999999 Q93.5 -74.47999999999999 93.5 -71.22999999999999 V0.7700000000000102 Q93.5 4.02000000000001 91.375 6.14500000000001 Q89.25 8.27000000000001 86.0 8.27000000000001 H34.0 Z M34.0 4.77000000000001 H86.0 Q87.5 4.77000000000001 88.75 3.5200000000000102 Q90.0 2.2700000000000102 90.0 0.7700000000000102 V-71.22999999999999 Q90.0 -72.72999999999999 88.75 -73.97999999999999 Q87.5 -75.22999999999999 86.0 -75.22999999999999 H80.0 V-45.97999999999999 L70.75 -51.47999999999999 L61.5 -45.97999999999999 V-75.22999999999999 H34.0 Q32.5 -75.22999999999999 31.25 -73.97999999999999 Q30.0 -72.72999999999999 30.0 -71.22999999999999 V0.7700000000000102 Q30.0 2.2700000000000102 31.25 3.5200000000000102 Q32.5 4.77000000000001 34.0 4.77000000000001 Z"/></g><g id="Bold-S" transform="matrix(1 0 0 1 2294.23 696)"><path d="M27.192589125 5.995250000000014 Q22.289250000000003 5.995250000000014 18.936 2.627206250000013 Q15.58275 -0.7408374999999872 15.58275 -5.642499999999988 V-64.8175 Q15.58275 -69.7191625 18.951977250000002 -73.08720625 Q22.321204500000004 -76.45524999999999 27.224445000000003 -76.45524999999999 H67.48741087500001 Q72.39075 -76.45524999999999 75.744 -73.08720625 Q79.09725 -69.7191625 79.09725 -64.8175 V-5.642499999999988 Q79.09725 -0.7408374999999872 75.72802275 2.627206250000013 Q72.35879550000001 5.995250000000014 67.455555 5.995250000000014 H27.192589125 Z M27.2205 -5.642499999999988 H67.4595 Q67.4595 -5.642499999999988 67.4595 -5.642499999999988 Q67.4595 -5.642499999999988 67.4595 -5.642499999999988 V-64.8175 Q67.4595 -64.8175 67.4595 -64.8175 Q67.4595 -64.8175 67.4595 -64.8175 H61.837875000000004 V-34.04649999999999 L52.369875 -38.78049999999999 L42.901875000000004 -34.04649999999999 V-64.8175 H27.2205 Q27.2205 -64.8175 27.2205 -64.8175 Q27.2205 -64.8175 27.2205 -64.8175 V-5.642499999999988 Q27.2205 -5.642499999999988 27.2205 -5.642499999999988 Q27.2205 -5.642499999999988 27.2205 -5.642499999999988 Z"/></g><g id="Semibold-S" transform="matrix(1 0 0 1 1998.1 696)"><path d="M26.678062500000003 4.5373752500000135 Q22.63226775 4.5373752500000135 19.83644625 1.726760000000013 Q17.040624750000003 -1.0838552499999867 17.040624750000003 -5.127973374999986 V-65.33202662499998 Q17.040624750000003 -69.37614475 19.8524235 -72.18675999999999 Q22.66422225 -74.99737524999999 26.709918375 -74.99737524999999 H68.0019375 Q72.04773225000001 -74.99737524999999 74.84355375 -72.18675999999999 Q77.63937525 -69.37614475 77.63937525 -65.33202662499998 V-5.127973374999986 Q77.63937525 -1.0838552499999867 74.8275765 1.726760000000013 Q72.01577775 4.5373752500000135 67.970081625 4.5373752500000135 H26.678062500000003 Z M26.705973375000003 -5.127973374999986 H67.97402662500001 Q67.97402662500001 -5.127973374999986 67.97402662500001 -5.127973374999986 Q67.97402662500001 -5.127973374999986 67.97402662500001 -5.127973374999986 V-65.33202662499998 Q67.97402662500001 -65.33202662499998 67.97402662500001 -65.33202662499998 Q67.97402662500001 -65.33202662499998 67.97402662500001 -65.33202662499998 H61.70926800000001 V-34.56102662499999 L52.241268000000005 -39.295026624999984 L42.773268 -34.56102662499999 V-65.33202662499998 H26.705973375000003 Q26.705973375000003 -65.33202662499998 26.705973375000003 -65.33202662499998 Q26.705973375000003 -65.33202662499998 26.705973375000003 -65.33202662499998 V-5.127973374999986 Q26.705973375000003 -5.127973374999986 26.705973375000003 -5.127973374999986 Q26.705973375000003 -5.127973374999986 26.705973375000003 -5.127973374999986 Z"/></g><g id="Medium-S" transform="matrix(1 0 0 1 1701.85 696)"><path d="M26.292044250000004 3.443919875000013 Q22.889580375 3.443919875000013 20.511830250000003 1.0513760000000136 Q18.134080125 -1.3411678749999876 18.134080125 -4.742053749999986 V-65.71794624999998 Q18.134080125 -69.118832125 20.527807499999998 -71.51137599999998 Q22.921534875000003 -73.90391987499999 26.323998750000005 -73.90391987499999 H68.38795575 Q71.790419625 -73.90391987499999 74.16816975 -71.51137599999998 Q76.545919875 -69.118832125 76.545919875 -65.71794624999998 V-4.742053749999986 Q76.545919875 -1.3411678749999876 74.1521925 1.0513760000000136 Q71.75846512500001 3.443919875000013 68.35600125 3.443919875000013 H26.292044250000004 Z M26.320053750000003 -4.742053749999986 H68.35994625000001 Q68.35994625000001 -4.742053749999986 68.35994625000001 -4.742053749999986 Q68.35994625000001 -4.742053749999986 68.35994625000001 -4.742053749999986 V-65.71794624999998 Q68.35994625000001 -65.71794624999998 68.35994625000001 -65.71794624999998 Q68.35994625000001 -65.71794624999998 68.35994625000001 -65.71794624999998 H61.612714125000004 V-34.94694624999999 L52.144714125 -39.68094624999999 L42.676714125000004 -34.94694624999999 V-65.71794624999998 H26.320053750000003 Q26.320053750000003 -65.71794624999998 26.320053750000003 -65.71794624999998 Q26.320053750000003 -65.71794624999998 26.320053750000003 -65.71794624999998 V-4.742053749999986 Q26.320053750000003 -4.742053749999986 26.320053750000003 -4.742053749999986 Q26.320053750000003 -4.742053749999986 26.320053750000003 -4.742053749999986 Z"/></g><g id="Regular-S" transform="matrix(1 0 0 1 1405.73 696)"><path d="M26.009089125 2.6420000000000137 Q23.07825 2.6420000000000137 21.007125000000002 0.5560812500000125 Q18.936 -1.5298374999999886 18.936 -4.458999999999985 V-66.00099999999999 Q18.936 -68.9301625 21.02310225 -71.01608125 Q23.110204500000002 -73.10199999999999 26.040945000000004 -73.10199999999999 H68.670910875 Q71.60175000000001 -73.10199999999999 73.672875 -71.01608125 Q75.744 -68.9301625 75.744 -66.00099999999999 V-4.458999999999985 Q75.744 -1.5298374999999886 73.65689775 0.5560812500000125 Q71.56979550000001 2.6420000000000137 68.63905500000001 2.6420000000000137 H26.009089125 Z M26.037000000000003 -4.458999999999985 H68.643 Q68.643 -4.458999999999985 68.643 -4.458999999999985 Q68.643 -4.458999999999985 68.643 -4.458999999999985 V-66.00099999999999 Q68.643 -66.00099999999999 68.643 -66.00099999999999 Q68.643 -66.00099999999999 68.643 -66.00099999999999 H61.542 V-35.22999999999999 L52.074000000000005 -39.96399999999999 L42.606 -35.22999999999999 V-66.00099999999999 H26.037000000000003 Q26.037000000000003 -66.00099999999999 26.037000000000003 -66.00099999999999 Q26.037000000000003 -66.00099999999999 26.037000000000003 -66.00099999999999 V-4.458999999999985 Q26.037000000000003 -4.458999999999985 26.037000000000003 -4.458999999999985 Q26.037000000000003 -4.458999999999985 26.037000000000003 -4.458999999999985 Z"/></g><g id="Light-S" transform="matrix(1 0 0 1 1109.75 696)"><path d="M27.222965625 0.6694013750000121 Q24.557723625 0.6694013750000121 22.733161125000002 -1.1699548749999877 Q20.908598625 -3.0093111249999858 20.908598625 -5.6729751249999865 V-64.78702487499999 Q20.908598625 -67.45068887499998 22.749138375 -69.29004512499999 Q24.589678125 -71.12940137499999 27.254920125 -71.12940137499999 H67.457034375 Q70.122276375 -71.12940137499999 71.94683887500001 -69.29004512499999 Q73.77140137500001 -67.45068887499998 73.77140137500001 -64.78702487499999 V-5.6729751249999865 Q73.77140137500001 -3.0093111249999858 71.930861625 -1.1699548749999877 Q70.090321875 0.6694013750000121 67.425079875 0.6694013750000121 H27.222965625 Z M27.250975125000004 -4.458999999999985 H67.42902487500001 Q67.88427787500001 -4.458999999999985 68.26368825 -4.838311749999988 Q68.643 -5.217722124999987 68.643 -5.6729751249999865 V-64.78702487499999 Q68.643 -65.24227787499998 68.26368825 -65.62168824999999 Q67.88427787500001 -66.00099999999999 67.42902487500001 -66.00099999999999 H61.542 V-36.97507074999999 L53.060348625 -41.10203387499999 L44.578598625 -36.97507074999999 V-66.00099999999999 H27.250975125000004 Q26.795722125 -66.00099999999999 26.416311750000002 -65.62168824999999 Q26.037000000000003 -65.24227787499998 26.037000000000003 -64.78702487499999 V-5.6729751249999865 Q26.037000000000003 -5.217722124999987 26.416311750000002 -4.838311749999988 Q26.795722125 -4.458999999999985 27.250975125000004 -4.458999999999985 Z"/></g><g id="Thin-S" transform="matrix(1 0 0 1 814.015 696)"><path d="M28.436743500000002 -1.3029999999999866 Q26.037000000000003 -1.3029999999999866 24.459 -2.895793749999987 Q22.881 -4.488587499999987 22.881 -6.8866543749999884 V-63.57334562499999 Q22.881 -65.9714125 24.474977250000002 -67.56420625 Q26.068954500000004 -69.157 28.468698000000003 -69.157 H66.2432565 Q68.643 -69.157 70.221 -67.56420625 Q71.799 -65.9714125 71.799 -63.57334562499999 V-6.8866543749999884 Q71.799 -4.488587499999987 70.20502275 -2.895793749999987 Q68.6110455 -1.3029999999999866 66.211302 -1.3029999999999866 H28.436743500000002 Z M28.464654375000002 -4.458999999999985 H66.215345625 Q67.12565437500001 -4.458999999999985 67.8843765 -5.217623499999988 Q68.643 -5.976345624999986 68.643 -6.8866543749999884 V-63.57334562499999 Q68.643 -64.48365437499999 67.8843765 -65.24237649999999 Q67.12565437500001 -66.00099999999999 66.215345625 -66.00099999999999 H61.542 V-38.71974699999999 L54.0465 -42.23996912499999 L46.551 -38.71974699999999 V-66.00099999999999 H28.464654375000002 Q27.554345625 -66.00099999999999 26.7956235 -65.24237649999999 Q26.037000000000003 -64.48365437499999 26.037000000000003 -63.57334562499999 V-6.8866543749999884 Q26.037000000000003 -5.976345624999986 26.7956235 -5.217623499999988 Q27.554345625 -4.458999999999985 28.464654375000002 -4.458999999999985 Z"/></g><g id="Ultralight-S" transform="matrix(1 0 0 1 517.792 696)"><path d="M29.165089125 -2.486499999999987 Q26.924625000000002 -2.486499999999987 25.4945625 -3.931356249999986 Q24.064500000000002 -5.376212499999987 24.064500000000002 -7.614999999999988 V-62.844999999999985 Q24.064500000000002 -65.0837875 25.51053975 -66.52864374999999 Q26.956579500000004 -67.97349999999999 29.196945000000003 -67.97349999999999 H65.514910875 Q67.755375 -67.97349999999999 69.1854375 -66.52864374999999 Q70.6155 -65.0837875 70.6155 -62.844999999999985 V-7.614999999999988 Q70.6155 -5.376212499999987 69.16946025 -3.931356249999986 Q67.7234205 -2.486499999999987 65.48305500000001 -2.486499999999987 H29.165089125 Z M29.193 -4.458999999999985 H65.48700000000001 Q66.6705 -4.458999999999985 67.65675 -5.445249999999987 Q68.643 -6.431499999999986 68.643 -7.614999999999988 V-62.844999999999985 Q68.643 -64.0285 67.65675 -65.01474999999999 Q66.6705 -66.00099999999999 65.48700000000001 -66.00099999999999 H61.542 V-39.76674999999999 L54.63825 -42.922749999999986 L47.734500000000004 -39.76674999999999 V-66.00099999999999 H29.193 Q28.009500000000003 -66.00099999999999 27.02325 -65.01474999999999 Q26.037000000000003 -64.0285 26.037000000000003 -62.844999999999985 V-7.614999999999988 Q26.037000000000003 -6.431499999999986 27.02325 -5.445249999999987 Q28.009500000000003 -4.458999999999985 29.193 -4.458999999999985 Z"/></g></g></svg>