<svg xmlns="http://www.w3.org/2000/svg" version="1.1" width="3300" height="2000"><g id="Notes"><style>
    text {
      font-family: monospace;
      text-anchor: middle;
    }
    text.emphasis {
      font-weight:bold;
    }
    text.lanchor {
      text-anchor: start;
    }
  </style><rect height="2200" id="artboard" fill="white" width="3300" x="0" y="0"/><line id="" style="fill:none;stroke:black;stroke-width:0.5;" x1="263" x2="3036" y1="292" y2="292"/><text class="lanchor emphasis" transform="matrix(1 0 0 1 263 322)">Weight/Scale Variations</text><text transform="matrix(1 0 0 1 559.711 322)">Ultralight</text><text transform="matrix(1 0 0 1 856.422 322)">Thin</text><text transform="matrix(1 0 0 1 1153.13 322)">Light</text><text transform="matrix(1 0 0 1 1449.84 322)">Regular</text><text transform="matrix(1 0 0 1 1746.56 322)">Medium</text><text transform="matrix(1 0 0 1 2043.27 322)">Semibold</text><text transform="matrix(1 0 0 1 2339.98 322)">Bold</text><text transform="matrix(1 0 0 1 2636.69 322)">Heavy</text><text transform="matrix(1 0 0 1 2933.4 322)">Black</text><text id="template-version" style="text-anchor: end;" transform="matrix(1 0 0 1 3036 1933)">Template v.1.0</text><text class="lanchor" transform="matrix(1 0 0 1 263 726)">Small</text><text class="lanchor" transform="matrix(1 0 0 1 263 1156)">Medium</text><text class="lanchor" transform="matrix(1 0 0 1 263 1586)">Large</text></g><g id="Guides"><g id="H-reference" style="fill:#27AAE1;stroke:none;" transform="matrix(1 0 0 1 339 696)"><path d="M 54.9316 0 L 57.666 0 L 30.5664 -70.459 L 28.0762 -70.459 L 0.976562 0 L 3.66211 0 L 12.9395 -24.4629 L 45.7031 -24.4629 Z M 29.1992 -67.0898 L 29.4434 -67.0898 L 44.8242 -26.709 L 13.8184 -26.709 Z"/></g><line id="Baseline-S" style="fill:none;stroke:#27AAE1;opacity:1;stroke-width:0.577;" x1="263" x2="3036" y1="696" y2="696"/><line id="Capline-S" style="fill:none;stroke:#27AAE1;opacity:1;stroke-width:0.577;" x1="263" x2="3036" y1="625.541" y2="625.541"/><g id="H-reference" style="fill:#27AAE1;stroke:none;" transform="matrix(1 0 0 1 339 1126)"><path d="M 54.9316 0 L 57.666 0 L 30.5664 -70.459 L 28.0762 -70.459 L 0.976562 0 L 3.66211 0 L 12.9395 -24.4629 L 45.7031 -24.4629 Z M 29.1992 -67.0898 L 29.4434 -67.0898 L 44.8242 -26.709 L 13.8184 -26.709 Z"/></g><line id="Baseline-M" style="fill:none;stroke:#27AAE1;opacity:1;stroke-width:0.577;" x1="263" x2="3036" y1="1126" y2="1126"/><line id="Capline-M" style="fill:none;stroke:#27AAE1;opacity:1;stroke-width:0.577;" x1="263" x2="3036" y1="1055.54" y2="1055.54"/><g id="H-reference" style="fill:#27AAE1;stroke:none;" transform="matrix(1 0 0 1 339 1556)"><path d="M 54.9316 0 L 57.666 0 L 30.5664 -70.459 L 28.0762 -70.459 L 0.976562 0 L 3.66211 0 L 12.9395 -24.4629 L 45.7031 -24.4629 Z M 29.1992 -67.0898 L 29.4434 -67.0898 L 44.8242 -26.709 L 13.8184 -26.709 Z"/></g><line id="Baseline-L" style="fill:none;stroke:#27AAE1;opacity:1;stroke-width:0.577;" x1="263" x2="3036" y1="1556" y2="1556"/><line id="Capline-L" style="fill:none;stroke:#27AAE1;opacity:1;stroke-width:0.577;" x1="263" x2="3036" y1="1485.54" y2="1485.54"/><rect height="119.336" id="left-margin" style="fill:darkred;stroke:none;opacity:0.4;" width="12.4512" x="1394.06" y="1030.79"/><rect height="119.336" id="right-margin" style="fill:darkgreen;stroke:none;opacity:0.4;" width="12.4512" x="1502.5112" y="1030.79"/><rect x="1406.5112" y="1045" width="96" height="96" fill="none" stroke="blue" stroke-dasharray="5"/><rect x="1394.06" y="1030.79" width="120.9024" height="119.336" fill="none" stroke="blue"/></g><g id="Symbols"><g id="Bold-L" transform="matrix(1 0 0 1 2266 1556)"><path d="M77.4190275 -11.042499999999983 Q88.84875 -11.042499999999983 96.830625 -19.043402499999985 Q104.8125 -27.04414374999999 104.8125 -38.47402749999999 Q104.8125 -49.90374999999999 96.81159749999999 -57.88562499999999 Q88.81085625 -65.86749999999999 77.3809725 -65.86749999999999 Q65.95125 -65.86749999999999 57.969375 -57.86659749999998 Q49.987500000000004 -49.86585624999998 49.987500000000004 -38.43597249999999 Q49.987500000000004 -27.00624999999998 57.9884025 -19.024374999999985 Q65.98914375000001 -11.042499999999983 77.4190275 -11.042499999999983 Z M77.4 -22.97499999999998 Q70.95 -22.97499999999998 66.435 -27.48999999999998 Q61.92 -32.00499999999998 61.92 -38.454999999999984 Q61.92 -44.90499999999999 66.435 -49.41999999999999 Q70.95 -53.93499999999999 77.4 -53.93499999999999 Q83.85000000000001 -53.93499999999999 88.36500000000001 -49.41999999999999 Q92.88 -44.90499999999999 92.88 -38.454999999999984 Q92.88 -32.00499999999998 88.36500000000001 -27.48999999999998 Q83.85000000000001 -22.97499999999998 77.4 -22.97499999999998 Z M77.4 13.628750000000014 Q52.5675 13.628750000000014 32.5725 -0.8837499999999849 Q12.5775 -15.396249999999988 2.74125 -38.454999999999984 Q12.5775 -61.51374999999999 32.5725 -76.02624999999999 Q52.5675 -90.53875 77.4 -90.53875 Q102.2325 -90.53875 122.2275 -76.02624999999999 Q142.2225 -61.51374999999999 152.05875 -38.454999999999984 Q142.2225 -15.396249999999988 122.2275 -0.8837499999999849 Q102.2325 13.628750000000014 77.4 13.628750000000014 Z M77.3871 0.24500000000001165 Q96.81030750000001 0.24500000000001165 113.06640375 -10.316874999999989 Q129.3225 -20.878749999999982 137.86875 -38.454999999999984 Q129.3225 -56.031249999999986 113.07930375000001 -66.59312499999999 Q96.83594625 -77.15499999999999 77.4129 -77.15499999999999 Q57.9896925 -77.15499999999999 41.73359625 -66.59312499999999 Q25.4775 -56.031249999999986 16.77 -38.454999999999984 Q25.4775 -20.878749999999982 41.72069625 -10.316874999999989 Q57.96405375 0.24500000000001165 77.3871 0.24500000000001165 Z"/></g><g id="Semibold-L" transform="matrix(1 0 0 1 1970.27 1556)"><path d="M77.4190275 -11.042499999999983 Q88.84875 -11.042499999999983 96.830625 -19.043402499999985 Q104.8125 -27.04414374999999 104.8125 -38.47402749999999 Q104.8125 -49.90374999999999 96.81159749999999 -57.88562499999999 Q88.81085625 -65.86749999999999 77.3809725 -65.86749999999999 Q65.95125 -65.86749999999999 57.969375 -57.86659749999998 Q49.987500000000004 -49.86585624999998 49.987500000000004 -38.43597249999999 Q49.987500000000004 -27.00624999999998 57.9884025 -19.024374999999985 Q65.98914375000001 -11.042499999999983 77.4190275 -11.042499999999983 Z M77.38355250000001 -21.853344999999976 Q70.45931625 -21.853344999999976 65.62875 -26.700358749999992 Q60.798345 -31.54721124999999 60.798345 -38.47144749999998 Q60.798345 -45.39568374999999 65.64535875 -50.22624999999999 Q70.49221125 -55.05665499999999 77.4164475 -55.05665499999999 Q84.34068375 -55.05665499999999 89.17125 -50.20964124999999 Q94.001655 -45.36278874999999 94.001655 -38.438552499999986 Q94.001655 -31.51431624999998 89.15464125000001 -26.68374999999999 Q84.30778875000001 -21.853344999999976 77.38355250000001 -21.853344999999976 Z M77.4 12.016411250000015 Q53.128327500000005 12.016411250000015 33.55402875 -2.005404999999989 Q13.979568749999999 -16.02722124999999 4.35358875 -38.454999999999984 Q13.979568749999999 -60.882778749999986 33.55402875 -74.90459499999999 Q53.128327500000005 -88.92641124999997 77.4 -88.92641124999997 Q101.67167250000001 -88.92641124999997 121.24597125000001 -74.90459499999999 Q140.82043124999998 -60.882778749999986 150.44641125 -38.454999999999984 Q140.82043124999998 -16.02722124999999 121.24597125000001 -2.005404999999989 Q101.67167250000001 12.016411250000015 77.4 12.016411250000015 Z M77.3809725 0.24500000000001165 Q96.8541675 0.24500000000001165 113.1584775 -10.316874999999989 Q129.4627875 -20.878749999999982 138.0090375 -38.454999999999984 Q129.4627875 -56.031249999999986 113.177505 -66.59312499999999 Q96.89238375000001 -77.15499999999999 77.4190275 -77.15499999999999 Q57.9458325 -77.15499999999999 41.6415225 -66.59312499999999 Q25.3372125 -56.031249999999986 16.6297125 -38.454999999999984 Q25.3372125 -20.878749999999982 41.62249500000001 -10.316874999999989 Q57.907616250000004 0.24500000000001165 77.3809725 0.24500000000001165 Z"/></g><g id="Medium-L" transform="matrix(1 0 0 1 1674.31 1556)"><path d="M77.4190275 -11.042499999999983 Q88.84875 -11.042499999999983 96.830625 -19.043402499999985 Q104.8125 -27.04414374999999 104.8125 -38.47402749999999 Q104.8125 -49.90374999999999 96.81159749999999 -57.88562499999999 Q88.81085625 -65.86749999999999 77.3809725 -65.86749999999999 Q65.95125 -65.86749999999999 57.969375 -57.86659749999998 Q49.987500000000004 -49.86585624999998 49.987500000000004 -38.43597249999999 Q49.987500000000004 -27.00624999999998 57.9884025 -19.024374999999985 Q65.98914375000001 -11.042499999999983 77.4190275 -11.042499999999983 Z M77.37113625 -21.01194249999999 Q70.0911825 -21.01194249999999 65.0240625 -26.107926249999977 Q59.956942500000004 -31.20390999999998 59.956942500000004 -38.48386374999998 Q59.956942500000004 -45.76381749999999 65.05292625 -50.83093749999999 Q70.14891 -55.89805749999998 77.42886375 -55.89805749999998 Q84.70881750000001 -55.89805749999998 89.7759375 -50.80207374999999 Q94.8430575 -45.706089999999975 94.8430575 -38.426136249999985 Q94.8430575 -31.14618249999998 89.74707375000001 -26.079062499999992 Q84.65109 -21.01194249999999 77.37113625 -21.01194249999999 Z M77.4 10.806875000000016 Q53.54902875 10.806875000000016 34.290135 -2.846807499999983 Q15.03124125 -16.500489999999985 5.563125 -38.454999999999984 Q15.03124125 -60.40951 34.290135 -74.06319249999999 Q53.54902875 -87.71687499999999 77.4 -87.71687499999999 Q101.25097125 -87.71687499999999 120.50986499999999 -74.06319249999999 Q139.76875875000002 -60.40951 149.236875 -38.454999999999984 Q139.76875875000002 -16.500489999999985 120.50986499999999 -2.846807499999983 Q101.25097125 10.806875000000016 77.4 10.806875000000016 Z M77.37629625000001 0.24500000000001165 Q96.88706250000001 0.24500000000001165 113.22749250000001 -10.316874999999989 Q129.5679225 -20.878749999999982 138.11417250000002 -38.454999999999984 Q129.5679225 -56.031249999999986 113.25119624999999 -66.59312499999999 Q96.93463125 -77.15499999999999 77.42370375 -77.15499999999999 Q57.9129375 -77.15499999999999 41.57250750000001 -66.59312499999999 Q25.232077500000003 -56.031249999999986 16.5245775 -38.454999999999984 Q25.232077500000003 -20.878749999999982 41.54880375 -10.316874999999989 Q57.86536875 0.24500000000001165 77.37629625000001 0.24500000000001165 Z"/></g><g id="Regular-L" transform="matrix(1 0 0 1 1378.56 1556)"><path d="M77.4190275 -11.042499999999983 Q88.84875 -11.042499999999983 96.830625 -19.043402499999985 Q104.8125 -27.04414374999999 104.8125 -38.47402749999999 Q104.8125 -49.90374999999999 96.81159749999999 -57.88562499999999 Q88.81085625 -65.86749999999999 77.3809725 -65.86749999999999 Q65.95125 -65.86749999999999 57.969375 -57.86659749999998 Q49.987500000000004 -49.86585624999998 49.987500000000004 -38.43597249999999 Q49.987500000000004 -27.00624999999998 57.9884025 -19.024374999999985 Q65.98914375000001 -11.042499999999983 77.4190275 -11.042499999999983 Z M77.36210625 -20.39499999999999 Q69.82125 -20.39499999999999 64.580625 -25.673518749999985 Q59.34 -30.952198749999994 59.34 -38.49289374999999 Q59.34 -46.03374999999998 64.61851875 -51.27437499999999 Q69.89719875 -56.514999999999986 77.43789375 -56.514999999999986 Q84.97875 -56.514999999999986 90.219375 -51.23648124999998 Q95.46000000000001 -45.95780124999999 95.46000000000001 -38.41710624999999 Q95.46000000000001 -30.876249999999985 90.18148125 -25.63562499999999 Q84.90280125 -20.39499999999999 77.36210625 -20.39499999999999 Z M77.4 9.920000000000016 Q53.8575 9.920000000000016 34.83 -3.4637499999999832 Q15.8025 -16.847499999999982 6.45 -38.454999999999984 Q15.8025 -60.062499999999986 34.83 -73.44624999999999 Q53.8575 -86.82999999999998 77.4 -86.82999999999998 Q100.94250000000001 -86.82999999999998 119.97 -73.44624999999999 Q138.9975 -60.062499999999986 148.35 -38.454999999999984 Q138.9975 -16.847499999999982 119.97 -3.4637499999999832 Q100.94250000000001 9.920000000000016 77.4 9.920000000000016 Z M77.37274875 0.24500000000001165 Q96.91125000000001 0.24500000000001165 113.278125 -10.316874999999989 Q129.645 -20.878749999999982 138.19125 -38.454999999999984 Q129.645 -56.031249999999986 113.30537625 -66.59312499999999 Q96.96559125 -77.15499999999999 77.42725125 -77.15499999999999 Q57.88875 -77.15499999999999 41.521875 -66.59312499999999 Q25.155 -56.031249999999986 16.4475 -38.454999999999984 Q25.155 -20.878749999999982 41.49462375 -10.316874999999989 Q57.83440875 0.24500000000001165 77.37274875 0.24500000000001165 Z"/></g><g id="Light-L" transform="matrix(1 0 0 1 1082.77 1556)"><path d="M77.43354000000001 -13.337409999999991 Q87.8564175 -13.337409999999991 95.18700375 -20.70153624999999 Q102.51759000000001 -28.065823749999993 102.51759000000001 -38.488539999999986 Q102.51759000000001 -48.911417499999985 95.15346375000001 -56.242003749999995 Q87.78917625 -63.57258999999999 77.36646 -63.57258999999999 Q66.9435825 -63.57258999999999 59.61299625 -56.20846374999999 Q52.282410000000006 -48.844176249999975 52.282410000000006 -38.42145999999998 Q52.282410000000006 -27.998582499999983 59.646536250000004 -20.66799624999998 Q67.01082375 -13.337409999999991 77.43354000000001 -13.337409999999991 Z M77.35114125 -20.581082499999987 Q69.88333125 -20.581082499999987 64.70462625 -25.80848499999999 Q59.5260825 -31.036048749999978 59.5260825 -38.50385874999999 Q59.5260825 -45.97166874999999 64.753485 -51.150373749999986 Q69.98104875 -56.32891749999999 77.44885875 -56.32891749999999 Q84.91666875 -56.32891749999999 90.09537375000001 -51.10151499999999 Q95.27391750000001 -45.87395124999999 95.27391750000001 -38.40614124999999 Q95.27391750000001 -30.93833124999999 90.046515 -25.759626249999982 Q84.81895125 -20.581082499999987 77.35114125 -20.581082499999987 Z M77.40886875 6.694838750000017 Q55.2219975 6.694838750000017 37.12491 -5.727538749999987 Q19.02766125 -18.15007749999998 9.923325 -38.454999999999984 Q19.02766125 -58.75992249999999 37.11604125 -71.18246124999999 Q55.20426 -83.60483874999998 77.39113125 -83.60483874999998 Q99.57800250000001 -83.60483874999998 117.67509000000001 -71.18246124999999 Q135.77233875000002 -58.75992249999999 144.876675 -38.454999999999984 Q135.77233875000002 -18.15007749999998 117.68395875 -5.727538749999987 Q99.59574 6.694838750000017 77.40886875 6.694838750000017 Z M77.37274875 -0.6233312499999855 Q96.60116625 -0.6233312499999855 112.65795750000001 -10.906082499999982 Q128.7145875 -21.188833749999986 137.13683625000002 -38.454999999999984 Q128.7145875 -55.72116624999998 112.68504750000001 -66.00391749999999 Q96.6555075 -76.28666874999999 77.42725125 -76.28666874999999 Q58.19883375 -76.28666874999999 42.1420425 -66.00391749999999 Q26.085412500000004 -55.72116624999998 17.563995000000002 -38.454999999999984 Q26.085412500000004 -21.188833749999986 42.1149525 -10.906082499999982 Q58.144492500000005 -0.6233312499999855 77.37274875 -0.6233312499999855 Z"/></g><g id="Thin-L" transform="matrix(1 0 0 1 787.282 1556)"><path d="M77.44821375 -15.631836249999985 Q86.864085 -15.631836249999985 93.54354375 -22.35950874999999 Q100.22316375 -29.087181249999986 100.22316375 -38.503213749999986 Q100.22316375 -47.91908499999998 93.49549125 -54.59854374999999 Q86.76781875 -61.27816374999999 77.35178625 -61.27816374999999 Q67.935915 -61.27816374999999 61.256295 -54.55049124999999 Q54.57683625000001 -47.822818749999996 54.57683625000001 -38.406786249999996 Q54.57683625000001 -28.990914999999987 61.304508750000004 -22.311294999999987 Q68.03218125 -15.631836249999985 77.44821375 -15.631836249999985 Z M77.34017625 -20.767164999999984 Q69.94525125 -20.767164999999984 64.82862750000001 -25.94345124999998 Q59.712165 -31.11989874999999 59.712165 -38.51482374999998 Q59.712165 -45.90974874999999 64.88845125 -51.02637249999998 Q70.06489875000001 -56.14283499999999 77.45982375 -56.14283499999999 Q84.85474875 -56.14283499999999 89.9713725 -50.96654874999999 Q95.087835 -45.79010124999999 95.087835 -38.39517624999999 Q95.087835 -31.00025124999999 89.91154875000001 -25.88362749999999 Q84.73510125000001 -20.767164999999984 77.34017625 -20.767164999999984 Z M77.4177375 3.470000000000013 Q56.58633375 3.470000000000013 39.41933625 -7.991166249999985 Q22.2525 -19.452332499999983 13.39616625 -38.454999999999984 Q22.2525 -57.457667499999985 39.40159875 -68.91883374999999 Q56.550858749999996 -80.37999999999998 77.3822625 -80.37999999999998 Q98.21366625 -80.37999999999998 115.38066375 -68.91883374999999 Q132.5475 -57.457667499999985 141.40383375000002 -38.454999999999984 Q132.5475 -19.452332499999983 115.39840125 -7.991166249999985 Q98.24914125000001 3.470000000000013 77.4177375 3.470000000000013 Z M77.37274875 -1.4915012499999847 Q96.2910825 -1.4915012499999847 112.03779 -11.495289999999983 Q127.7844975 -21.498917499999983 136.08258375 -38.454999999999984 Q127.7844975 -55.41108249999999 112.06488 -65.41470999999999 Q96.34542375 -75.41849874999998 77.42725125 -75.41849874999998 Q58.5089175 -75.41849874999998 42.76221 -65.41470999999999 Q27.015502500000004 -55.41108249999999 18.6801675 -38.454999999999984 Q27.015502500000004 -21.498917499999983 42.73512 -11.495289999999983 Q58.45457625 -1.4915012499999847 77.37274875 -1.4915012499999847 Z"/></g><g id="Ultralight-L" transform="matrix(1 0 0 1 491.205 1556)"><path d="M77.45692125000001 -17.008749999999985 Q86.26875 -17.008749999999985 92.5575 -23.354421249999987 Q98.84625 -29.700092499999982 98.84625 -38.511921249999986 Q98.84625 -47.32374999999999 92.50057875000002 -53.61249999999998 Q86.1549075 -59.90124999999999 77.34307875 -59.90124999999999 Q68.53125 -59.90124999999999 62.2425 -53.555578749999995 Q55.95375 -47.209907499999986 55.95375 -38.39807874999998 Q55.95375 -29.586249999999993 62.29942125 -23.297499999999985 Q68.6450925 -17.008749999999985 77.45692125000001 -17.008749999999985 Z M77.33356500000001 -20.878749999999982 Q69.9825 -20.878749999999982 64.903125 -26.02455999999998 Q59.823750000000004 -31.17036999999999 59.823750000000004 -38.52143499999998 Q59.823750000000004 -45.87249999999999 64.96956 -50.95187499999999 Q70.11537 -56.031249999999986 77.466435 -56.031249999999986 Q84.8175 -56.031249999999986 89.89687500000001 -50.885439999999974 Q94.97625000000001 -45.73962999999999 94.97625000000001 -38.388564999999986 Q94.97625000000001 -31.03749999999998 89.83044 -25.95812499999998 Q84.68463000000001 -20.878749999999982 77.33356500000001 -20.878749999999982 Z M77.42305875 1.535000000000018 Q57.405 1.535000000000018 40.79625 -9.349374999999988 Q24.1875 -20.233749999999986 15.48 -38.454999999999984 Q24.1875 -56.67624999999998 40.77319125 -67.56062499999999 Q57.3588825 -78.445 77.37694125 -78.445 Q97.395 -78.445 114.00375 -67.56062499999999 Q130.6125 -56.67624999999998 139.32 -38.454999999999984 Q130.6125 -20.233749999999986 114.02680875000001 -9.349374999999988 Q97.44111749999999 1.535000000000018 77.42305875 1.535000000000018 Z M77.37274875 -2.0124999999999886 Q96.105 -2.0124999999999886 111.665625 -11.848749999999988 Q127.22625000000001 -21.684999999999988 135.45000000000002 -38.454999999999984 Q127.22625000000001 -55.22499999999998 111.69287625 -65.06124999999999 Q96.15934125 -74.8975 77.42725125 -74.8975 Q58.695 -74.8975 43.134375 -65.06124999999999 Q27.57375 -55.22499999999998 19.35 -38.454999999999984 Q27.57375 -21.684999999999988 43.10712375000001 -11.848749999999988 Q58.64065875 -2.0124999999999886 77.37274875 -2.0124999999999886 Z"/></g><g id="Bold-M" transform="matrix(1 0 0 1 2281.8 1126)"><path d="M60.0 -15.22999999999999 Q69.375 -15.22999999999999 75.9375 -21.79249999999999 Q82.5 -28.35499999999999 82.5 -37.72999999999999 Q82.5 -47.10499999999999 75.9375 -53.66749999999999 Q69.375 -60.22999999999999 60.0 -60.22999999999999 Q50.625 -60.22999999999999 44.0625 -53.66749999999999 Q37.5 -47.10499999999999 37.5 -37.72999999999999 Q37.5 -28.35499999999999 44.0625 -21.79249999999999 Q50.625 -15.22999999999999 60.0 -15.22999999999999 Z M60.022 -26.85499999999999 Q55.5 -26.85499999999999 52.3125 -30.02049999999999 Q49.125 -33.18587499999999 49.125 -37.70799999999999 Q49.125 -42.22999999999999 52.2905 -45.41749999999999 Q55.455875 -48.60499999999999 59.978 -48.60499999999999 Q64.5 -48.60499999999999 67.6875 -45.43962499999999 Q70.875 -42.274124999999984 70.875 -37.75199999999999 Q70.875 -33.22999999999999 67.709625 -30.04249999999999 Q64.544125 -26.85499999999999 60.022 -26.85499999999999 Z M60.0 3.6450000000000102 Q40.25 3.6450000000000102 24.3125 -7.79249999999999 Q8.375 -19.22999999999999 1.125 -37.72999999999999 Q8.375 -56.22999999999999 24.3125 -67.66749999999999 Q40.25 -79.10499999999999 60.0 -79.10499999999999 Q79.75 -79.10499999999999 95.6875 -67.66749999999999 Q111.625 -56.22999999999999 118.875 -37.72999999999999 Q111.625 -19.22999999999999 95.6875 -7.79249999999999 Q79.75 3.6450000000000102 60.0 3.6450000000000102 Z M60.011125 -10.22999999999999 Q74.0 -10.22999999999999 85.6875 -17.72999999999999 Q97.375 -25.22999999999999 103.625 -37.72999999999999 Q97.375 -50.22999999999999 85.676375 -57.72999999999999 Q73.97775 -65.22999999999999 59.988875 -65.22999999999999 Q46.0 -65.22999999999999 34.3125 -57.72999999999999 Q22.625 -50.22999999999999 16.375 -37.72999999999999 Q22.625 -25.22999999999999 34.323625 -17.72999999999999 Q46.02225 -10.22999999999999 60.011125 -10.22999999999999 Z"/></g><g id="Semibold-M" transform="matrix(1 0 0 1 1985.97 1126)"><path d="M60.0 -15.22999999999999 Q69.375 -15.22999999999999 75.9375 -21.79249999999999 Q82.5 -28.35499999999999 82.5 -37.72999999999999 Q82.5 -47.10499999999999 75.9375 -53.66749999999999 Q69.375 -60.22999999999999 60.0 -60.22999999999999 Q50.625 -60.22999999999999 44.0625 -53.66749999999999 Q37.5 -47.10499999999999 37.5 -37.72999999999999 Q37.5 -28.35499999999999 44.0625 -21.79249999999999 Q50.625 -15.22999999999999 60.0 -15.22999999999999 Z M60.0125 -25.71374999999999 Q55.010875 -25.71374999999999 51.497375 -29.214874999999992 Q47.98375 -32.71599999999999 47.98375 -37.71749999999999 Q47.98375 -42.71912499999999 51.484875 -46.232624999999985 Q54.986 -49.74624999999999 59.9875 -49.74624999999999 Q64.989125 -49.74624999999999 68.502625 -46.24512499999999 Q72.01625 -42.743999999999986 72.01625 -37.74249999999999 Q72.01625 -32.74087499999999 68.515125 -29.227374999999988 Q65.014 -25.71374999999999 60.0125 -25.71374999999999 Z M60.0 1.9603750000000097 Q40.902125 1.9603750000000097 25.37225 -8.93374999999999 Q9.84225 -19.827749999999988 2.809625 -37.72999999999999 Q9.84225 -55.632249999999985 25.37225 -66.52624999999999 Q40.902125 -77.42037499999999 60.0 -77.42037499999999 Q79.097875 -77.42037499999999 94.62775 -66.52624999999999 Q110.15775 -55.632249999999985 117.190375 -37.72999999999999 Q110.15775 -19.827749999999988 94.62775 -8.93374999999999 Q79.097875 1.9603750000000097 60.0 1.9603750000000097 Z M60.00625 -10.22999999999999 Q74.054375 -10.22999999999999 85.79625 -17.70287499999999 Q97.538 -25.17562499999999 103.788 -37.72999999999999 Q97.538 -50.28437499999998 85.789875 -57.75712499999999 Q74.04175 -65.22999999999999 59.99375 -65.22999999999999 Q45.945625 -65.22999999999999 34.20375 -57.75712499999999 Q22.462 -50.28437499999998 16.212 -37.72999999999999 Q22.462 -25.17562499999999 34.210125 -17.70287499999999 Q45.95825 -10.22999999999999 60.00625 -10.22999999999999 Z"/></g><g id="Medium-M" transform="matrix(1 0 0 1 1689.91 1126)"><path d="M60.0 -15.22999999999999 Q69.375 -15.22999999999999 75.9375 -21.79249999999999 Q82.5 -28.35499999999999 82.5 -37.72999999999999 Q82.5 -47.10499999999999 75.9375 -53.66749999999999 Q69.375 -60.22999999999999 60.0 -60.22999999999999 Q50.625 -60.22999999999999 44.0625 -53.66749999999999 Q37.5 -47.10499999999999 37.5 -37.72999999999999 Q37.5 -28.35499999999999 44.0625 -21.79249999999999 Q50.625 -15.22999999999999 60.0 -15.22999999999999 Z M60.00525 -24.85774999999999 Q54.644 -24.85774999999999 50.885875 -28.61062499999999 Q47.12775 -32.36349999999999 47.12775 -37.72474999999999 Q47.12775 -43.085999999999984 50.880625 -46.84412499999999 Q54.6335 -50.602249999999984 59.99475 -50.602249999999984 Q65.356 -50.602249999999984 69.114125 -46.849374999999995 Q72.87225 -43.09649999999999 72.87225 -37.735249999999986 Q72.87225 -32.37399999999999 69.119375 -28.61587499999999 Q65.3665 -24.85774999999999 60.00525 -24.85774999999999 Z M60.0 0.6966250000000116 Q41.39125 0.6966250000000116 26.167125 -9.78974999999999 Q10.942875 -20.27624999999999 4.073375 -37.72999999999999 Q10.942875 -55.18374999999999 26.167125 -65.67025 Q41.39125 -76.15662499999999 60.0 -76.15662499999999 Q78.60875 -76.15662499999999 93.832875 -65.67025 Q109.057125 -55.18374999999999 115.926625 -37.72999999999999 Q109.057125 -20.27624999999999 93.832875 -9.78974999999999 Q78.60875 0.6966250000000116 60.0 0.6966250000000116 Z M60.002625 -10.22999999999999 Q74.095125 -10.22999999999999 85.87775 -17.68249999999999 Q97.660375 -25.134874999999987 103.910375 -37.72999999999999 Q97.660375 -50.325124999999986 85.875 -57.77749999999999 Q74.08975 -65.22999999999999 59.997375 -65.22999999999999 Q45.904875 -65.22999999999999 34.12225 -57.77749999999999 Q22.339625 -50.325124999999986 16.089625 -37.72999999999999 Q22.339625 -25.134874999999987 34.125 -17.68249999999999 Q45.91025 -10.22999999999999 60.002625 -10.22999999999999 Z"/></g><g id="Regular-M" transform="matrix(1 0 0 1 1394.06 1126)"><path d="M60.0 -15.22999999999999 Q69.375 -15.22999999999999 75.9375 -21.79249999999999 Q82.5 -28.35499999999999 82.5 -37.72999999999999 Q82.5 -47.10499999999999 75.9375 -53.66749999999999 Q69.375 -60.22999999999999 60.0 -60.22999999999999 Q50.625 -60.22999999999999 44.0625 -53.66749999999999 Q37.5 -47.10499999999999 37.5 -37.72999999999999 Q37.5 -28.35499999999999 44.0625 -21.79249999999999 Q50.625 -15.22999999999999 60.0 -15.22999999999999 Z M60.0 -24.22999999999999 Q54.375 -24.22999999999999 50.4375 -28.16749999999999 Q46.5 -32.10499999999999 46.5 -37.72999999999999 Q46.5 -43.35499999999999 50.4375 -47.29249999999999 Q54.375 -51.22999999999999 60.0 -51.22999999999999 Q65.625 -51.22999999999999 69.5625 -47.29249999999999 Q73.5 -43.35499999999999 73.5 -37.72999999999999 Q73.5 -32.10499999999999 69.5625 -28.16749999999999 Q65.625 -24.22999999999999 60.0 -24.22999999999999 Z M60.0 -0.22999999999998977 Q41.75 -0.22999999999998977 26.75 -10.41749999999999 Q11.75 -20.60499999999999 5.0 -37.72999999999999 Q11.75 -54.85499999999999 26.75 -65.04249999999999 Q41.75 -75.22999999999999 60.0 -75.22999999999999 Q78.25 -75.22999999999999 93.25 -65.04249999999999 Q108.25 -54.85499999999999 115.0 -37.72999999999999 Q108.25 -20.60499999999999 93.25 -10.41749999999999 Q78.25 -0.22999999999998977 60.0 -0.22999999999998977 Z M60.0 -10.22999999999999 Q74.125 -10.22999999999999 85.9375 -17.66749999999999 Q97.75 -25.10499999999999 104.0 -37.72999999999999 Q97.75 -50.35499999999999 85.9375 -57.79249999999999 Q74.125 -65.22999999999999 60.0 -65.22999999999999 Q45.875 -65.22999999999999 34.0625 -57.79249999999999 Q22.25 -50.35499999999999 16.0 -37.72999999999999 Q22.25 -25.10499999999999 34.0625 -17.66749999999999 Q45.875 -10.22999999999999 60.0 -10.22999999999999 Z"/></g><g id="Light-M" transform="matrix(1 0 0 1 1098.18 1126)"><path d="M60.011375 -17.345499999999987 Q68.5095 -17.345499999999987 74.447 -23.29424999999999 Q80.3845 -29.243124999999992 80.3845 -37.74137499999999 Q80.3845 -46.23949999999999 74.43575 -52.17699999999999 Q68.486875 -58.11449999999999 59.988625 -58.11449999999999 Q51.4905 -58.11449999999999 45.553 -52.16574999999999 Q39.6155 -46.21687499999999 39.6155 -37.71862499999999 Q39.6155 -29.220499999999987 45.56425 -23.282999999999987 Q51.513125 -17.345499999999987 60.011375 -17.345499999999987 Z M60.0 -24.22999999999999 Q54.375 -24.22999999999999 50.4375 -28.16749999999999 Q46.5 -32.10499999999999 46.5 -37.72999999999999 Q46.5 -43.35499999999999 50.4375 -47.29249999999999 Q54.375 -51.22999999999999 60.0 -51.22999999999999 Q65.625 -51.22999999999999 69.5625 -47.29249999999999 Q73.5 -43.35499999999999 73.5 -37.72999999999999 Q73.5 -32.10499999999999 69.5625 -28.16749999999999 Q65.625 -24.22999999999999 60.0 -24.22999999999999 Z M60.006875 -2.7301249999999904 Q42.75975 -2.7301249999999904 28.577 -12.244499999999988 Q14.394375 -21.75887499999999 7.6925 -37.72999999999999 Q14.394375 -53.70112499999999 28.57025 -63.21549999999999 Q42.746 -72.72987499999999 59.993125 -72.72987499999999 Q77.24025 -72.72987499999999 91.423 -63.21549999999999 Q105.605625 -53.70112499999999 112.3075 -37.72999999999999 Q105.605625 -21.75887499999999 91.42975 -12.244499999999988 Q77.254 -2.7301249999999904 60.006875 -2.7301249999999904 Z M60.0 -10.22999999999999 Q74.125 -10.22999999999999 85.9375 -17.66749999999999 Q97.75 -25.10499999999999 104.0 -37.72999999999999 Q97.75 -50.35499999999999 85.9375 -57.79249999999999 Q74.125 -65.22999999999999 60.0 -65.22999999999999 Q45.875 -65.22999999999999 34.0625 -57.79249999999999 Q22.25 -50.35499999999999 16.0 -37.72999999999999 Q22.25 -25.10499999999999 34.0625 -17.66749999999999 Q45.875 -10.22999999999999 60.0 -10.22999999999999 Z"/></g><g id="Thin-M" transform="matrix(1 0 0 1 802.565 1126)"><path d="M60.022625 -19.46074999999999 Q67.64425 -19.46074999999999 72.95675 -24.795874999999988 Q78.26925 -30.130999999999993 78.26925 -37.75262499999999 Q78.26925 -45.37424999999999 72.934125 -50.68674999999999 Q67.599 -55.99924999999999 59.977375 -55.99924999999999 Q52.35575 -55.99924999999999 47.04325 -50.664124999999984 Q41.73075 -45.32899999999999 41.73075 -37.70737499999999 Q41.73075 -30.08574999999999 47.065875 -24.77324999999999 Q52.401 -19.46074999999999 60.022625 -19.46074999999999 Z M60.0 -24.22999999999999 Q54.375 -24.22999999999999 50.4375 -28.16749999999999 Q46.5 -32.10499999999999 46.5 -37.72999999999999 Q46.5 -43.35499999999999 50.4375 -47.29249999999999 Q54.375 -51.22999999999999 60.0 -51.22999999999999 Q65.625 -51.22999999999999 69.5625 -47.29249999999999 Q73.5 -43.35499999999999 73.5 -37.72999999999999 Q73.5 -32.10499999999999 69.5625 -28.16749999999999 Q65.625 -24.22999999999999 60.0 -24.22999999999999 Z M60.01375 -5.22999999999999 Q43.76925 -5.22999999999999 30.403875 -14.071374999999989 Q17.038375 -22.91262499999999 10.384625 -37.72999999999999 Q17.038375 -52.54737499999999 30.390125 -61.38862499999999 Q43.74175 -70.22999999999999 59.98625 -70.22999999999999 Q76.23075 -70.22999999999999 89.596125 -61.38862499999999 Q102.961625 -52.54737499999999 109.615375 -37.72999999999999 Q102.961625 -22.91262499999999 89.609875 -14.071374999999989 Q76.25825 -5.22999999999999 60.01375 -5.22999999999999 Z M60.0 -10.22999999999999 Q74.125 -10.22999999999999 85.9375 -17.66749999999999 Q97.75 -25.10499999999999 104.0 -37.72999999999999 Q97.75 -50.35499999999999 85.9375 -57.79249999999999 Q74.125 -65.22999999999999 60.0 -65.22999999999999 Q45.875 -65.22999999999999 34.0625 -57.79249999999999 Q22.25 -50.35499999999999 16.0 -37.72999999999999 Q22.25 -25.10499999999999 34.0625 -17.66749999999999 Q45.875 -10.22999999999999 60.0 -10.22999999999999 Z"/></g><g id="Ultralight-M" transform="matrix(1 0 0 1 506.415 1126)"><path d="M60.029375 -20.72999999999999 Q67.125 -20.72999999999999 72.0625 -25.69687499999999 Q77.0 -30.66387499999999 77.0 -37.75937499999999 Q77.0 -44.85499999999999 72.033125 -49.79249999999999 Q67.066125 -54.72999999999999 59.970625 -54.72999999999999 Q52.875 -54.72999999999999 47.9375 -49.76312499999999 Q43.0 -44.79612499999999 43.0 -37.70062499999999 Q43.0 -30.60499999999999 47.966875 -25.66749999999999 Q52.933875 -20.72999999999999 60.029375 -20.72999999999999 Z M60.0 -24.22999999999999 Q54.375 -24.22999999999999 50.4375 -28.16749999999999 Q46.5 -32.10499999999999 46.5 -37.72999999999999 Q46.5 -43.35499999999999 50.4375 -47.29249999999999 Q54.375 -51.22999999999999 60.0 -51.22999999999999 Q65.625 -51.22999999999999 69.5625 -47.29249999999999 Q73.5 -43.35499999999999 73.5 -37.72999999999999 Q73.5 -32.10499999999999 69.5625 -28.16749999999999 Q65.625 -24.22999999999999 60.0 -24.22999999999999 Z M60.017875 -6.72999999999999 Q44.375 -6.72999999999999 31.5 -15.16749999999999 Q18.625 -23.60499999999999 12.0 -37.72999999999999 Q18.625 -51.85499999999999 31.482125 -60.29249999999999 Q44.33925 -68.72999999999999 59.982125 -68.72999999999999 Q75.625 -68.72999999999999 88.5 -60.29249999999999 Q101.375 -51.85499999999999 108.0 -37.72999999999999 Q101.375 -23.60499999999999 88.517875 -15.16749999999999 Q75.66075 -6.72999999999999 60.017875 -6.72999999999999 Z M60.0 -10.22999999999999 Q74.125 -10.22999999999999 85.9375 -17.66749999999999 Q97.75 -25.10499999999999 104.0 -37.72999999999999 Q97.75 -50.35499999999999 85.9375 -57.79249999999999 Q74.125 -65.22999999999999 60.0 -65.22999999999999 Q45.875 -65.22999999999999 34.0625 -57.79249999999999 Q22.25 -50.35499999999999 16.0 -37.72999999999999 Q22.25 -25.10499999999999 34.0625 -17.66749999999999 Q45.875 -10.22999999999999 60.0 -10.22999999999999 Z"/></g><g id="Bold-S" transform="matrix(1 0 0 1 2294.23 696)"><path d="M47.34 -18.660999999999987 Q54.243750000000006 -18.660999999999987 59.076375000000006 -23.493624999999987 Q63.909000000000006 -28.326249999999987 63.909000000000006 -35.22999999999999 Q63.909000000000006 -42.13374999999999 59.076375000000006 -46.96637499999999 Q54.243750000000006 -51.79899999999999 47.34 -51.79899999999999 Q40.43625 -51.79899999999999 35.603625 -46.96637499999999 Q30.771 -42.13374999999999 30.771 -35.22999999999999 Q30.771 -28.326249999999987 35.603625 -23.493624999999987 Q40.43625 -18.660999999999987 47.34 -18.660999999999987 Z M47.357358 -27.83312499999999 Q44.282625 -27.83312499999999 42.112875 -29.985516999999987 Q39.943125 -32.13781037499999 39.943125 -35.21264199999999 Q39.943125 -38.28737499999999 42.095517 -40.45712499999999 Q44.247810375 -42.62687499999999 47.322642 -42.62687499999999 Q50.397375000000004 -42.62687499999999 52.567125000000004 -40.47448299999999 Q54.736875000000005 -38.32218962499999 54.736875000000005 -35.247357999999984 Q54.736875000000005 -32.17262499999999 52.584483000000006 -30.00287499999999 Q50.43218962500001 -27.83312499999999 47.357358 -27.83312499999999 Z M47.34 -3.7686249999999877 Q32.0929695 -3.7686249999999877 19.79423475 -12.496937499999987 Q7.495500000000001 -21.22524999999999 1.676625 -35.22999999999999 Q7.495500000000001 -49.23474999999999 19.79423475 -57.96306249999999 Q32.0929695 -66.691375 47.34 -66.691375 Q62.587030500000004 -66.691375 74.88576525 -57.96306249999999 Q87.1845 -49.23474999999999 93.003375 -35.22999999999999 Q87.1845 -21.22524999999999 74.88576525 -12.496937499999987 Q62.587030500000004 -3.7686249999999877 47.34 -3.7686249999999877 Z M47.348777625000004 -13.926999999999989 Q58.287375000000004 -13.926999999999989 67.558125 -19.696562499999988 Q76.828875 -25.46612499999999 81.85875 -35.22999999999999 Q76.828875 -44.99387499999999 67.549347375 -50.76343749999999 Q58.26981975 -56.53299999999999 47.331222375 -56.53299999999999 Q36.392625 -56.53299999999999 27.121875000000003 -50.76343749999999 Q17.851125 -44.99387499999999 12.821250000000001 -35.22999999999999 Q17.851125 -25.46612499999999 27.130652625 -19.696562499999988 Q36.41018025 -13.926999999999989 47.348777625000004 -13.926999999999989 Z"/></g><g id="Semibold-S" transform="matrix(1 0 0 1 1998.1 696)"><path d="M47.34 -18.660999999999987 Q54.243750000000006 -18.660999999999987 59.076375000000006 -23.493624999999987 Q63.909000000000006 -28.326249999999987 63.909000000000006 -35.22999999999999 Q63.909000000000006 -42.13374999999999 59.076375000000006 -46.96637499999999 Q54.243750000000006 -51.79899999999999 47.34 -51.79899999999999 Q40.43625 -51.79899999999999 35.603625 -46.96637499999999 Q30.771 -42.13374999999999 30.771 -35.22999999999999 Q30.771 -28.326249999999987 35.603625 -23.493624999999987 Q40.43625 -18.660999999999987 47.34 -18.660999999999987 Z M47.34986250000001 -26.932678749999987 Q43.896705375 -26.932678749999987 41.469741375 -29.349878874999987 Q39.04267875 -31.76707899999999 39.04267875 -35.220137499999986 Q39.04267875 -38.67329462499999 41.459878875 -41.10025862499999 Q43.877079 -43.527321249999986 47.3301375 -43.527321249999986 Q50.783294625 -43.527321249999986 53.210258625 -41.110121124999985 Q55.63732125 -38.692920999999984 55.63732125 -35.239862499999994 Q55.63732125 -31.78670537499999 53.220121125 -29.359741374999984 Q50.802921 -26.932678749999987 47.34986250000001 -26.932678749999987 Z M47.34 -5.097794124999986 Q32.607496125 -5.097794124999986 20.6303775 -13.397383749999985 Q8.65316025 -21.696874749999985 3.005794125 -35.22999999999999 Q8.65316025 -48.76312524999999 20.6303775 -57.06261624999999 Q32.607496125 -65.36220587499999 47.34 -65.36220587499999 Q62.072503875 -65.36220587499999 74.04962250000001 -57.06261624999999 Q86.02683975 -48.76312524999999 91.67420587500001 -35.22999999999999 Q86.02683975 -21.696874749999985 74.04962250000001 -13.397383749999985 Q62.072503875 -5.097794124999986 47.34 -5.097794124999986 Z M47.34493125 -13.926999999999989 Q58.330276874999996 -13.926999999999989 67.64392875 -19.67516087499999 Q76.957482 -25.423223124999986 81.987357 -35.22999999999999 Q76.957482 -45.03677687499999 67.638898875 -50.78483912499999 Q58.32031575 -56.53299999999999 47.33506875 -56.53299999999999 Q36.349723125000004 -56.53299999999999 27.03607125 -50.78483912499999 Q17.722518 -45.03677687499999 12.692643 -35.22999999999999 Q17.722518 -25.423223124999986 27.041101125 -19.67516087499999 Q36.35968425 -13.926999999999989 47.34493125 -13.926999999999989 Z"/></g><g id="Medium-S" transform="matrix(1 0 0 1 1701.85 696)"><path d="M47.34 -18.660999999999987 Q54.243750000000006 -18.660999999999987 59.076375000000006 -23.493624999999987 Q63.909000000000006 -28.326249999999987 63.909000000000006 -35.22999999999999 Q63.909000000000006 -42.13374999999999 59.076375000000006 -46.96637499999999 Q54.243750000000006 -51.79899999999999 47.34 -51.79899999999999 Q40.43625 -51.79899999999999 35.603625 -46.96637499999999 Q30.771 -42.13374999999999 30.771 -35.22999999999999 Q30.771 -28.326249999999987 35.603625 -23.493624999999987 Q40.43625 -18.660999999999987 47.34 -18.660999999999987 Z M47.34414225 -26.257294749999986 Q43.607241 -26.257294749999986 40.987267875 -28.873125624999993 Q38.36729475 -31.488956499999986 38.36729475 -35.22585774999999 Q38.36729475 -38.962758999999984 40.98312562500001 -41.58273212499999 Q43.5989565 -44.20270524999999 47.33585775 -44.20270524999999 Q51.072759 -44.20270524999999 53.692732125000006 -41.586874374999994 Q56.31270525 -38.97104349999999 56.31270525 -35.234142249999984 Q56.31270525 -31.49724099999999 53.69687437500001 -28.877267874999987 Q51.08104350000001 -26.257294749999986 47.34414225 -26.257294749999986 Z M47.34 -6.094892874999985 Q32.993514375000004 -6.094892874999985 21.257533875 -14.07276774999999 Q9.521553375000002 -22.050741249999987 4.002892875000001 -35.22999999999999 Q9.521553375000002 -48.409258749999985 21.257533875 -56.38723225 Q32.993514375000004 -64.365107125 47.34 -64.365107125 Q61.686485625 -64.365107125 73.422466125 -56.38723225 Q85.158446625 -48.409258749999985 90.677107125 -35.22999999999999 Q85.158446625 -22.050741249999987 73.422466125 -14.07276774999999 Q61.686485625 -6.094892874999985 47.34 -6.094892874999985 Z M47.342071125000004 -13.926999999999989 Q58.362428625 -13.926999999999989 67.70823225000001 -19.659084999999987 Q77.05403587500001 -25.39107137499999 82.083910875 -35.22999999999999 Q77.05403587500001 -45.068928624999984 67.7060625 -50.80091499999999 Q58.35818775 -56.53299999999999 47.337928875 -56.53299999999999 Q36.317571375 -56.53299999999999 26.97176775 -50.80091499999999 Q17.625964125000003 -45.068928624999984 12.596089125 -35.22999999999999 Q17.625964125000003 -25.39107137499999 26.9739375 -19.659084999999987 Q36.32181225 -13.926999999999989 47.342071125000004 -13.926999999999989 Z"/></g><g id="Regular-S" transform="matrix(1 0 0 1 1405.73 696)"><path d="M47.34 -18.660999999999987 Q54.243750000000006 -18.660999999999987 59.076375000000006 -23.493624999999987 Q63.909000000000006 -28.326249999999987 63.909000000000006 -35.22999999999999 Q63.909000000000006 -42.13374999999999 59.076375000000006 -46.96637499999999 Q54.243750000000006 -51.79899999999999 47.34 -51.79899999999999 Q40.43625 -51.79899999999999 35.603625 -46.96637499999999 Q30.771 -42.13374999999999 30.771 -35.22999999999999 Q30.771 -28.326249999999987 35.603625 -23.493624999999987 Q40.43625 -18.660999999999987 47.34 -18.660999999999987 Z M47.34 -25.761999999999986 Q43.395 -25.761999999999986 40.633500000000005 -28.52349999999999 Q37.872 -31.28499999999999 37.872 -35.22999999999999 Q37.872 -39.17499999999999 40.633500000000005 -41.93649999999999 Q43.395 -44.697999999999986 47.34 -44.697999999999986 Q51.285000000000004 -44.697999999999986 54.0465 -41.93649999999999 Q56.808 -39.17499999999999 56.808 -35.22999999999999 Q56.808 -31.28499999999999 54.0465 -28.52349999999999 Q51.285000000000004 -25.761999999999986 47.34 -25.761999999999986 Z M47.34 -6.825999999999986 Q33.276469500000005 -6.825999999999986 21.717422250000002 -14.56806249999999 Q10.158375000000001 -22.310124999999985 4.734 -35.22999999999999 Q10.158375000000001 -48.14987499999999 21.717422250000002 -55.89193749999998 Q33.276469500000005 -63.633999999999986 47.34 -63.633999999999986 Q61.4035305 -63.633999999999986 72.96257775000001 -55.89193749999998 Q84.521625 -48.14987499999999 89.946 -35.22999999999999 Q84.521625 -22.310124999999985 72.96257775000001 -14.56806249999999 Q61.4035305 -6.825999999999986 47.34 -6.825999999999986 Z M47.34 -13.926999999999989 Q58.386 -13.926999999999989 67.755375 -19.64724999999999 Q77.12475 -25.367499999999986 82.15462500000001 -35.22999999999999 Q77.12475 -45.09249999999999 67.755375 -50.81274999999999 Q58.386 -56.53299999999999 47.34 -56.53299999999999 Q36.294000000000004 -56.53299999999999 26.924625000000002 -50.81274999999999 Q17.55525 -45.09249999999999 12.525375 -35.22999999999999 Q17.55525 -25.367499999999986 26.924625000000002 -19.64724999999999 Q36.294000000000004 -13.926999999999989 47.34 -13.926999999999989 Z"/></g><g id="Light-S" transform="matrix(1 0 0 1 1109.75 696)"><path d="M47.348974875 -20.330129499999984 Q53.56087050000001 -20.330129499999984 57.90037050000001 -24.678505749999992 Q62.2398705 -29.026980624999993 62.2398705 -35.23897487499999 Q62.2398705 -41.45087049999999 57.89149425 -45.790370499999995 Q53.543019375 -50.12987049999999 47.331025125000004 -50.12987049999999 Q41.1191295 -50.12987049999999 36.7796295 -45.78149424999999 Q32.4401295 -41.433019374999986 32.4401295 -35.22102512499999 Q32.4401295 -29.009129499999986 36.788505750000006 -24.669629499999985 Q41.13698062500001 -20.330129499999984 47.348974875 -20.330129499999984 Z M47.34 -25.761999999999986 Q43.395 -25.761999999999986 40.633500000000005 -28.52349999999999 Q37.872 -31.28499999999999 37.872 -35.22999999999999 Q37.872 -39.17499999999999 40.633500000000005 -41.93649999999999 Q43.395 -44.697999999999986 47.34 -44.697999999999986 Q51.285000000000004 -44.697999999999986 54.0465 -41.93649999999999 Q56.808 -39.17499999999999 56.808 -35.22999999999999 Q56.808 -31.28499999999999 54.0465 -28.52349999999999 Q51.285000000000004 -25.761999999999986 47.34 -25.761999999999986 Z M47.345424375 -8.798598624999986 Q34.07316225 -8.798598624999986 23.159023875 -16.009565499999987 Q12.244786875 -23.22053237499999 6.858382500000001 -35.22999999999999 Q12.244786875 -47.23946762499999 23.153599500000002 -54.450434499999986 Q34.0623135 -61.661401375 47.334575625 -61.661401375 Q60.606837750000004 -61.661401375 71.520976125 -54.450434499999986 Q82.435213125 -47.23946762499999 87.8216175 -35.22999999999999 Q82.435213125 -23.22053237499999 71.52640050000001 -16.009565499999987 Q60.617686500000005 -8.798598624999986 47.345424375 -8.798598624999986 Z M47.34 -13.926999999999989 Q58.386 -13.926999999999989 67.755375 -19.64724999999999 Q77.12475 -25.367499999999986 82.15462500000001 -35.22999999999999 Q77.12475 -45.09249999999999 67.755375 -50.81274999999999 Q58.386 -56.53299999999999 47.34 -56.53299999999999 Q36.294000000000004 -56.53299999999999 26.924625000000002 -50.81274999999999 Q17.55525 -45.09249999999999 12.525375 -35.22999999999999 Q17.55525 -25.367499999999986 26.924625000000002 -19.64724999999999 Q36.294000000000004 -13.926999999999989 47.34 -13.926999999999989 Z"/></g><g id="Thin-S" transform="matrix(1 0 0 1 814.015 696)"><path d="M47.357851125 -21.99906174999999 Q52.87818825 -21.99906174999999 56.72456325 -25.863287874999983 Q60.570938250000005 -29.727513999999992 60.570938250000005 -35.24785112499999 Q60.570938250000005 -40.76818824999999 56.706712124999996 -44.61456324999999 Q52.84248600000001 -48.46093824999999 47.322148875 -48.46093824999999 Q41.80181175 -48.46093824999999 37.955436750000004 -44.59671212499998 Q34.10906175 -40.732485999999994 34.10906175 -35.21214887499999 Q34.10906175 -29.691811749999985 37.973287875 -25.84543674999999 Q41.837514000000006 -21.99906174999999 47.357851125 -21.99906174999999 Z M47.34 -25.761999999999986 Q43.395 -25.761999999999986 40.633500000000005 -28.52349999999999 Q37.872 -31.28499999999999 37.872 -35.22999999999999 Q37.872 -39.17499999999999 40.633500000000005 -41.93649999999999 Q43.395 -44.697999999999986 47.34 -44.697999999999986 Q51.285000000000004 -44.697999999999986 54.0465 -41.93649999999999 Q56.808 -39.17499999999999 56.808 -35.22999999999999 Q56.808 -31.28499999999999 54.0465 -28.52349999999999 Q51.285000000000004 -25.761999999999986 47.34 -25.761999999999986 Z M47.350848750000004 -10.770999999999987 Q34.86965775 -10.770999999999987 24.600329625 -17.450969874999988 Q14.330902875 -24.13084112499999 8.982469125 -35.22999999999999 Q14.330902875 -46.32915887499999 24.589480875000003 -53.009030124999995 Q34.84796025000001 -59.68899999999999 47.32915125 -59.68899999999999 Q59.810342250000005 -59.68899999999999 70.079670375 -53.009030124999995 Q80.349097125 -46.32915887499999 85.697530875 -35.22999999999999 Q80.349097125 -24.13084112499999 70.090519125 -17.450969874999988 Q59.83203975000001 -10.770999999999987 47.350848750000004 -10.770999999999987 Z M47.34 -13.926999999999989 Q58.386 -13.926999999999989 67.755375 -19.64724999999999 Q77.12475 -25.367499999999986 82.15462500000001 -35.22999999999999 Q77.12475 -45.09249999999999 67.755375 -50.81274999999999 Q58.386 -56.53299999999999 47.34 -56.53299999999999 Q36.294000000000004 -56.53299999999999 26.924625000000002 -50.81274999999999 Q17.55525 -45.09249999999999 12.525375 -35.22999999999999 Q17.55525 -25.367499999999986 26.924625000000002 -19.64724999999999 Q36.294000000000004 -13.926999999999989 47.34 -13.926999999999989 Z"/></g><g id="Ultralight-S" transform="matrix(1 0 0 1 517.792 696)"><path d="M47.363176875 -23.000499999999988 Q52.4685 -23.000499999999988 56.019000000000005 -26.574176874999992 Q59.569500000000005 -30.14795237499999 59.569500000000005 -35.25317687499999 Q59.569500000000005 -40.358499999999985 55.995823125 -43.90899999999999 Q52.422047625000005 -47.45949999999999 47.316823125 -47.45949999999999 Q42.2115 -47.45949999999999 38.661 -43.88582312499999 Q35.1105 -40.31204762499999 35.1105 -35.206823124999985 Q35.1105 -30.101499999999987 38.684176875000006 -26.550999999999988 Q42.257952375 -23.000499999999988 47.363176875 -23.000499999999988 Z M47.34 -25.761999999999986 Q43.395 -25.761999999999986 40.633500000000005 -28.52349999999999 Q37.872 -31.28499999999999 37.872 -35.22999999999999 Q37.872 -39.17499999999999 40.633500000000005 -41.93649999999999 Q43.395 -44.697999999999986 47.34 -44.697999999999986 Q51.285000000000004 -44.697999999999986 54.0465 -41.93649999999999 Q56.808 -39.17499999999999 56.808 -35.22999999999999 Q56.808 -31.28499999999999 54.0465 -28.52349999999999 Q51.285000000000004 -25.761999999999986 47.34 -25.761999999999986 Z M47.354103375 -11.954499999999989 Q35.3475945 -11.954499999999989 25.465172250000002 -18.31581249999999 Q15.58275 -24.67712499999999 10.257 -35.22999999999999 Q15.58275 -45.78287499999999 25.451068875000004 -52.14418749999999 Q35.319387750000004 -58.505499999999984 47.325896625000006 -58.505499999999984 Q59.3324055 -58.505499999999984 69.21482775 -52.14418749999999 Q79.09725 -45.78287499999999 84.423 -35.22999999999999 Q79.09725 -24.67712499999999 69.228931125 -18.31581249999999 Q59.360612249999996 -11.954499999999989 47.354103375 -11.954499999999989 Z M47.34 -13.926999999999989 Q58.386 -13.926999999999989 67.755375 -19.64724999999999 Q77.12475 -25.367499999999986 82.15462500000001 -35.22999999999999 Q77.12475 -45.09249999999999 67.755375 -50.81274999999999 Q58.386 -56.53299999999999 47.34 -56.53299999999999 Q36.294000000000004 -56.53299999999999 26.924625000000002 -50.81274999999999 Q17.55525 -45.09249999999999 12.525375 -35.22999999999999 Q17.55525 -25.367499999999986 26.924625000000002 -19.64724999999999 Q36.294000000000004 -13.926999999999989 47.34 -13.926999999999989 Z"/></g></g></svg>